# Created by Kenney (www.kenney.nl)

mtllib balconyWall.mtl

g balconyWall

v 0.4 0 0.4
v 0.4125 0 0.4
v 0.4 1 0.4
v 0.425 0.7 0.4
v 0.5 0 0.4
v 0.425 0.8054093 0.4
v 0.475 0.7 0.4
v 0.475 0.8054093 0.4
v 0.5 1 0.4
v 0.5 1 0.5
v 0.5 0 0.5
v 0.5 0 -0.4
v 0.5 0 -0.5
v 0.4125 0 -0.4
v 0.4 0 -0.5
v 0.4 0 -0.4
v 0.5 1 -0.5
v 0.5 1 -0.4
v 0.4 1 -0.5
v 0.4 1 -0.4
v 0.4 0 0.5
v 0.4 1 0.5
v 0.425 1 0.1
v 0.425 1 0.2054093
v 0.425 0.775 0.175
v 0.425 0.854057 0.254057
v 0.475 0.775 0.175
v 0.475 1 0.1
v 0.475 1 0.2054093
v 0.475 0.854057 0.254057
v 0.425 0.854057 -0.254057
v 0.475 0.854057 -0.254057
v 0.425 1 -0.2054093
v 0.475 1 -0.2054093
v 0.475 1 -0.1
v 0.425 1 -0.1
v 0.425 0.7 -0.4
v 0.425 0.8054093 -0.4
v 0.425 0.775 -0.175
v 0.475 0.775 -0.175
v 0.475 0.7 -0.4
v 0.475 0.8054093 -0.4

vn 0 0 -1
vn 1 0 0
vn 0 -1 0
vn 0 1 0
vn -1 0 0
vn 0 0 1
vn 0 -0.9486833 -0.3162278
vn 0 -0.7071068 -0.7071068
vn 0 -0.3162278 -0.9486833
vn 0 0.7071068 0.7071068
vn 0 0.9486833 0.3162278
vn 0 0.3162278 0.9486833
vn 0 0.7071068 -0.7071068
vn 0 0.3162278 -0.9486833
vn 0 -0.7071068 0.7071068
vn 0 -0.9486833 0.3162278
vn 0 0.9486833 -0.3162278
vn 0 -0.3162278 0.9486833

vt -15.74803 6.929483E-15
vt -16.24016 6.929483E-15
vt -15.74803 39.37008
vt -16.73228 27.55906
vt -19.68504 6.929483E-15
vt -16.73228 31.70903
vt -18.70079 27.55906
vt -18.70079 31.70903
vt -19.68504 39.37008
vt -15.74803 0
vt -19.68504 0
vt 19.68504 -15.74803
vt 19.68504 -19.68504
vt 16.24016 -15.74803
vt 15.74803 -19.68504
vt 15.74803 -15.74803
vt -19.68504 -19.68504
vt -19.68504 -15.74803
vt -15.74803 -19.68504
vt -15.74803 -15.74803
vt 19.68504 19.68504
vt 19.68504 15.74803
vt 15.74803 19.68504
vt 16.24016 15.74803
vt 15.74803 15.74803
vt -19.68504 15.74803
vt -19.68504 19.68504
vt -15.74803 15.74803
vt -15.74803 19.68504
vt 15.74803 0
vt 15.74803 39.37008
vt 19.68504 0
vt 19.68504 39.37008
vt 3.937008 39.37008
vt 8.086979 39.37008
vt 6.889764 30.51181
vt 10.00224 33.62429
vt 15.74803 27.55906
vt 15.74803 31.70903
vt -18.70079 -6.224956
vt -18.70079 3.112478
vt -16.73228 -6.224956
vt -16.73228 3.112478
vt -18.70079 3.937008
vt -18.70079 8.086979
vt -16.73228 3.937008
vt -16.73228 8.086979
vt -3.937008 39.37008
vt -6.889764 30.51181
vt -8.086979 39.37008
vt -10.00224 33.62429
vt -15.74803 27.55906
vt -15.74803 31.70903
vt -16.73228 26.76731
vt -18.70079 26.76731
vt -16.73228 36.10474
vt -18.70079 36.10474
vt 18.70079 1.143974
vt 18.70079 -4.91262
vt 16.73228 1.143974
vt 16.73228 -4.91262
vt 18.70079 28.73582
vt 16.73228 28.73582
vt 18.70079 34.79241
vt 16.73228 34.79241
vt -16.73228 28.73582
vt -18.70079 28.73582
vt -16.73228 34.79241
vt -18.70079 34.79241
vt -18.70079 -8.086979
vt -18.70079 -3.937008
vt -16.73228 -8.086979
vt -16.73228 -3.937008
vt 18.70079 3.112478
vt 18.70079 -6.224956
vt 16.73228 3.112478
vt 16.73228 -6.224956
vt -18.70079 -4.91262
vt -18.70079 1.143974
vt -16.73228 -4.91262
vt -16.73228 1.143974
vt 18.70079 26.76731
vt 16.73228 26.76731
vt 18.70079 36.10474
vt 16.73228 36.10474
vt 16.24016 -6.929483E-15
vt 18.70079 27.55906
vt 19.68504 -6.929483E-15
vt 15.74803 -6.929483E-15
vt 16.73228 27.55906
vt 18.70079 31.70903
vt 16.73228 31.70903

usemtl wood

f 3/3/1 2/2/1 1/1/1
f 2/2/1 3/3/1 4/4/1
f 2/2/1 4/4/1 5/5/1
f 4/4/1 3/3/1 6/6/1
f 7/7/1 5/5/1 4/4/1
f 6/6/1 3/3/1 8/8/1
f 5/5/1 7/7/1 9/9/1
f 9/9/1 7/7/1 8/8/1
f 9/9/1 8/8/1 3/3/1
f 10/9/2 5/10/2 9/3/2
f 5/10/2 10/9/2 11/11/2
f 14/14/3 13/13/3 12/12/3
f 13/13/3 14/14/3 15/15/3
f 15/15/3 14/14/3 16/16/3
f 19/19/4 18/18/4 17/17/4
f 18/18/4 19/19/4 20/20/4
f 21/23/3 5/22/3 11/21/3
f 5/22/3 21/23/3 2/24/3
f 2/24/3 21/23/3 1/25/3
f 3/28/4 10/27/4 9/26/4
f 10/27/4 3/28/4 22/29/4
f 21/32/5 3/31/5 1/30/5
f 3/31/5 21/32/5 22/33/5
f 16/10/5 19/9/5 15/11/5
f 19/9/5 16/10/5 20/3/5
f 19/3/1 13/11/1 15/10/1
f 13/11/1 19/3/1 17/9/1
f 18/31/2 13/32/2 17/33/2
f 13/32/2 18/31/2 12/30/2
f 10/33/6 21/30/6 11/32/6
f 21/30/6 10/33/6 22/31/6
f 25/36/5 24/35/5 23/34/5
f 24/35/5 25/36/5 26/37/5
f 26/37/5 25/36/5 4/38/5
f 26/37/5 4/38/5 6/39/5
f 4/42/7 27/41/8 7/40/7
f 27/41/8 4/42/7 25/43/8
f 23/46/4 29/45/4 28/44/4
f 29/45/4 23/46/4 24/47/4
f 29/50/2 27/49/2 28/48/2
f 27/49/2 29/50/2 30/51/2
f 27/49/2 30/51/2 7/52/2
f 7/52/2 30/51/2 8/53/2
f 23/56/9 27/55/8 25/54/8
f 27/55/8 23/56/9 28/57/9
f 26/60/10 8/59/11 30/58/10
f 8/59/11 26/60/10 6/61/11
f 29/64/12 26/63/10 30/62/10
f 26/63/10 29/64/12 24/65/12
f 33/68/14 32/67/13 31/66/13
f 32/67/13 33/68/14 34/69/14
f 33/72/4 35/71/4 34/70/4
f 35/71/4 33/72/4 36/73/4
f 39/49/5 38/53/5 37/52/5
f 38/53/5 39/49/5 31/51/5
f 31/51/5 39/49/5 33/50/5
f 33/50/5 39/49/5 36/48/5
f 39/76/15 41/75/16 40/74/15
f 41/75/16 39/76/15 37/77/16
f 38/80/17 32/79/13 42/78/17
f 32/79/13 38/80/17 31/81/13
f 32/37/2 41/38/2 42/39/2
f 41/38/2 32/37/2 40/36/2
f 40/36/2 32/37/2 34/35/2
f 40/36/2 34/35/2 35/34/2
f 35/84/18 39/83/15 40/82/15
f 39/83/15 35/84/18 36/85/18
f 12/88/6 41/87/6 14/86/6
f 14/86/6 41/87/6 16/89/6
f 41/87/6 12/88/6 18/33/6
f 37/90/6 16/89/6 41/87/6
f 41/87/6 18/33/6 42/91/6
f 16/89/6 37/90/6 20/31/6
f 42/91/6 18/33/6 38/92/6
f 20/31/6 37/90/6 38/92/6
f 20/31/6 38/92/6 18/33/6

