# Created by Kenney (www.kenney.nl)

mtllib blade.mtl

g blade

v -0.0555 0.4927 -0.0555
v 0.0555 0.4927 -0.0555
v -0.0555 0.5477 -0.0555
v 0.0555 0.5477 -0.0555
v 0.0555 0.5477 0.0555
v 0.0555 0.4927 0.0555
v -0.0555 0.4927 0.0555
v -0.0555 0.5477 0.0555
v -1.54489E-13 0.5477 0.0555
v -1.573767E-13 0.4927 0.0555
v -1.313879E-13 0.9072028 0.0555
v -1.313879E-13 0.9072028 0.3545763
v -1.617082E-13 0.4247 0.0555
v -1.617082E-13 0.4247 0.3545763
v -6.93035E-14 1.9305 0.0555
v -7.363497E-14 1.8625 0.0555
v -6.93035E-14 1.9305 0.3545763
v -7.652261E-14 1.8075 0.0555
v -9.817995E-14 1.447703 0.3545763
v -9.817995E-14 1.447703 0.0555
v -1.010676E-13 1.407203 0.0555
v -1.14062E-13 1.2051 0.0555
v -1.010676E-13 1.407203 0.3545763
v -1.169496E-13 1.1501 0.0555
v -1.299441E-13 0.9477028 0.3545763
v -1.299441E-13 0.9477028 0.0555
v -0.0555 1.8075 -0.0555
v -0.0555 1.8625 -0.0555
v -0.0555 1.8075 0.0555
v -0.0555 1.8625 0.0555
v 0.0555 1.1501 0.0555
v 0.0555 1.2051 0.0555
v -0.0555 1.1501 0.0555
v -0.0555 1.2051 0.0555
v 0.0555 1.8625 0.0555
v 0.0555 1.8075 0.0555
v -0.0555 1.1501 -0.0555
v 0.0555 1.1501 -0.0555
v -0.0555 1.2051 -0.0555
v 0.0555 1.2051 -0.0555
v 0.0555 1.8625 -0.0555
v 0.0555 1.8075 -0.0555
v 0.0355 0.4927 0.0355
v 0.0355 0.4927 -0.0355
v -0.0355 0.4927 0.0355
v -0.0355 0.4927 -0.0355
v -0.0355 0.5477 -0.0355
v 0.0355 0.5477 -0.0355
v -0.0355 0.5477 0.0355
v 0.0355 0.5477 0.0355
v 0.0355 1.2051 -0.0355
v 0.0355 1.2051 0.0355
v -0.0355 1.2051 -0.0355
v -0.0355 1.2051 0.0355
v 0.0355 1.1501 0.0355
v 0.0355 1.1501 -0.0355
v -0.0355 1.1501 0.0355
v -0.0355 1.1501 -0.0355
v 0.0355 1.8625 -0.0355
v 0.0355 1.8625 0.0355
v -0.0355 1.8625 -0.0355
v -0.0355 1.8625 0.0355
v 0.0355 1.8075 0.0355
v 0.0355 1.8075 -0.0355
v -0.0355 1.8075 0.0355
v -0.0355 1.8075 -0.0355
v 0.0355 0.25 -0.0355
v 0.0355 4.511946E-17 -0.0555
v 0.0555 4.511946E-17 -0.0355
v 0.0355 0.25 0.0355
v 0.0555 -4.511946E-17 0.0355
v 0.0355 -4.511946E-17 0.0555
v -0.0555 4.511946E-17 -0.0355
v -0.0355 4.511946E-17 -0.0555
v -0.0355 0.25 -0.0355
v -0.0355 4.511946E-17 0.0555
v -0.0555 4.511946E-17 0.0355
v -0.0355 0.25 0.0355
v 0.02025 0.9072028 0.374875
v 0.02025 0.9072028 0.0355
v -0.02025 0.9072028 0.374875
v -0.0151875 0.9072028 0.0355
v -0.02025 0.9072028 0.0355
v -0.02025 0.9477028 0.0355
v -0.02025 0.9477028 0.374875
v 0.02025 0.9477028 0.0355
v 0.02025 0.9477028 0.374875
v 0.0355 2 -0.0355
v 0.0355 2 0.0355
v -0.0355 2 -0.0355
v -0.0355 2 0.0355
v 0.02025 0.3842 0.0355
v -0.02025 0.3842 0.0355
v -0.0151875 0.3842 0.0355
v -0.02025 0.4247 0.0355
v 0.02025 0.4247 0.0355
v 0.02025 1.407203 0.0355
v -0.02025 1.407203 0.0355
v -0.0151875 1.407203 0.0355
v -0.02025 1.447703 0.0355
v 0.02025 1.447703 0.0355
v 0.02025 1.9305 0.0355
v -0.02025 1.9305 0.0355
v -0.0151875 1.9305 0.0355
v -0.02025 1.971 0.0355
v 0.02025 1.971 0.0355
v -0.02025 1.407203 0.374875
v -0.02025 1.447703 0.374875
v 0.02025 1.407203 0.374875
v 0.02025 0.3842 0.374875
v 0.02025 0.4247 0.374875
v 0.02025 1.971 0.374875
v -0.02025 1.971 0.374875
v -0.02025 0.3842 0.374875
v -0.02025 0.4247 0.374875
v 0.02025 1.447703 0.374875
v -0.02025 1.9305 0.374875
v 0.02025 1.9305 0.374875

vn 0 0 -1
vn 1 0 0
vn -1 0 0
vn 0 0 1
vn 0 -1 0
vn 0 1 0
vn 0.7059781 0.05647825 -0.7059781
vn 0.7059781 0.05647825 0.7059781
vn -0.7059781 0.05647825 -0.7059781
vn -0.7059781 0.05647825 0.7059781
vn 0 0.03990439 -0.9992035
vn -0.9992035 0.03990439 0
vn 0 0.03990439 0.9992035
vn 0.9992035 0.03990439 0
vn 0.9968153 0.07974523 0
vn 0 0.07974523 0.9968153
vn -0.9968153 0.07974523 0
vn 0 0.07974523 -0.9968153

vt 2.185039 19.39764
vt -2.185039 19.39764
vt 2.185039 21.56299
vt -2.185039 21.56299
vt -6.082246E-12 21.56299
vt -6.195933E-12 19.39764
vt -2.185039 35.71665
vt -13.9597 35.71665
vt -2.185039 16.72047
vt -13.9597 16.72047
vt -2.185039 76.00394
vt -2.185039 73.32677
vt -13.9597 76.00394
vt -2.185039 71.16142
vt -13.9597 56.99617
vt -2.185039 56.99617
vt -2.185039 55.40169
vt -2.185039 47.44488
vt -13.9597 55.40169
vt -2.185039 45.27953
vt -13.9597 37.31113
vt -2.185039 37.31113
vt 2.185039 71.16142
vt 2.185039 73.32677
vt 2.185039 45.27953
vt -4.604317E-12 45.27953
vt 2.185039 47.44488
vt -4.49063E-12 47.44488
vt -2.899014E-12 73.32677
vt -3.012701E-12 71.16142
vt 2.185039 -2.185039
vt 1.397638 1.397638
vt 2.185039 2.185039
vt -6.195933E-12 2.185039
vt 1.397638 -1.397638
vt -1.397638 1.397638
vt -2.185039 -2.185039
vt -2.185039 2.185039
vt -1.397638 -1.397638
vt 6.082246E-12 2.185039
vt 4.49063E-12 2.185039
vt -4.604317E-12 2.185039
vt 2.899014E-12 2.185039
vt -3.012701E-12 2.185039
vt -4.92939E-14 9.715177
vt 0.556777 -0.1430783
vt -0.556777 -0.1430783
vt 1.202372E-13 9.715177
vt 1.607603E-13 9.715177
vt -2.321476E-13 9.715177
vt 0.7972441 14.75886
vt 0.7972441 1.397637
vt -0.7972441 14.75886
vt -0.5979331 1.397637
vt -0.7972441 1.397637
vt 1.397638 35.71665
vt 1.397638 37.31113
vt 14.75886 35.71665
vt 14.75886 37.31113
vt -1.397638 35.71665
vt -14.75886 35.71665
vt -1.397638 37.31113
vt -14.75886 37.31113
vt 0.7972441 35.71665
vt -0.7972441 35.71665
vt 0.7972441 37.31113
vt -0.7972441 37.31113
vt 1.397638 78.74016
vt 1.397638 73.32677
vt -1.397638 78.74016
vt -1.397638 73.32677
vt -1.397638 21.56299
vt -1.397638 45.27953
vt 1.397638 21.56299
vt 1.397638 45.27953
vt -1.397638 47.44488
vt -1.397638 71.16142
vt 1.397638 47.44488
vt 1.397638 71.16142
vt 1.397638 9.84252
vt -1.397638 9.84252
vt 1.397638 19.39764
vt -1.397638 19.39764
vt 0.7972441 15.12598
vt -0.7972441 15.12598
vt -0.5979331 15.12598
vt -0.7972441 16.72047
vt 0.7972441 16.72047
vt 0.7972441 55.40169
vt -0.7972441 55.40169
vt -0.5979331 55.40169
vt -0.7972441 56.99617
vt 0.7972441 56.99617
vt 0.7972441 76.00394
vt -0.7972441 76.00394
vt -0.5979331 76.00394
vt -0.7972441 77.59843
vt 0.7972441 77.59843
vt 1.397638 55.40169
vt 1.397638 56.99617
vt 14.75886 55.40169
vt 14.75886 56.99617
vt 0.7972441 1.397637
vt -0.5979331 1.397637
vt -0.7972441 1.397637
vt -1.397638 15.12598
vt -14.75886 15.12598
vt -1.397638 16.72047
vt -14.75886 16.72047
vt -0.7972441 1.397637
vt 0.7972441 1.397637
vt 1.397638 15.12598
vt 1.397638 16.72047
vt 14.75886 15.12598
vt 14.75886 16.72047
vt 1.397638 9.699719
vt 1.397638 -0.1742464
vt -1.397638 9.699719
vt -1.397638 -0.1742464
vt 1.397638 76.00394
vt 1.397638 77.59843
vt 14.75886 76.00394
vt 14.75886 77.59843
vt -1.397638 55.40169
vt -14.75886 55.40169
vt -1.397638 56.99617
vt -14.75886 56.99617
vt 0.7972441 14.75886
vt 0.7972441 1.397637
vt -0.7972441 14.75886
vt -0.5979331 1.397637
vt -0.7972441 1.397637
vt -0.5979331 1.397637
vt -1.397638 76.00394
vt -14.75886 76.00394
vt -1.397638 77.59843
vt -14.75886 77.59843
vt -0.5979331 35.71665

usemtl hay

f 3/3/1 2/2/1 1/1/1
f 2/2/1 3/3/1 4/4/1
f 5/4/2 2/1/2 4/3/2
f 2/1/2 5/4/2 6/2/2
f 7/1/3 3/4/3 1/2/3
f 3/4/3 7/1/3 8/3/3
f 7/2/4 9/5/4 8/4/4
f 9/5/4 7/2/4 10/6/4
f 10/6/4 5/3/4 9/5/4
f 5/3/4 10/6/4 6/1/4
f 12/8/2 9/4/2 11/7/2
f 9/4/2 12/8/2 10/2/2
f 10/2/2 12/8/2 13/9/2
f 13/9/2 12/8/2 14/10/2
f 11/7/3 9/4/3 12/8/3
f 10/2/3 12/8/3 9/4/3
f 13/9/3 12/8/3 10/2/3
f 14/10/3 12/8/3 13/9/3
f 17/13/2 16/12/2 15/11/2
f 16/12/2 17/13/2 18/14/2
f 18/14/2 17/13/2 19/15/2
f 19/15/2 20/16/2 18/14/2
f 15/11/3 16/12/3 17/13/3
f 18/14/3 17/13/3 16/12/3
f 19/15/3 17/13/3 18/14/3
f 18/14/3 20/16/3 19/15/3
f 23/19/2 22/18/2 21/17/2
f 22/18/2 23/19/2 24/20/2
f 25/21/2 24/20/2 23/19/2
f 24/20/2 25/21/2 26/22/2
f 21/17/3 22/18/3 23/19/3
f 24/20/3 23/19/3 22/18/3
f 23/19/3 24/20/3 25/21/3
f 26/22/3 25/21/3 24/20/3
f 29/23/3 28/12/3 27/14/3
f 28/12/3 29/23/3 30/24/3
f 32/27/4 24/26/4 31/25/4
f 24/26/4 32/27/4 22/28/4
f 22/28/4 33/20/4 24/26/4
f 33/20/4 22/28/4 34/18/4
f 29/14/4 16/29/4 30/12/4
f 16/29/4 29/14/4 18/30/4
f 18/30/4 35/24/4 16/29/4
f 35/24/4 18/30/4 36/23/4
f 39/27/1 38/20/1 37/25/1
f 38/20/1 39/27/1 40/18/1
f 35/12/2 42/23/2 41/24/2
f 42/23/2 35/12/2 36/14/2
f 28/24/1 42/14/1 27/23/1
f 42/14/1 28/24/1 41/12/1
f 32/18/2 38/25/2 40/27/2
f 38/25/2 32/18/2 31/20/2
f 33/25/3 39/18/3 37/20/3
f 39/18/3 33/25/3 34/27/3
f 6/33/5 43/32/5 2/31/5
f 43/32/5 6/33/5 10/34/5
f 44/35/5 2/31/5 43/32/5
f 43/32/5 10/34/5 45/36/5
f 2/31/5 44/35/5 1/37/5
f 45/36/5 10/34/5 7/38/5
f 1/37/5 44/35/5 46/39/5
f 45/36/5 7/38/5 46/39/5
f 1/37/5 46/39/5 7/38/5
f 48/39/6 3/31/6 47/35/6
f 47/35/6 3/31/6 49/32/6
f 48/39/6 4/37/6 3/31/6
f 8/33/6 49/32/6 3/31/6
f 4/37/6 48/39/6 5/38/6
f 9/40/6 49/32/6 8/33/6
f 50/36/6 5/38/6 48/39/6
f 9/40/6 50/36/6 49/32/6
f 5/38/6 50/36/6 9/40/6
f 40/37/6 51/39/6 32/38/6
f 51/39/6 40/37/6 39/31/6
f 52/36/6 32/38/6 51/39/6
f 51/39/6 39/31/6 53/35/6
f 32/38/6 52/36/6 22/41/6
f 53/35/6 39/31/6 54/32/6
f 22/41/6 52/36/6 54/32/6
f 34/33/6 54/32/6 39/31/6
f 22/41/6 54/32/6 34/33/6
f 31/33/5 55/32/5 38/31/5
f 55/32/5 31/33/5 24/42/5
f 56/35/5 38/31/5 55/32/5
f 55/32/5 24/42/5 57/36/5
f 38/31/5 56/35/5 37/37/5
f 57/36/5 24/42/5 33/38/5
f 37/37/5 56/35/5 58/39/5
f 57/36/5 33/38/5 58/39/5
f 37/37/5 58/39/5 33/38/5
f 41/37/6 59/39/6 35/38/6
f 59/39/6 41/37/6 28/31/6
f 60/36/6 35/38/6 59/39/6
f 59/39/6 28/31/6 61/35/6
f 35/38/6 60/36/6 16/43/6
f 61/35/6 28/31/6 62/32/6
f 16/43/6 60/36/6 62/32/6
f 30/33/6 62/32/6 28/31/6
f 16/43/6 62/32/6 30/33/6
f 36/33/5 63/32/5 42/31/5
f 63/32/5 36/33/5 18/44/5
f 64/35/5 42/31/5 63/32/5
f 63/32/5 18/44/5 65/36/5
f 42/31/5 64/35/5 27/37/5
f 65/36/5 18/44/5 29/38/5
f 27/37/5 64/35/5 66/39/5
f 65/36/5 29/38/5 66/39/5
f 27/37/5 66/39/5 29/38/5

usemtl wood

f 69/47/7 68/46/7 67/45/7
f 72/47/8 71/46/8 70/48/8
f 75/49/9 74/47/9 73/46/9
f 78/50/10 77/47/10 76/46/10
f 81/53/5 80/52/5 79/51/5
f 80/52/5 81/53/5 82/54/5
f 82/54/5 81/53/5 83/55/5
f 81/58/3 84/57/3 83/56/3
f 84/57/3 81/58/3 85/59/3
f 86/62/2 79/61/2 80/60/2
f 79/61/2 86/62/2 87/63/2
f 87/66/4 81/65/4 79/64/4
f 81/65/4 87/66/4 85/67/4
f 84/52/6 87/53/6 86/55/6
f 87/53/6 84/52/6 85/51/6
f 89/70/2 59/69/2 88/68/2
f 59/69/2 89/70/2 60/71/2
f 49/74/3 58/73/3 47/72/3
f 58/73/3 49/74/3 57/75/3
f 54/78/3 66/77/3 53/76/3
f 66/77/3 54/78/3 65/79/3
f 46/82/1 67/81/11 75/80/11
f 67/81/11 46/82/1 44/83/1
f 78/80/12 46/83/3 75/81/12
f 46/83/3 78/80/12 45/82/3
f 63/77/2 51/78/2 64/79/2
f 51/78/2 63/77/2 52/76/2
f 62/69/3 90/70/3 61/71/3
f 90/70/3 62/69/3 91/68/3
f 94/86/4 93/85/4 92/84/4
f 93/85/4 78/81/13 92/84/4
f 70/80/13 92/84/4 78/81/13
f 78/81/13 93/85/4 45/83/4
f 45/83/4 93/85/4 95/87/4
f 92/84/4 70/80/13 43/82/4
f 45/83/4 95/87/4 43/82/4
f 92/84/4 43/82/4 96/88/4
f 96/88/4 43/82/4 95/87/4
f 99/91/4 98/90/4 97/89/4
f 98/90/4 54/76/4 97/89/4
f 52/78/4 97/89/4 54/76/4
f 54/76/4 98/90/4 65/77/4
f 65/77/4 98/90/4 100/92/4
f 97/89/4 52/78/4 63/79/4
f 65/77/4 100/92/4 63/79/4
f 97/89/4 63/79/4 101/93/4
f 101/93/4 63/79/4 100/92/4
f 90/68/1 59/71/1 61/69/1
f 59/71/1 90/68/1 88/70/1
f 66/79/1 51/76/1 53/78/1
f 51/76/1 66/79/1 64/77/1
f 55/73/2 48/74/2 56/75/2
f 48/74/2 55/73/2 50/72/2
f 58/75/1 48/72/1 47/74/1
f 48/72/1 58/75/1 56/73/1
f 104/96/4 103/95/4 102/94/4
f 103/95/4 62/71/4 102/94/4
f 60/69/4 102/94/4 62/71/4
f 62/71/4 103/95/4 91/70/4
f 91/70/4 103/95/4 105/97/4
f 102/94/4 60/69/4 89/68/4
f 91/70/4 105/97/4 89/68/4
f 102/94/4 89/68/4 106/98/4
f 106/98/4 89/68/4 105/97/4
f 107/101/3 100/100/3 98/99/3
f 100/100/3 107/101/3 108/102/3
f 107/53/5 97/103/5 109/51/5
f 97/103/5 107/53/5 99/104/5
f 99/104/5 107/53/5 98/105/5
f 96/108/2 110/107/2 92/106/2
f 110/107/2 96/108/2 111/109/2
f 105/111/6 112/53/6 106/110/6
f 112/53/6 105/111/6 113/51/6
f 114/114/3 95/113/3 93/112/3
f 95/113/3 114/114/3 115/115/3
f 70/118/14 69/117/15 67/116/14
f 69/117/15 70/118/14 71/119/15
f 116/93/4 107/90/4 109/89/4
f 107/90/4 116/93/4 108/92/4
f 117/122/3 105/121/3 103/120/3
f 105/121/3 117/122/3 113/123/3
f 112/98/4 117/95/4 118/94/4
f 117/95/4 112/98/4 113/97/4
f 101/126/2 109/125/2 97/124/2
f 109/125/2 101/126/2 116/127/2
f 114/130/5 92/129/5 110/128/5
f 92/129/5 114/130/5 94/131/5
f 94/131/5 114/130/5 93/132/5
f 100/103/6 116/53/6 101/105/6
f 116/53/6 100/103/6 108/51/6
f 117/53/5 102/111/5 118/51/5
f 102/111/5 117/53/5 104/133/5
f 104/133/5 117/53/5 103/110/5
f 95/129/6 111/130/6 96/132/6
f 111/130/6 95/129/6 115/128/6
f 106/136/2 118/135/2 102/134/2
f 118/135/2 106/136/2 112/137/2
f 111/88/4 114/85/4 110/84/4
f 114/85/4 111/88/4 115/87/4
f 70/116/13 76/119/16 72/117/16
f 76/119/16 70/116/13 78/118/13
f 77/117/17 75/118/12 73/119/17
f 75/118/12 77/117/17 78/116/12
f 75/116/11 68/119/18 74/117/18
f 68/119/18 75/116/11 67/118/11
f 82/138/4 83/65/4 80/64/4
f 83/65/4 49/72/4 80/64/4
f 50/74/4 80/64/4 49/72/4
f 49/72/4 83/65/4 57/73/4
f 57/73/4 83/65/4 84/67/4
f 80/64/4 50/74/4 55/75/4
f 57/73/4 84/67/4 55/75/4
f 80/64/4 55/75/4 86/66/4
f 86/66/4 55/75/4 84/67/4
f 43/83/2 67/80/14 44/82/2
f 67/80/14 43/83/2 70/81/14
f 90/35/6 89/36/6 88/39/6
f 89/36/6 90/35/6 91/32/6

usemtl _defaultMat

f 72/73/5 69/67/5 71/75/5
f 69/73/5 72/67/5 68/75/5
f 68/73/5 72/67/5 76/75/5
f 68/73/5 76/67/5 74/75/5
f 74/73/5 76/67/5 77/75/5
f 74/73/5 77/67/5 73/75/5

