# Created by Kenney (www.kenney.nl)

mtllib fenceBroken.mtl

g fenceBroken

v 0.44375 0.23 0.354553
v 0.48125 0.23 0.354553
v 0.44375 0.305 0.3345529
v 0.48125 0.305 0.3345529
v 0.5 0 -0.425
v 0.5 0 -0.5
v 0.425 0 -0.425
v 0.425 0 -0.5
v 0.48125 0.305 -0.425
v 0.48125 0.305 -0.25125
v 0.44375 0.305 -0.425
v 0.44375 0.305 -0.25125
v 0.425 0 0.425
v 0.425 0.38 0.425
v 0.425 0 0.5
v 0.425 0.38 0.5
v 0.48125 0.23 -0.23125
v 0.44375 0.23 -0.23125
v 0.48125 0.05750897 -0.1846782
v 0.48125 0.2547318 0.2873841
v 0.44375 0.05750897 -0.1846782
v 0.44375 0.2547318 0.2873841
v 0.48125 0.305 0.425
v 0.44375 0.305 0.425
v 0.425 0.38 -0.5
v 0.425 0.38 -0.425
v 0.48125 0.075 0.425
v 0.48125 0.075 0.2494902
v 0.44375 0.075 0.425
v 0.44375 0.075 0.2494902
v 0.48125 0.23 -0.425
v 0.44375 0.23 -0.425
v 0.44375 0.15 0.425
v 0.44375 0.15 0.23125
v 0.44375 0.1777591 0.2976997
v 0.44375 0 -0.1277753
v 0.44375 -1.804779E-16 -0.1946321
v 0.48125 0.15 0.425
v 0.48125 0.15 0.23125
v 0.48125 0.1777591 0.2976997
v 0.48125 0 -0.1277753
v 0.48125 -1.804779E-16 -0.1946321
v 0.48125 0.15 -0.425
v 0.48125 0.15 -0.3565625
v 0.44375 0.15 -0.425
v 0.44375 0.15 -0.3565625
v 0.5 6.059185E-15 0.1470163
v 0.3027771 1.367939E-15 -0.3250461
v 0.4230273 7.115918E-15 0.1573319
v 0.2452682 4.488303E-30 -0.2681432
v 0.2452682 0 -0.335
v 0.5 0.0375 0.1470163
v 0.4230273 0.0375 0.1573319
v 0.3027771 0.0375 -0.3250461
v 0.48125 0.075 -0.3765625
v 0.48125 0.075 -0.425
v 0.44375 0.075 -0.3765625
v 0.44375 0.075 -0.425
v 0.5 0.38 0.425
v 0.5 0.38 0.5
v 0.2452682 0.0375 -0.2681432
v 0.2452682 0.0375 -0.335
v 0.5 0.38 -0.5
v 0.5 0.38 -0.425
v 0.48125 0.23 0.425
v 0.44375 0.23 0.425
v 0.5 0 0.5
v 0.5 0 0.425

vn 0 -0.2576627 -0.9662349
vn 0 -1 0
vn 0 1 0
vn -1 0 0
vn 0 0.2576627 0.9662349
vn 0 0.9227086 -0.3854983
vn 1 0 0
vn 0.1328286 0 0.991139
vn 0.9227086 0 -0.3854983
vn -0.9227086 0 0.3854983
vn 0 -0.9227228 0.3854641
vn 0 -0.9227059 0.3855045
vn 0 0 1
vn 0 -0.2576627 0.9662349
vn 0 0.1328286 0.991139
vn 0.1705485 0 -0.9853492
vn 0 0 -1
vn 0 -0.2363149 -0.9716765
vn 0 0.1705485 -0.9853492

vt -17.47047 5.152716
vt -18.94685 5.152716
vt -17.47047 8.208655
vt -18.94685 8.208655
vt 19.68504 -16.73228
vt 19.68504 -19.68504
vt 16.73228 -16.73228
vt 16.73228 -19.68504
vt -18.94685 -16.73228
vt -18.94685 -9.891732
vt -17.47047 -16.73228
vt -17.47047 -9.891732
vt 16.73228 0
vt 16.73228 14.96063
vt 19.68504 0
vt 19.68504 14.96063
vt 18.94685 11.09522
vt 17.47047 11.09522
vt 18.94685 14.15116
vt 17.47047 14.15116
vt -18.94685 -5.836007
vt -18.94685 14.30592
vt -17.47047 -5.836007
vt -17.47047 14.30592
vt -18.94685 13.17138
vt -18.94685 16.73228
vt -17.47047 13.17138
vt -17.47047 16.73228
vt -19.68504 0
vt -19.68504 14.96063
vt -16.73228 0
vt -16.73228 14.96063
vt 18.94685 16.73228
vt 18.94685 9.822451
vt 17.47047 16.73228
vt 17.47047 9.822451
vt 18.94685 -9.104331
vt 18.94685 -16.73228
vt 17.47047 -9.104331
vt 17.47047 -16.73228
vt 16.73228 2.952756
vt 9.822451 2.952756
vt 16.73228 5.905512
vt 9.104331 5.905512
vt 11.72046 6.998391
vt 11.31434 10.02881
vt -5.030524 0
vt -7.270796 2.264133
vt -7.662683 -7.105427E-15
vt -16.73228 2.952756
vt -16.73228 5.905512
vt -9.822451 2.952756
vt -9.104331 5.905512
vt -11.72046 6.998391
vt -11.31434 10.02881
vt 5.030524 1.829167E-13
vt 7.270796 2.264133
vt 7.662683 1.758113E-13
vt -18.94685 -14.03789
vt -17.47047 -14.03789
vt 19.68504 5.788042
vt 11.92036 -12.79709
vt 16.65462 6.194168
vt 9.656227 -10.55682
vt 9.656227 -13.18898
vt 18.74179 7.749865E-13
vt 15.68428 8.165901E-13
vt 18.74179 1.476378
vt 15.68428 1.476378
vt 7.212707 1.476378
vt 7.212707 -5.142616E-13
vt -12.92922 1.476378
vt -12.92922 -3.295669E-13
vt 18.94685 -14.8253
vt 17.47047 -14.8253
vt -19.68504 16.73228
vt -19.68504 19.68504
vt -16.73228 16.73228
vt -16.73228 19.68504
vt -6.018407 -5.231185E-13
vt -6.018407 1.476378
vt 12.13574 -2.429643E-13
vt 12.13574 1.476378
vt 16.73228 12.00787
vt 16.73228 9.055119
vt 9.891732 12.00787
vt 9.104331 9.055119
vt 17.47047 13.51237
vt 18.94685 13.51237
vt 17.47047 10.67714
vt 18.94685 10.67714
vt 18.94685 -4.641694
vt 17.47047 -4.641694
vt -13.18898 -2.296881E-13
vt -13.18898 1.476378
vt -10.55682 -2.296881E-13
vt -10.55682 1.476378
vt -19.68504 -19.68504
vt -19.68504 -16.73228
vt -16.73228 -19.68504
vt -16.73228 -16.73228
vt -16.73228 12.00787
vt -9.891732 12.00787
vt -16.73228 9.055119
vt -9.104331 9.055119
vt 18.94685 13.95878
vt 17.47047 13.95878
vt 19.68504 3.739699E-14
vt 16.73228 3.739699E-14
vt -13.17138 12.00787
vt -13.95878 9.055119
vt 13.17138 12.00787
vt 13.95878 9.055119
vt 18.94685 -0.9668689
vt 17.47047 -0.9668689
vt 18.94685 2.089071
vt 17.47047 2.089071
vt -19.68504 5.788042
vt -16.65462 6.194168
vt -11.92036 -12.79709
vt -9.656227 -10.55682
vt -9.656227 -13.18898
vt 14.03789 5.905512
vt 14.8253 2.952756
vt 18.94685 5.379566
vt 17.47047 5.379566
vt 18.94685 8.437079
vt 17.47047 8.437079
vt -14.03789 5.905512
vt -14.8253 2.952756
vt -7.265396 -5.940151E-14
vt -9.563193 -5.545644E-15
vt -7.265396 1.476378
vt -9.563193 1.476378
vt -18.94685 9.104331
vt -17.47047 9.104331
vt -17.47047 0.5479324
vt -18.94685 0.5479324
vt -17.47047 3.586758
vt -18.94685 3.586758
vt 19.68504 19.68504
vt 19.68504 16.73228
vt 16.73228 19.68504
vt 16.73228 16.73228
vt -17.47047 -1.306859
vt -18.94685 -1.306859
vt -17.47047 0.9909378
vt -18.94685 0.9909378
vt 18.94685 12.00787
vt 18.94685 9.055119
vt 17.47047 12.00787
vt 17.47047 9.055119
vt 17.47047 5.905512
vt 18.94685 5.905512
vt 17.47047 2.952756
vt 18.94685 2.952756
vt -17.47047 2.952756
vt -18.94685 2.952756
vt -17.47047 5.905512
vt -18.94685 5.905512
vt -17.47047 9.055119
vt -18.94685 9.055119
vt -17.47047 12.00787
vt -18.94685 12.00787

usemtl wood

f 3/3/1 2/2/1 1/1/1
f 2/2/1 3/3/1 4/4/1
f 7/7/2 6/6/2 5/5/2
f 6/6/2 7/7/2 8/8/2
f 11/11/3 10/10/3 9/9/3
f 10/10/3 11/11/3 12/12/3
f 15/15/4 14/14/4 13/13/4
f 14/14/4 15/15/4 16/16/4
f 10/19/5 18/18/5 17/17/5
f 18/18/5 10/19/5 12/20/5
f 21/23/6 20/22/6 19/21/6
f 20/22/6 21/23/6 22/24/6
f 3/27/3 23/26/3 4/25/3
f 23/26/3 3/27/3 24/28/3
f 7/31/4 25/30/4 8/29/4
f 25/30/4 7/31/4 26/32/4
f 29/35/2 28/34/2 27/33/2
f 28/34/2 29/35/2 30/36/2
f 18/39/2 31/38/2 17/37/2
f 31/38/2 18/39/2 32/40/2
f 33/43/4 30/42/4 29/41/4
f 30/42/4 33/43/4 34/44/4
f 22/46/4 34/44/4 35/45/4
f 22/46/4 36/47/4 34/44/4
f 21/48/4 36/47/4 22/46/4
f 36/47/4 21/48/4 37/49/4
f 28/52/7 38/51/7 27/50/7
f 38/51/7 28/52/7 39/53/7
f 39/53/7 20/55/7 40/54/7
f 41/56/7 20/55/7 39/53/7
f 41/56/7 19/57/7 20/55/7
f 19/57/7 41/56/7 42/58/7
f 45/11/3 44/59/3 43/9/3
f 44/59/3 45/11/3 46/60/3
f 49/63/2 48/62/2 47/61/2
f 48/62/2 49/63/2 50/64/2
f 48/62/2 50/64/2 51/65/2
f 52/68/8 49/67/8 47/66/8
f 49/67/8 52/68/8 53/69/8
f 52/72/9 48/71/9 54/70/9
f 48/71/9 52/72/9 47/73/9
f 57/75/2 56/38/2 55/74/2
f 56/38/2 57/75/2 58/40/2
f 14/78/3 60/77/3 59/76/3
f 60/77/3 14/78/3 16/79/3
f 49/82/10 61/81/10 50/80/10
f 61/81/10 49/82/10 53/83/10
f 10/86/7 31/85/7 9/84/7
f 31/85/7 10/86/7 17/87/7
f 34/90/11 40/89/11 35/88/11
f 40/89/11 34/90/11 39/91/11
f 34/90/11 41/92/12 39/91/11
f 41/92/12 34/90/11 36/93/12
f 50/96/4 62/95/4 51/94/4
f 62/95/4 50/96/4 61/97/4
f 25/100/3 64/99/3 63/98/3
f 64/99/3 25/100/3 26/101/3
f 32/104/4 12/103/4 11/102/4
f 12/103/4 32/104/4 18/105/4
f 66/35/2 2/106/2 65/33/2
f 2/106/2 66/35/2 1/107/2
f 60/16/13 15/109/13 67/108/13
f 15/109/13 60/16/13 16/14/13
f 23/102/7 2/111/7 4/110/7
f 2/111/7 23/102/7 65/104/7
f 1/113/4 24/84/4 3/112/4
f 24/84/4 1/113/4 66/85/4
f 44/116/14 57/115/14 55/114/14
f 57/115/14 44/116/14 46/117/14
f 54/120/3 53/119/3 52/118/3
f 53/119/3 54/120/3 61/121/3
f 61/121/3 54/120/3 62/122/3
f 44/123/7 56/41/7 43/43/7
f 56/41/7 44/123/7 55/124/7
f 20/127/15 35/126/15 40/125/15
f 35/126/15 20/127/15 22/128/15
f 64/14/7 6/15/7 63/16/7
f 6/15/7 64/14/7 5/13/7
f 58/50/4 46/129/4 45/51/4
f 46/129/4 58/50/4 57/130/4
f 62/133/16 48/132/16 51/131/16
f 48/132/16 62/133/16 54/134/16
f 25/32/17 6/29/17 8/31/17
f 6/29/17 25/32/17 63/30/17
f 60/30/7 68/31/7 59/32/7
f 68/31/7 60/30/7 67/29/7
f 34/136/3 38/26/3 39/135/3
f 38/26/3 34/136/3 33/28/3
f 34/139/18 28/138/18 30/137/18
f 28/138/18 34/139/18 39/140/18
f 15/143/2 68/142/2 67/141/2
f 68/142/2 15/143/2 13/144/2
f 21/147/19 42/146/19 37/145/19
f 42/146/19 21/147/19 19/148/19
f 31/150/13 64/16/13 9/149/13
f 9/149/13 64/16/13 11/151/13
f 26/14/13 11/151/13 64/16/13
f 26/14/13 32/152/13 11/151/13
f 32/152/13 45/153/13 31/150/13
f 26/14/13 45/153/13 32/152/13
f 43/154/13 31/150/13 45/153/13
f 43/154/13 64/16/13 31/150/13
f 26/14/13 58/155/13 45/153/13
f 7/13/13 58/155/13 26/14/13
f 56/156/13 64/16/13 43/154/13
f 58/155/13 7/13/13 56/156/13
f 56/156/13 5/15/13 64/16/13
f 5/15/13 56/156/13 7/13/13
f 13/31/17 29/157/17 68/29/17
f 29/157/17 13/31/17 14/32/17
f 27/158/17 68/29/17 29/157/17
f 68/29/17 27/158/17 59/30/17
f 29/157/17 14/32/17 33/159/17
f 59/30/17 27/158/17 38/160/17
f 33/159/17 66/161/17 38/160/17
f 33/159/17 14/32/17 66/161/17
f 65/162/17 38/160/17 66/161/17
f 59/30/17 38/160/17 65/162/17
f 66/161/17 14/32/17 24/163/17
f 59/30/17 65/162/17 23/164/17
f 24/163/17 14/32/17 23/164/17
f 59/30/17 23/164/17 14/32/17

usemtl _defaultMat

f 36/30/2 42/164/2 41/32/2
f 42/30/2 36/164/2 37/32/2

