# Created by Kenney (www.kenney.nl)

mtllib fenceCurved.mtl

g fenceCurved

v 0.44375 0.15 0.425
v 0.44375 0.15 8.301981E-15
v 0.48125 0.15 0.425
v 0.48125 0.15 8.301981E-15
v 0.4771328 0.15 -0.06281573
v 0.4648518 0.15 -0.1245567
v 0.444617 0.15 -0.1841664
v 0.4399537 0.15 -0.057921
v 0.4167747 0.15 -0.240625
v 0.4286296 0.15 -0.1148509
v 0.4099715 0.15 -0.1698158
v 0.3818013 0.15 -0.2929665
v 0.3842988 0.15 -0.221875
v 0.3520505 0.15 -0.2701379
v 0.3650737 0.15 -0.3120406
v 0.3385572 0.15 -0.2855241
v 0.3120406 0.15 -0.3650737
v 0.2855241 0.15 -0.3385572
v 0.2929665 0.15 -0.3818013
v 0.240625 0.15 -0.4167747
v 0.2701379 0.15 -0.3520505
v 0.221875 0.15 -0.3842988
v 0.1841664 0.15 -0.444617
v 0.1698158 0.15 -0.4099715
v 0.1245567 0.15 -0.4648518
v 0.1148509 0.15 -0.4286296
v 0.06281573 0.15 -0.4771328
v 0.057921 0.15 -0.4399537
v -5.775291E-15 0.15 -0.48125
v -4.331469E-15 0.15 -0.44375
v -0.425 0.15 -0.44375
v -0.425 0.15 -0.48125
v 0.44375 0.305 7.941025E-15
v 0.44375 0.305 0.425
v 0.44375 0.23 2.310117E-14
v 0.44375 0.23 0.425
v 0.5 0.38 0.425
v 0.5 0.38 0.5
v 0.425 0.38 0.425
v 0.425 0.38 0.5
v 0.5 0 0.425
v 0.5 0 0.5
v 0.425 0 0.5
v 0.425 0 0.425
v 0.44375 0.075 7.941025E-15
v 0.44375 0.075 0.425
v 0.48125 0.23 0.425
v 0.48125 0.23 2.310117E-14
v 0.4771328 0.23 -0.06281573
v 0.4648518 0.23 -0.1245567
v 0.444617 0.23 -0.1841664
v 0.4399537 0.23 -0.057921
v 0.4167747 0.23 -0.240625
v 0.4286296 0.23 -0.1148509
v 0.4099715 0.23 -0.1698158
v 0.3818013 0.23 -0.2929665
v 0.3842988 0.23 -0.221875
v 0.3520505 0.23 -0.2701379
v 0.3650737 0.23 -0.3120406
v 0.3385572 0.23 -0.2855241
v 0.48125 0.305 0.425
v 0.48125 0.305 7.941025E-15
v 0.4771328 0.305 -0.06281573
v 0.4648518 0.305 -0.1245567
v 0.444617 0.305 -0.1841664
v 0.4399537 0.305 -0.057921
v 0.4167747 0.305 -0.240625
v 0.4286296 0.305 -0.1148509
v 0.4099715 0.305 -0.1698158
v 0.3818013 0.305 -0.2929665
v 0.3842988 0.305 -0.221875
v 0.3520505 0.305 -0.2701379
v 0.3650737 0.305 -0.3120406
v 0.3385572 0.305 -0.2855241
v 0.48125 0.075 0.425
v 0.48125 0.075 7.941025E-15
v 0.4771328 0.075 -0.06281573
v 0.4648518 0.075 -0.1245567
v 0.444617 0.075 -0.1841664
v 0.4399537 0.075 -0.057921
v 0.4167747 0.075 -0.240625
v 0.4286296 0.075 -0.1148509
v 0.4099715 0.075 -0.1698158
v 0.3818013 0.075 -0.2929665
v 0.3842988 0.075 -0.221875
v 0.3520505 0.075 -0.2701379
v 0.3650737 0.075 -0.3120406
v 0.3385572 0.075 -0.2855241
v 0.3270369 5.803885E-18 -0.2740039
v 0.2740039 5.803885E-18 -0.3270369
v 0.3270369 0.38 -0.2740039
v 0.2740039 0.38 -0.3270369
v 0.3270369 5.803885E-18 -0.3800699
v 0.3800699 5.803885E-18 -0.3270369
v 0.3270369 0.38 -0.3800699
v 0.3800699 0.38 -0.3270369
v 0.3120406 0.075 -0.3650737
v 0.2929665 0.075 -0.3818013
v -0.425 0.075 -0.48125
v -0.425 0.075 -0.44375
v -5.775291E-15 0.075 -0.48125
v -4.331469E-15 0.075 -0.44375
v 0.057921 0.075 -0.4399537
v 0.06281573 0.075 -0.4771328
v 0.1148509 0.075 -0.4286296
v 0.1245567 0.075 -0.4648518
v 0.1698158 0.075 -0.4099715
v 0.1841664 0.075 -0.444617
v 0.221875 0.075 -0.3842988
v 0.240625 0.075 -0.4167747
v 0.2701379 0.075 -0.3520505
v 0.2855241 0.075 -0.3385572
v -5.775291E-15 0.23 -0.48125
v 0.06281573 0.23 -0.4771328
v -5.775291E-15 0.305 -0.48125
v 0.06281573 0.305 -0.4771328
v 0.1245567 0.23 -0.4648518
v 0.1841664 0.23 -0.444617
v 0.1245567 0.305 -0.4648518
v 0.1841664 0.305 -0.444617
v 0.240625 0.23 -0.4167747
v 0.2929665 0.23 -0.3818013
v 0.240625 0.305 -0.4167747
v 0.2929665 0.305 -0.3818013
v 0.2855241 0.23 -0.3385572
v 0.2701379 0.23 -0.3520505
v 0.2855241 0.305 -0.3385572
v 0.2701379 0.305 -0.3520505
v 0.221875 0.23 -0.3842988
v 0.1698158 0.23 -0.4099715
v 0.221875 0.305 -0.3842988
v 0.1698158 0.305 -0.4099715
v 0.3120406 0.305 -0.3650737
v 0.1148509 0.305 -0.4286296
v 0.057921 0.305 -0.4399537
v -4.331469E-15 0.305 -0.44375
v -0.425 0.305 -0.44375
v -0.425 0.305 -0.48125
v -0.425 0.23 -0.48125
v -0.425 0.23 -0.44375
v -4.331469E-15 0.23 -0.44375
v 0.057921 0.23 -0.4399537
v 0.1148509 0.23 -0.4286296
v 0.3120406 0.23 -0.3650737
v -0.5 0 -0.5
v -0.5 0.38 -0.5
v -0.5 0 -0.425
v -0.5 0.38 -0.425
v -0.425 0 -0.5
v -0.425 0.38 -0.5
v -0.425 0 -0.425
v -0.425 0.38 -0.425

vn 0 1 0
vn -0.9994646 0 0.03271909
vn -1 0 0
vn 1 0 0
vn 0 -1 0
vn 0 0 1
vn 0.9994646 0 -0.03271909
vn -0.7071068 0 0.7071068
vn 0.7071068 0 -0.7071068
vn 0.6593459 0 -0.7518399
vn 0.6087614 0 -0.7933533
vn 0.03271909 0 -0.9994646
vn 0.1305262 0 -0.9914449
vn 0.9659258 0 -0.258819
vn 0.9914449 0 -0.1305262
vn 0.258819 0 -0.9659258
vn 0.3826834 0 -0.9238795
vn 0.5 0 -0.8660254
vn 0.9238795 0 -0.3826834
vn -0.1305262 0 0.9914449
vn -0.03271909 0 0.9994646
vn -0.6593459 0 0.7518399
vn -0.6087614 0 0.7933533
vn -0.5 0 0.8660254
vn -0.3826834 0 0.9238795
vn -0.9914449 0 0.1305262
vn -0.9659258 0 0.258819
vn -0.8660254 0 0.5
vn -0.9238795 0 0.3826834
vn 0.8660254 0 -0.5
vn 0.7933533 0 -0.6087614
vn 0 0 -1
vn -0.258819 0 0.9659258
vn -0.7933533 0 0.6087614
vn 0.7518399 0 -0.6593459
vn -0.7518399 0 0.6593459
vn -0.7071068 0 -0.7071068
vn 0.7071068 0 0.7071068

vt -17.47047 16.73228
vt -17.47047 7.851497E-13
vt -18.94685 16.73228
vt -18.94685 7.851497E-13
vt -18.78476 -2.47306
vt -18.30125 -4.903806
vt -17.50461 -7.250646
vt -17.32101 -2.280354
vt -16.40845 -9.473425
vt -16.87518 -4.521691
vt -16.14061 -6.68566
vt -15.03155 -11.53411
vt -15.12987 -8.735236
vt -13.86026 -10.63535
vt -14.37298 -12.28506
vt -13.32902 -11.24111
vt -12.28506 -14.37298
vt -11.24111 -13.32902
vt -11.53411 -15.03155
vt -9.473425 -16.40845
vt -10.63535 -13.86026
vt -8.735236 -15.12987
vt -7.250646 -17.50461
vt -6.68566 -16.14061
vt -4.903806 -18.30125
vt -4.521691 -16.87518
vt -2.47306 -18.78476
vt -2.280354 -17.32101
vt 2.273737E-13 -18.94685
vt 1.705303E-13 -17.47047
vt 16.73228 -17.47047
vt 16.73228 -18.94685
vt 3.126388E-13 12.00787
vt 16.73228 12.00787
vt 9.094947E-13 9.055119
vt 16.73228 9.055119
vt -19.68504 16.73228
vt -19.68504 19.68504
vt -16.73228 16.73228
vt -16.73228 19.68504
vt -16.73228 14.96063
vt -16.73228 0
vt -19.68504 14.96063
vt -19.68504 0
vt 19.68504 19.68504
vt 19.68504 16.73228
vt 16.73228 19.68504
vt 16.73228 16.73228
vt 19.68504 1.869849E-14
vt 16.73228 1.869849E-14
vt 19.68504 14.96063
vt 16.73228 14.96063
vt 3.126388E-13 2.952756
vt 3.268497E-13 5.905512
vt 16.73228 2.952756
vt 16.73228 5.905512
vt 18.94685 16.73228
vt 18.94685 -7.545546E-13
vt 17.47047 16.73228
vt 17.47047 -7.545546E-13
vt 18.78476 -2.47306
vt 18.30125 -4.903806
vt 17.50461 -7.250646
vt 17.32101 -2.280354
vt 16.40845 -9.473425
vt 16.87518 -4.521691
vt 16.14061 -6.68566
vt 15.03155 -11.53411
vt 15.12987 -8.735236
vt 13.86026 -10.63535
vt 14.37298 -12.28506
vt 13.32902 -11.24111
vt -17.47047 1.236867E-12
vt -18.94685 1.236867E-12
vt 18.94685 5.39908E-13
vt 17.47047 5.39908E-13
vt -3.126388E-13 12.00787
vt -9.094947E-13 9.055119
vt -16.73228 12.00787
vt -16.73228 9.055119
vt 16.73228 0
vt 19.68504 0
vt -3.126388E-13 2.952756
vt -16.73228 2.952756
vt -3.268497E-13 5.905512
vt -16.73228 5.905512
vt 1.476378 2.284994E-16
vt -1.476378 2.284994E-16
vt 1.476378 14.96063
vt -1.476378 14.96063
vt -14.96338 -12.87547
vt -12.87547 -10.78755
vt -12.87547 -14.96338
vt -10.78755 -12.87547
vt 0.2403625 2.952756
vt 0.2403625 5.905512
vt 1.239183 2.952756
vt 1.239183 5.905512
vt -16.73228 -18.94685
vt -16.73228 -17.47047
vt -4.546429E-13 -18.94685
vt -3.977994E-13 -17.47047
vt 2.280354 -17.32101
vt 2.47306 -18.78476
vt 4.521691 -16.87518
vt 4.903806 -18.30125
vt 6.68566 -16.14061
vt 7.250646 -17.50461
vt 8.735236 -15.12987
vt 9.473425 -16.40845
vt 10.63535 -13.86026
vt 11.24111 -13.32902
vt 11.53411 -15.03155
vt 12.28506 -14.37298
vt 1.239183 9.055119
vt -1.239183 9.055119
vt 1.239183 12.00787
vt -1.239183 12.00787
vt -1.239183 5.905512
vt -1.239183 2.952756
vt 1.142624 2.952756
vt -1.142624 2.952756
vt 1.142624 5.905512
vt -1.142624 5.905512
vt -0.3369222 9.055119
vt -1.142624 9.055119
vt -0.3369222 12.00787
vt -1.142624 12.00787
vt 1.142624 9.055119
vt 1.142624 12.00787
vt -9.185646E-13 -18.94685
vt -8.617212E-13 -17.47047
vt -4.057343E-13 9.055119
vt -4.057343E-13 12.00787
vt -0.2403625 9.055119
vt -0.2403625 12.00787
vt 16.73228 -16.73228
vt 19.68504 -16.73228
vt 16.73228 -19.68504
vt 19.68504 -19.68504
vt -16.73228 -16.73228
vt -16.73228 -19.68504
vt -19.68504 -16.73228
vt -19.68504 -19.68504
vt 4.099988E-13 9.055119
vt 4.099988E-13 12.00787
vt -0.3369222 2.952756
vt -0.3369222 5.905512
vt 0.3369222 9.055119
vt 0.3369222 12.00787
vt 4.099988E-13 2.952756
vt 4.099988E-13 5.905512
vt -4.057343E-13 2.952756
vt -4.057343E-13 5.905512
vt 0.3369222 2.952756
vt 0.3369222 5.905512
vt -0.2403625 5.905512
vt -0.2403625 2.952756
vt 0.2403625 9.055119
vt 0.2403625 12.00787
vt -17.47047 2.952756
vt -18.94685 2.952756
vt -17.47047 5.905512
vt -18.94685 5.905512
vt -17.47047 9.055119
vt -18.94685 9.055119
vt -17.47047 12.00787
vt -18.94685 12.00787
vt -18.85008 2.952756
vt -19.68504 2.284994E-16
vt -16.73228 2.284994E-16
vt -18.85008 12.00787
vt -17.3737 2.952756
vt -18.85008 5.905512
vt -17.3737 5.905512
vt -17.3737 12.00787
vt -18.85008 9.055119
vt -17.3737 9.055119
vt 17.3737 12.00787
vt 18.85008 12.00787
vt 17.3737 9.055119
vt 19.68504 2.284994E-16
vt 18.85008 9.055119
vt 17.3737 5.905512
vt 16.73228 2.284994E-16
vt 18.85008 5.905512
vt 17.3737 2.952756
vt 18.85008 2.952756
vt 18.94685 12.00787
vt 18.94685 2.952756
vt 17.47047 12.00787
vt 18.94685 9.055119
vt 17.47047 9.055119
vt 17.47047 2.952756
vt 18.94685 5.905512
vt 17.47047 5.905512

usemtl wood

f 3/3/1 2/2/1 1/1/1
f 2/2/1 3/3/1 4/4/1
f 5/5/1 2/2/1 4/4/1
f 2/2/1 5/5/1 6/6/1
f 2/2/1 6/6/1 7/7/1
f 2/2/1 7/7/1 8/8/1
f 8/8/1 7/7/1 9/9/1
f 8/8/1 9/9/1 10/10/1
f 10/10/1 9/9/1 11/11/1
f 11/11/1 9/9/1 12/12/1
f 11/11/1 12/12/1 13/13/1
f 13/13/1 12/12/1 14/14/1
f 14/14/1 12/12/1 15/15/1
f 14/14/1 15/15/1 16/16/1
f 19/19/1 18/18/1 17/17/1
f 18/18/1 19/19/1 20/20/1
f 18/18/1 20/20/1 21/21/1
f 21/21/1 20/20/1 22/22/1
f 22/22/1 20/20/1 23/23/1
f 22/22/1 23/23/1 24/24/1
f 24/24/1 23/23/1 25/25/1
f 24/24/1 25/25/1 26/26/1
f 26/26/1 25/25/1 27/27/1
f 26/26/1 27/27/1 28/28/1
f 28/28/1 27/27/1 29/29/1
f 28/28/1 29/29/1 30/30/1
f 29/29/1 31/31/1 30/30/1
f 31/31/1 29/29/1 32/32/1
f 35/35/2 34/34/3 33/33/2
f 34/34/3 35/35/2 36/36/3
f 39/39/1 38/38/1 37/37/1
f 38/38/1 39/39/1 40/40/1
f 38/43/4 41/42/4 37/41/4
f 41/42/4 38/43/4 42/44/4
f 43/47/5 41/46/5 42/45/5
f 41/46/5 43/47/5 44/48/5
f 38/51/6 43/50/6 42/49/6
f 43/50/6 38/51/6 40/52/6
f 46/55/3 2/54/2 45/53/2
f 2/54/2 46/55/3 1/56/3
f 36/59/5 48/58/5 47/57/5
f 48/58/5 36/59/5 35/60/5
f 35/60/5 49/61/5 48/58/5
f 49/61/5 35/60/5 50/62/5
f 50/62/5 35/60/5 51/63/5
f 51/63/5 35/60/5 52/64/5
f 51/63/5 52/64/5 53/65/5
f 53/65/5 52/64/5 54/66/5
f 53/65/5 54/66/5 55/67/5
f 53/65/5 55/67/5 56/68/5
f 56/68/5 55/67/5 57/69/5
f 56/68/5 57/69/5 58/70/5
f 56/68/5 58/70/5 59/71/5
f 59/71/5 58/70/5 60/72/5
f 61/3/1 33/73/1 34/1/1
f 33/73/1 61/3/1 62/74/1
f 63/5/1 33/73/1 62/74/1
f 33/73/1 63/5/1 64/6/1
f 33/73/1 64/6/1 65/7/1
f 33/73/1 65/7/1 66/8/1
f 66/8/1 65/7/1 67/9/1
f 66/8/1 67/9/1 68/10/1
f 68/10/1 67/9/1 69/11/1
f 69/11/1 67/9/1 70/12/1
f 69/11/1 70/12/1 71/13/1
f 71/13/1 70/12/1 72/14/1
f 72/14/1 70/12/1 73/15/1
f 72/14/1 73/15/1 74/16/1
f 46/59/5 76/75/5 75/57/5
f 76/75/5 46/59/5 45/76/5
f 45/76/5 77/61/5 76/75/5
f 77/61/5 45/76/5 78/62/5
f 78/62/5 45/76/5 79/63/5
f 79/63/5 45/76/5 80/64/5
f 79/63/5 80/64/5 81/65/5
f 81/65/5 80/64/5 82/66/5
f 81/65/5 82/66/5 83/67/5
f 81/65/5 83/67/5 84/68/5
f 84/68/5 83/67/5 85/69/5
f 84/68/5 85/69/5 86/70/5
f 84/68/5 86/70/5 87/71/5
f 87/71/5 86/70/5 88/72/5
f 61/79/4 48/78/7 62/77/7
f 48/78/7 61/79/4 47/80/4
f 43/82/3 39/52/3 44/81/3
f 39/52/3 43/82/3 40/51/3
f 4/85/7 75/84/4 76/83/7
f 75/84/4 4/85/7 3/86/4
f 91/89/8 90/88/8 89/87/8
f 90/88/8 91/89/8 92/90/8
f 95/89/9 94/88/9 93/87/9
f 94/88/9 95/89/9 96/90/9
f 95/93/1 91/92/1 96/91/1
f 91/92/1 95/93/1 92/94/1
f 98/97/11 17/96/10 97/95/10
f 17/96/10 98/97/11 19/98/11
f 101/101/5 100/100/5 99/99/5
f 100/100/5 101/101/5 102/102/5
f 101/101/5 103/103/5 102/102/5
f 104/104/5 103/103/5 101/101/5
f 104/104/5 105/105/5 103/103/5
f 106/106/5 105/105/5 104/104/5
f 106/106/5 107/107/5 105/105/5
f 108/108/5 107/107/5 106/106/5
f 108/108/5 109/109/5 107/107/5
f 110/110/5 109/109/5 108/108/5
f 110/110/5 111/111/5 109/109/5
f 110/110/5 112/112/5 111/111/5
f 98/113/5 112/112/5 110/110/5
f 112/112/5 98/113/5 97/114/5
f 115/117/12 114/116/13 113/115/12
f 114/116/13 115/117/12 116/118/13
f 5/119/15 78/97/14 6/98/14
f 78/97/14 5/119/15 77/120/15
f 119/117/16 118/116/17 117/115/16
f 118/116/17 119/117/16 120/118/17
f 123/117/18 122/116/11 121/115/18
f 122/116/11 123/117/18 124/118/11
f 64/118/14 51/115/19 65/117/19
f 51/115/19 64/118/14 50/116/14
f 28/123/20 102/122/21 103/121/20
f 102/122/21 28/123/20 30/124/21
f 25/98/16 108/120/17 106/97/16
f 108/120/17 25/98/16 23/119/17
f 127/127/22 126/126/23 125/125/22
f 126/126/23 127/127/22 128/128/23
f 131/130/24 130/126/25 129/129/24
f 130/126/25 131/130/24 132/128/25
f 45/121/2 8/124/26 80/122/26
f 8/124/26 45/121/2 2/123/2
f 27/98/13 106/120/16 104/97/13
f 106/120/16 27/98/13 25/119/16
f 20/98/18 98/120/11 110/97/18
f 98/120/11 20/98/18 19/119/11
f 4/119/7 77/97/15 5/98/15
f 77/97/15 4/119/7 76/120/7
f 124/19/1 127/18/1 133/17/1
f 127/18/1 124/19/1 123/20/1
f 127/18/1 123/20/1 128/21/1
f 128/21/1 123/20/1 131/22/1
f 131/22/1 123/20/1 120/23/1
f 131/22/1 120/23/1 132/24/1
f 132/24/1 120/23/1 119/25/1
f 132/24/1 119/25/1 134/26/1
f 134/26/1 119/25/1 116/27/1
f 134/26/1 116/27/1 135/28/1
f 135/28/1 116/27/1 115/29/1
f 135/28/1 115/29/1 136/30/1
f 115/29/1 137/31/1 136/30/1
f 137/31/1 115/29/1 138/32/1
f 120/117/17 121/116/18 118/115/17
f 121/116/18 120/117/17 123/118/18
f 52/129/26 68/128/27 54/126/27
f 68/128/27 52/129/26 66/130/26
f 55/129/29 71/128/28 57/126/28
f 71/128/28 55/129/29 69/130/29
f 7/119/19 81/97/30 9/98/30
f 81/97/30 7/119/19 79/120/19
f 63/118/15 50/115/14 64/117/14
f 50/115/14 63/118/15 49/116/15
f 67/118/30 56/115/31 70/117/31
f 56/115/31 67/118/30 53/116/30
f 83/121/29 13/124/28 85/122/28
f 13/124/28 83/121/29 11/123/29
f 9/119/30 84/97/31 12/98/31
f 84/97/31 9/119/30 81/120/30
f 29/98/12 104/120/13 101/97/12
f 104/120/13 29/98/12 27/119/13
f 82/121/27 11/124/29 83/122/29
f 11/124/29 82/121/27 10/123/27
f 113/131/5 140/100/5 139/99/5
f 140/100/5 113/131/5 141/132/5
f 113/131/5 142/103/5 141/132/5
f 114/104/5 142/103/5 113/131/5
f 114/104/5 143/105/5 142/103/5
f 117/106/5 143/105/5 114/104/5
f 117/106/5 130/107/5 143/105/5
f 118/108/5 130/107/5 117/106/5
f 118/108/5 129/109/5 130/107/5
f 121/110/5 129/109/5 118/108/5
f 121/110/5 126/111/5 129/109/5
f 121/110/5 125/112/5 126/111/5
f 122/113/5 125/112/5 121/110/5
f 125/112/5 122/113/5 144/114/5
f 54/129/27 69/128/29 55/126/29
f 69/128/29 54/129/27 68/130/27
f 139/36/32 115/134/12 113/133/12
f 115/134/12 139/36/32 138/34/32
f 23/98/17 110/120/18 108/97/17
f 110/120/18 23/98/17 20/119/18
f 22/123/24 107/122/25 109/121/24
f 107/122/25 22/123/24 24/124/25
f 21/123/23 109/122/24 111/121/23
f 109/122/24 21/123/23 22/124/24
f 62/118/7 49/115/15 63/117/15
f 49/115/15 62/118/7 48/116/7
f 24/123/25 105/122/33 107/121/25
f 105/122/33 24/123/25 26/124/33
f 57/129/28 72/128/34 58/126/34
f 72/128/34 57/129/28 71/130/28
f 128/130/23 129/126/24 126/129/23
f 129/126/24 128/130/23 131/128/24
f 116/117/13 117/116/16 114/115/13
f 117/116/16 116/117/13 119/118/16
f 147/42/3 146/43/3 145/44/3
f 146/43/3 147/42/3 148/41/3
f 85/121/28 14/124/34 86/122/34
f 14/124/34 85/121/28 13/123/28
f 135/130/20 141/126/21 142/129/20
f 141/126/21 135/130/20 136/128/21
f 73/136/35 56/116/31 59/135/35
f 56/116/31 73/136/35 70/118/31
f 146/51/32 149/81/32 145/82/32
f 149/81/32 146/51/32 150/52/32
f 35/129/2 66/128/26 52/126/26
f 66/128/26 35/129/2 33/130/2
f 152/41/6 147/44/6 151/42/6
f 147/44/6 152/41/6 148/43/6
f 80/121/26 10/124/27 82/122/27
f 10/124/27 80/121/26 8/123/26
f 150/139/1 148/138/1 152/137/1
f 148/138/1 150/139/1 146/140/1
f 65/118/19 53/115/30 67/117/30
f 53/115/30 65/118/19 51/116/19
f 147/143/5 149/142/5 151/141/5
f 149/142/5 147/143/5 145/144/5
f 136/146/21 140/80/6 141/145/21
f 140/80/6 136/146/21 137/79/6
f 26/123/33 103/122/20 105/121/33
f 103/122/20 26/123/33 28/124/20
f 134/130/33 142/126/20 143/129/33
f 142/126/20 134/130/33 135/128/20
f 132/130/25 143/126/33 130/129/25
f 143/126/33 132/130/25 134/128/33
f 6/119/14 79/97/19 7/98/19
f 79/97/19 6/119/14 78/120/14
f 18/148/22 111/122/23 112/147/22
f 111/122/23 18/148/22 21/124/23
f 58/129/34 74/150/36 60/149/36
f 74/150/36 58/129/34 72/130/34
f 30/152/21 100/84/6 102/151/21
f 100/84/6 30/152/21 31/86/6
f 99/55/32 29/154/12 101/153/12
f 29/154/12 99/55/32 32/56/32
f 86/121/34 16/156/36 88/155/36
f 16/156/36 86/121/34 14/123/34
f 12/119/31 87/158/35 15/157/35
f 87/158/35 12/119/31 84/120/31
f 122/115/11 133/160/10 144/159/10
f 133/160/10 122/115/11 124/117/11
f 44/42/32 46/161/32 41/44/32
f 46/161/32 44/42/32 39/41/32
f 75/162/32 41/44/32 46/161/32
f 41/44/32 75/162/32 37/43/32
f 46/161/32 39/41/32 1/163/32
f 37/43/32 75/162/32 3/164/32
f 1/163/32 36/165/32 3/164/32
f 1/163/32 39/41/32 36/165/32
f 47/166/32 3/164/32 36/165/32
f 37/43/32 3/164/32 47/166/32
f 36/165/32 39/41/32 34/167/32
f 37/43/32 47/166/32 61/168/32
f 34/167/32 39/41/32 61/168/32
f 37/43/32 61/168/32 39/41/32
f 93/170/37 97/169/37 95/43/37
f 97/169/37 93/170/37 90/171/37
f 133/172/37 95/43/37 97/169/37
f 95/43/37 133/172/37 92/41/37
f 97/169/37 90/171/37 112/173/37
f 133/172/37 97/169/37 17/174/37
f 112/173/37 90/171/37 18/175/37
f 92/41/37 133/172/37 127/176/37
f 92/41/37 127/176/37 90/171/37
f 133/172/37 17/174/37 144/177/37
f 18/175/37 144/177/37 17/174/37
f 125/178/37 90/171/37 127/176/37
f 144/177/37 18/175/37 125/178/37
f 18/175/37 90/171/37 125/178/37
f 73/180/38 91/52/38 74/179/38
f 74/179/38 91/52/38 60/181/38
f 73/180/38 96/51/38 91/52/38
f 96/51/38 73/180/38 94/182/38
f 94/182/38 73/180/38 59/183/38
f 60/181/38 91/52/38 16/184/38
f 89/185/38 16/184/38 91/52/38
f 15/186/38 60/181/38 16/184/38
f 60/181/38 15/186/38 59/183/38
f 89/185/38 88/187/38 16/184/38
f 87/188/38 59/183/38 15/186/38
f 87/188/38 94/182/38 59/183/38
f 89/185/38 87/188/38 88/187/38
f 94/182/38 87/188/38 89/185/38
f 150/51/4 138/189/4 149/82/4
f 138/189/4 150/51/4 152/52/4
f 99/190/4 149/82/4 138/189/4
f 149/82/4 99/190/4 151/81/4
f 138/189/4 152/52/4 137/191/4
f 99/190/4 138/189/4 139/192/4
f 137/191/4 152/52/4 140/193/4
f 151/81/4 99/190/4 100/194/4
f 151/81/4 100/194/4 152/52/4
f 99/190/4 139/192/4 32/195/4
f 140/193/4 32/195/4 139/192/4
f 31/196/4 152/52/4 100/194/4
f 32/195/4 140/193/4 31/196/4
f 140/193/4 152/52/4 31/196/4

usemtl _defaultMat

f 89/186/5 93/181/5 94/184/5
f 93/186/5 89/181/5 90/184/5

