# Created by Kenney (www.kenney.nl)

mtllib fountainCornerInnerSquare.mtl

g fountainCornerInnerSquare

v -0.47 0.112 -0.47
v -0.5 0.14 -0.5
v -0.5 0.112 -0.47
v -0.47 0.112 -0.5
v -0.5 5.203873E-18 -0.5
v -0.5 0.056 -0.5
v -0.5 5.203873E-18 -0.2
v -0.5 0.056 -0.47
v -0.5 0.28 -0.425
v -0.5 0.28 -0.5
v -0.5 0.28 -0.2
v -0.5 0.14 -0.2
v -0.2 5.203873E-18 -0.2
v -0.2 0.14 -0.2
v -0.2 0.28 -0.2
v -0.2 5.203873E-18 -0.5
v -0.2 0.14 -0.5
v -0.2 0.28 -0.5
v -0.425 0.28 -0.5
v -0.47 0.056 -0.5
v -0.47 0.056 -0.47
v -0.425 0.28 -0.425
v 0.5 5.203873E-18 -0.5
v 0.5 5.203873E-18 0.5
v -0.5 5.203873E-18 0.5
v 0.5 0.14 -0.5
v 0.5 0.14 0.5
v -0.5 0.14 0.5

vn 0 -0.7310552 -0.6823182
vn -0.6823182 -0.7310552 0
vn -1 0 0
vn 0 0 1
vn 1 0 0
vn 0 0 -1
vn 0 1 0
vn 0 -1 0

vt 18.50394 16.53605
vt 19.68504 18.15166
vt 19.68504 16.53605
vt -18.50394 16.53605
vt -19.68504 16.53605
vt -19.68504 18.15166
vt -19.68504 1.562725E-12
vt -19.68504 2.204724
vt -7.874016 1.562725E-12
vt -18.50394 2.204724
vt -18.50394 4.409449
vt -16.73228 11.02362
vt -19.68504 5.511811
vt -19.68504 11.02362
vt -7.874016 11.02362
vt -7.874016 5.511811
vt -7.874015 2.048769E-16
vt -19.68504 2.048769E-16
vt -7.874015 5.511811
vt -7.874015 11.02362
vt 7.874016 2.048769E-16
vt 7.874016 5.511811
vt 19.68504 2.048769E-16
vt 19.68504 5.511811
vt 7.874016 11.02362
vt 19.68504 11.02362
vt 16.73228 11.02362
vt 7.874015 11.02362
vt 7.874015 5.511811
vt 18.50394 4.409449
vt 18.50394 2.204724
vt 7.874015 -1.476681E-12
vt 19.68504 2.204724
vt 19.68504 -1.476681E-12
vt 19.68504 4.409449
vt 7.874015 -19.68504
vt 7.874015 -7.874016
vt 16.73228 -19.68504
vt 16.73228 -16.73228
vt 19.68504 -7.874016
vt 19.68504 -16.73228
vt -19.68504 4.409449
vt -19.68504 -19.68504
vt -19.68504 19.68504
vt 19.68504 19.68504
vt -7.874015 -7.874016
vt -7.874015 -19.68504
vt -19.68504 -7.874016
vt 18.50394 -19.68504
vt 18.50394 -18.50394
vt 19.68504 -19.68504
vt 19.68504 -18.50394

usemtl stone

f 3/3/1 2/2/1 1/1/1
f 2/6/2 4/5/2 1/4/2
f 7/9/3 6/8/3 5/7/3
f 6/8/3 7/9/3 8/10/3
f 8/10/3 7/9/3 3/11/3
f 3/11/3 7/9/3 9/12/3
f 9/12/3 2/13/3 3/11/3
f 2/13/3 9/12/3 10/14/3
f 9/12/3 7/9/3 11/15/3
f 11/15/3 7/9/3 12/16/3
f 14/19/4 7/18/4 13/17/4
f 7/18/4 14/19/4 12/13/4
f 15/20/4 12/13/4 14/19/4
f 12/13/4 15/20/4 11/14/4
f 16/23/5 14/22/5 13/21/5
f 14/22/5 16/23/5 17/24/5
f 17/24/5 15/25/5 14/22/5
f 15/25/5 17/24/5 18/26/5
f 18/28/6 10/26/6 19/27/6
f 17/29/6 10/26/6 18/28/6
f 17/29/6 2/24/6 10/26/6
f 17/29/6 4/30/6 2/24/6
f 17/29/6 20/31/6 4/30/6
f 20/31/6 17/29/6 16/32/6
f 16/32/6 6/33/6 20/31/6
f 6/33/6 16/32/6 5/34/6
f 3/35/6 21/31/6 8/33/6
f 21/31/6 3/35/6 1/30/6
f 19/38/7 15/37/7 18/36/7
f 15/37/7 19/38/7 22/39/7
f 15/37/7 22/39/7 11/40/7
f 11/40/7 22/39/7 9/41/7
f 21/10/3 4/42/3 20/8/3
f 4/42/3 21/10/3 1/11/3
f 16/36/7 24/44/7 23/43/7
f 24/44/7 16/36/7 13/37/7
f 24/44/7 13/37/7 25/45/7
f 25/45/7 13/37/7 7/40/7
f 7/48/8 16/47/8 13/46/8
f 16/47/8 7/48/8 5/43/8

usemtl stoneDark

f 6/51/7 21/50/7 20/49/7
f 21/50/7 6/51/7 8/52/7
f 10/51/7 22/39/7 19/38/7
f 22/39/7 10/51/7 9/41/7

usemtl water

f 17/36/7 27/44/7 26/43/7
f 27/44/7 17/36/7 14/37/7
f 27/44/7 14/37/7 28/45/7
f 28/45/7 14/37/7 12/40/7
f 26/43/8 27/44/8 17/36/8
f 14/37/8 17/36/8 27/44/8
f 28/45/8 14/37/8 27/44/8
f 12/40/8 14/37/8 28/45/8

