# Created by Kenney (www.kenney.nl)

mtllib fountainSquareDetail.mtl

g fountainSquareDetail

v 0.9625 0.14 -1
v 0.97 0.112 -0.97
v 1 0.14 -0.9625
v -0.97 0.112 -0.97
v -0.9625 0.14 -1
v -1 0.14 -0.9625
v -0.97 0.112 0.97
v -1 0.14 0.9625
v -0.9625 0.14 1
v 1 0.14 0.9625
v 0.97 0.112 0.97
v 0.9625 0.14 1
v 0.9625 0.28 -1
v 1 0.28 -0.9625
v -1 0.28 -0.9625
v -1 0.28 0.9625
v -0.97 0.056 -0.97
v 0.97 0.056 -0.97
v 0.7 0 -0.7
v -0.7 0 -0.7
v 0.7 0.14 -0.7
v -0.7 0.14 -0.7
v 0.7 0.28 -0.7
v -0.7 0.28 -0.7
v -0.97 0.056 0.97
v -0.9625 0.28 -1
v -0.7 0.28 0.7
v -0.7 0.14 0.7
v -0.7 0 0.7
v -0.9625 0.28 1
v 0.7 0 0.7
v 0.7 0.14 0.7
v 0.7 0.28 0.7
v 0.97 0.056 0.97
v 0.9625 0.28 1
v 1 0.28 0.9625
v 0.25 0.28 0.25
v 0.25 0.28 -0.25
v 0.25 0.14 0.25
v 0.25 0.14 -0.25
v 0.25 0 -0.25
v 0.25 0 0.25
v -0.25 0.28 -0.25
v -0.25 0.14 -0.25
v -0.25 0 -0.25
v -0.25 0 0.25
v -0.25 0.14 0.25
v -0.25 0.28 0.25
v -0.275 0.38 -0.275
v 0.275 0.38 -0.275
v 0.275 0.38 0.275
v -0.275 0.38 0.275
v 0.275 0.48 -0.275
v 0.275 0.48 0.275
v -0.275 0.48 -0.275
v -0.275 0.48 0.275
v -0.1740251 0.48 -0.1740251
v -0.1740251 0.38 -0.1740251
v -0.1740251 0.48 0.1740251
v -0.1740251 0.38 0.1740251
v -0.1740251 0.28 -0.1740251
v -0.1740251 0.28 0.1740251
v 0.1740251 0.28 0.1740251
v 0.1740251 0.38 0.1740251
v 0.1740251 0.48 0.1740251
v 0.1740251 0.28 -0.1740251
v 0.1740251 0.38 -0.1740251
v 0.1740251 0.48 -0.1740251
v 0.925 0.28 0.925
v 0.925 0.28 -0.925
v -0.925 0.28 -0.925
v -0.925 0.28 0.925
v -1 0 -1
v 1 0 -1
v 1 0 1
v -1 0 1
v -1 0.056 -1
v -1 0.056 1
v 1 0.056 -1
v 1 0.056 1

vn 0.614791 -0.4940285 -0.614791
vn -0.614791 -0.4940285 -0.614791
vn -0.614791 -0.4940285 0.614791
vn 0.614791 -0.4940285 0.614791
vn 0.7071068 0 -0.7071068
vn -1 0 0
vn 0 0 -1
vn 0 0 1
vn -0.7071068 0 -0.7071068
vn 0 -0.7310552 -0.6823182
vn 1 0 0
vn -0.7071068 0 0.7071068
vn 0.6823182 -0.7310552 0
vn -0.6823182 -0.7310552 0
vn 0 -0.7310552 0.6823182
vn 0.7071068 0 0.7071068
vn 0.9914113 -0.1307809 0
vn 0 -0.1307809 -0.9914113
vn -0.9914113 -0.1307809 0
vn 0 -0.1307809 0.9914113
vn 0 -0.1121652 -0.9936895
vn 0.9936895 -0.1121652 0
vn -0.9936895 -0.1121652 0
vn 0 -0.1121652 0.9936895
vn 0 1 0
vn 0 -1 0

vt 1.043957 31.78284
vt -3.513634E-12 30.51495
vt -1.043957 31.78284
vt -6.227907E-12 30.51495
vt -1.467271E-12 30.51495
vt 4.341416E-12 30.51495
vt 1.043957 5.511811
vt -1.043957 5.511811
vt 1.043957 11.02362
vt -1.043957 11.02362
vt -37.8937 5.511811
vt -37.8937 11.02362
vt 37.8937 5.511811
vt 37.8937 11.02362
vt 38.18898 2.204724
vt -38.18898 2.204724
vt 38.18898 4.409449
vt -38.18898 4.409449
vt 27.55906 2.842171E-13
vt -27.55906 2.842171E-13
vt 27.55906 5.511811
vt -27.55906 5.511811
vt 27.55906 11.02362
vt -27.55906 11.02362
vt -38.18898 30.9269
vt -37.8937 32.54251
vt 38.18898 30.9269
vt 37.8937 32.54251
vt 27.55906 3.573642E-25
vt -27.55906 3.573642E-25
vt -27.55906 1.421085E-13
vt 27.55906 1.421085E-13
vt -9.84252 11.02362
vt 9.84252 11.02362
vt -9.84252 5.511811
vt 9.84252 5.511811
vt 9.84252 2.842171E-12
vt -9.84252 2.842171E-12
vt -9.84252 3.045183E-12
vt 9.84252 3.045183E-12
vt 9.84252 -2.842171E-12
vt -9.84252 -2.842171E-12
vt -9.84252 -3.045183E-12
vt 9.84252 -3.045183E-12
vt 9.84252 13.08165
vt -9.84252 13.08165
vt 10.82677 17.13982
vt -10.82677 17.13982
vt 10.82677 18.89764
vt 10.82677 14.96063
vt -10.82677 18.89764
vt -10.82677 14.96063
vt 6.851382 18.89764
vt 6.851382 14.96063
vt -6.851382 18.89764
vt -6.851382 14.96063
vt 6.851382 11.02362
vt -6.851382 11.02362
vt -6.851382 6.851382
vt 6.851382 6.851382
vt -6.851382 -6.851382
vt 6.851382 -6.851382
vt -36.41732 36.41732
vt -27.55906 -27.55906
vt -36.41732 -36.41732
vt 36.41732 -36.41732
vt -27.55906 27.55906
vt 27.55906 -27.55906
vt 36.41732 36.41732
vt 27.55906 27.55906
vt 9.84252 9.84252
vt -9.84252 9.84252
vt 9.84252 -9.84252
vt -9.84252 -9.84252
vt 10.82677 10.82677
vt -10.82677 10.82677
vt -10.82677 -10.82677
vt 10.82677 -10.82677
vt -39.37008 -39.37008
vt 39.37008 -39.37008
vt 39.37008 39.37008
vt -39.37008 39.37008
vt -39.37008 0
vt -39.37008 2.204724
vt 39.37008 0
vt 39.37008 2.204724
vt 39.37008 1.635679E-27
vt -39.37008 1.635679E-27
vt -39.37008 -37.8937
vt -39.37008 37.8937
vt -37.8937 -39.37008
vt -37.8937 39.37008
vt 37.8937 -39.37008
vt 37.8937 39.37008
vt 39.37008 -37.8937
vt 39.37008 37.8937
vt -38.18898 -38.18898
vt -38.18898 38.18898
vt 38.18898 -38.18898
vt 38.18898 38.18898

usemtl stone

f 3/3/1 2/2/1 1/1/1
f 6/1/2 5/3/2 4/4/2
f 9/1/3 8/3/3 7/5/3
f 12/3/4 11/6/4 10/1/4
f 13/9/5 3/8/5 1/7/5
f 3/8/5 13/9/5 14/10/5
f 8/13/6 15/12/6 6/11/6
f 15/12/6 8/13/6 16/14/6
f 4/17/7 18/16/7 17/15/7
f 18/16/7 4/17/7 2/18/7
f 21/21/8 20/20/8 19/19/8
f 20/20/8 21/21/8 22/22/8
f 23/23/8 22/22/8 21/21/8
f 22/22/8 23/23/8 24/24/8
f 25/15/6 4/18/6 17/16/6
f 4/18/6 25/15/6 7/17/6
f 26/14/7 1/11/7 5/13/7
f 1/11/7 26/14/7 13/12/7
f 6/7/9 26/10/9 5/8/9
f 26/10/9 6/7/9 15/9/9
f 4/27/10 1/26/10 2/25/10
f 1/26/10 4/27/10 5/28/10
f 28/22/11 24/23/11 27/24/11
f 24/23/11 28/22/11 22/21/11
f 28/22/11 20/29/11 22/21/11
f 20/29/11 28/22/11 29/30/11
f 9/7/12 16/10/12 8/8/12
f 16/10/12 9/7/12 30/9/12
f 31/32/6 21/22/6 19/31/6
f 21/22/6 31/32/6 32/21/6
f 33/23/6 21/22/6 32/21/6
f 21/22/6 33/23/6 23/24/6
f 10/26/13 2/27/13 3/28/13
f 2/27/13 10/26/13 11/25/13
f 28/21/7 31/20/7 29/19/7
f 31/20/7 28/21/7 32/22/7
f 27/23/7 32/22/7 28/21/7
f 32/22/7 27/23/7 33/24/7
f 7/27/14 6/26/14 4/25/14
f 6/26/14 7/27/14 8/28/14
f 12/28/15 7/25/15 11/27/15
f 7/25/15 12/28/15 9/26/15
f 11/18/11 18/15/11 2/17/11
f 18/15/11 11/18/11 34/16/11
f 35/14/8 9/11/8 12/13/8
f 9/11/8 35/14/8 30/12/8
f 11/17/8 25/16/8 34/15/8
f 25/16/8 11/17/8 7/18/8
f 36/12/11 3/13/11 14/14/11
f 3/13/11 36/12/11 10/11/11
f 36/9/16 12/8/16 10/7/16
f 12/8/16 36/9/16 35/10/16
f 39/35/11 38/34/17 37/33/17
f 38/34/17 39/35/11 40/36/11
f 39/35/11 41/37/11 40/36/11
f 41/37/11 39/35/11 42/38/11
f 40/35/7 43/34/18 38/33/18
f 43/34/18 40/35/7 44/36/7
f 41/39/7 44/36/7 40/35/7
f 44/36/7 41/39/7 45/40/7
f 47/36/6 45/42/6 46/41/6
f 45/42/6 47/36/6 44/35/6
f 47/36/6 43/33/19 44/35/6
f 43/33/19 47/36/6 48/34/19
f 47/35/8 37/34/20 48/33/20
f 37/34/20 47/35/8 39/36/8
f 46/43/8 39/36/8 47/35/8
f 39/36/8 46/43/8 42/44/8
f 49/47/21 38/46/18 43/45/18
f 38/46/18 49/47/21 50/48/21
f 51/48/22 38/45/17 50/47/22
f 38/45/17 51/48/22 37/46/17
f 43/46/19 52/47/23 49/48/23
f 52/47/23 43/46/19 48/45/19
f 51/47/24 48/46/20 37/45/20
f 48/46/20 51/47/24 52/48/24
f 54/51/11 50/50/22 53/49/11
f 50/50/22 54/51/11 51/52/22
f 55/49/7 50/52/21 49/50/21
f 50/52/21 55/49/7 53/51/7
f 52/50/23 55/51/6 49/52/23
f 55/51/6 52/50/23 56/49/6
f 54/49/8 52/52/24 51/50/24
f 52/52/24 54/49/8 56/51/8
f 59/55/11 58/54/11 57/53/11
f 58/54/11 59/55/11 60/56/11
f 60/56/11 61/57/11 58/54/11
f 61/57/11 60/56/11 62/58/11
f 60/54/7 63/58/7 62/57/7
f 63/58/7 60/54/7 64/56/7
f 59/53/7 64/56/7 60/54/7
f 64/56/7 59/53/7 65/55/7
f 63/57/6 67/56/6 66/58/6
f 67/56/6 63/57/6 64/54/6
f 64/54/6 68/55/6 67/56/6
f 68/55/6 64/54/6 65/53/6
f 58/56/8 68/53/8 57/55/8
f 68/53/8 58/56/8 67/54/8
f 61/58/8 67/54/8 58/56/8
f 67/54/8 61/58/8 66/57/8
f 66/61/25 62/60/25 63/59/25
f 62/60/25 66/61/25 61/62/25
f 70/65/25 23/64/25 69/63/25
f 23/64/25 70/65/25 71/66/25
f 33/67/25 69/63/25 23/64/25
f 23/64/25 71/66/25 24/68/25
f 69/63/25 33/67/25 72/69/25
f 24/68/25 71/66/25 27/70/25
f 72/69/25 33/67/25 27/70/25
f 72/69/25 27/70/25 71/66/25
f 29/70/25 42/72/25 46/71/25
f 29/70/25 46/71/25 45/73/25
f 42/72/25 29/70/25 31/67/25
f 29/70/25 45/73/25 20/68/25
f 31/67/25 41/74/25 42/72/25
f 41/74/25 20/68/25 45/73/25
f 19/64/25 41/74/25 31/67/25
f 41/74/25 19/64/25 20/68/25
f 54/76/25 65/59/25 56/75/25
f 65/59/25 54/76/25 53/77/25
f 56/75/25 65/59/25 59/60/25
f 53/77/25 68/61/25 65/59/25
f 56/75/25 59/60/25 57/62/25
f 68/61/25 53/77/25 55/78/25
f 68/61/25 55/78/25 57/62/25
f 57/62/25 55/78/25 56/75/25
f 74/80/26 19/68/26 73/79/26
f 19/68/26 74/80/26 75/81/26
f 73/79/26 19/68/26 20/64/26
f 75/81/26 31/70/26 19/68/26
f 73/79/26 20/64/26 29/67/26
f 31/70/26 75/81/26 76/82/26
f 31/70/26 76/82/26 29/67/26
f 29/67/26 76/82/26 73/79/26

usemtl stoneDark

f 76/85/6 77/84/6 73/83/6
f 77/84/6 76/85/6 78/86/6
f 77/86/7 74/88/7 73/87/7
f 74/88/7 77/86/7 79/84/7
f 13/91/25 36/90/25 14/89/25
f 36/90/25 13/91/25 35/92/25
f 35/92/25 13/91/25 70/65/25
f 70/65/25 13/91/25 26/93/25
f 69/63/25 35/92/25 70/65/25
f 70/65/25 26/93/25 71/66/25
f 35/92/25 69/63/25 30/94/25
f 71/66/25 26/93/25 72/69/25
f 30/94/25 69/63/25 72/69/25
f 30/94/25 72/69/25 26/93/25
f 30/94/25 26/93/25 15/95/25
f 30/94/25 15/95/25 16/96/25
f 80/84/11 74/85/11 79/86/11
f 74/85/11 80/84/11 75/83/11
f 80/86/8 76/83/8 75/85/8
f 76/83/8 80/86/8 78/84/8
f 79/79/25 18/97/25 80/82/25
f 18/97/25 79/79/25 77/80/25
f 34/98/25 80/82/25 18/97/25
f 18/97/25 77/80/25 17/99/25
f 80/82/25 34/98/25 78/81/25
f 17/99/25 77/80/25 25/100/25
f 78/81/25 34/98/25 25/100/25
f 78/81/25 25/100/25 77/80/25

usemtl water

f 67/61/25 60/60/25 64/59/25
f 60/60/25 67/61/25 58/62/25
f 64/59/26 60/60/26 67/61/26
f 58/62/26 67/61/26 60/60/26
f 21/64/25 40/74/25 32/67/25
f 40/74/25 21/64/25 22/68/25
f 32/67/25 40/74/25 39/72/25
f 40/74/25 22/68/25 44/73/25
f 39/72/25 28/70/25 32/67/25
f 28/70/25 44/73/25 22/68/25
f 28/70/25 39/72/25 47/71/25
f 28/70/25 47/71/25 44/73/25
f 32/67/26 40/74/26 21/64/26
f 22/68/26 21/64/26 40/74/26
f 39/72/26 40/74/26 32/67/26
f 44/73/26 22/68/26 40/74/26
f 32/67/26 28/70/26 39/72/26
f 22/68/26 44/73/26 28/70/26
f 47/71/26 39/72/26 28/70/26
f 44/73/26 47/71/26 28/70/26

