# Created by Kenney (www.kenney.nl)

mtllib hedgeLargeCurved.mtl

g hedgeLargeCurved

v 0.1722075 0.2 -0.4157458
v 0.318198 0.2 -0.318198
v 0.1722075 0.6 -0.4157458
v 0.318198 0.6 -0.318198
v 0.4157458 0.6 -0.1722075
v 0.4157458 0.2 -0.1722075
v 0.45 0.6 3.753939E-14
v 0.45 0.2 3.465175E-14
v 0.3005204 0.675 -0.3005204
v 0.3926488 0.675 -0.1626405
v 0.425 0.675 3.753939E-14
v 0.3233578 0.7 -0.1339392
v 0.2474874 0.7 -0.2474874
v 0.35 0.7 3.753939E-14
v 0.1626405 0.675 -0.3926488
v 0.1339392 0.7 -0.3233578
v 1.299441E-14 0.675 -0.425
v 2.310117E-14 0.7 -0.35
v 8.662937E-15 0.6 -0.45
v 0.1767767 0.7 -0.1767767
v 0.1237437 0.675 -0.1237437
v 0.09567086 0.7 -0.2309699
v 0.0669696 0.675 -0.1616789
v 0.25 0.7 3.465175E-14
v 0.175 0.675 3.465175E-14
v 0.2309699 0.7 -0.09567086
v 0.1616789 0.675 -0.0669696
v 0.106066 0.6 -0.106066
v 0.05740251 0.6 -0.1385819
v 4.908998E-14 0.6 -0.15
v 4.620233E-14 0.675 -0.175
v 0.05740251 0.2 -0.1385819
v 5.197762E-14 0.2 -0.15
v 3.465175E-14 0.7 -0.25
v 0.1385819 0.6 -0.05740251
v 0.15 0.6 3.465175E-14
v 0.1385819 0.2 -0.05740251
v 0.15 0.2 3.465175E-14
v 0.106066 0.2 -0.106066
v 8.662937E-15 0.2 -0.45
v -0.5 0.7 -0.35
v -0.5 0.675 -0.425
v -0.5 0.2 -0.45
v -0.5 0.6 -0.45
v -0.5 0.675 -0.175
v -0.5 0.7 -0.25
v -0.5 0.2 -0.15
v -0.5 0.6 -0.15
v 0.35 0.7 0.5
v 0.25 0.7 0.5
v 0.15 0.2 0.5
v 0.15 0.6 0.5
v 0.45 0.2 0.5
v 0.45 0.6 0.5
v 0.425 0.675 0.5
v 0.175 0.675 0.5
v -0.5 0 -0.5
v -0.5 0.15 -0.5
v -0.5 0 -0.1
v -0.5 0.15 -0.1
v 1.443823E-15 0.15 -0.5
v 1.443823E-15 0 -0.5
v 5.630909E-14 0.15 -0.1
v 5.919673E-14 0 -0.1
v 0.09238795 0.15 -0.03826834
v 0.07071068 0.15 -0.07071068
v 0.1913417 0.15 -0.4619398
v 0.4619398 0.15 -0.1913417
v 0.3535534 0.15 -0.3535534
v 0.1 0.15 3.465175E-14
v 0.5 0 3.465175E-14
v 0.5 0 0.5
v 0.5 0.15 3.753939E-14
v 0.5 0.15 0.5
v 0.1 0 0.5
v 0.4619398 0 -0.1913417
v 0.3535534 0 -0.3535534
v 0.1913417 0 -0.4619398
v 0.1 0 3.465175E-14
v 0.09238795 0 -0.03826834
v 0.07071068 0 -0.07071068
v 0.03826834 0 -0.09238795
v 0.1 0.15 0.5
v 0.03826834 0.15 -0.09238795

vn 0.3826834 0 -0.9238795
vn 0.7071068 0 -0.7071068
vn 0.9238795 0 -0.3826834
vn 0.9951847 0 -0.09801714
vn 0.6708204 0.3162277 -0.6708204
vn 0.876469 0.3162277 -0.3630454
vn 0.5182524 0.6803154 -0.5182524
vn 0.6771294 0.6803153 -0.2804762
vn 0.9447251 0.3149084 -0.09125404
vn 0.718003 0.6924193 -0.07090265
vn 0.1658901 0.9837474 -0.0687139
vn 0.1269667 0.9837474 -0.1269667
vn 0.1698312 0.985312 -0.017819
vn 0.2804762 0.6803153 -0.6771294
vn 0.0687139 0.9837474 -0.1658901
vn 0.07090265 0.6924193 -0.718003
vn 0.017819 0.985312 -0.1698312
vn 0.09125404 0.3149084 -0.9447251
vn 0.3630454 0.3162277 -0.876469
vn -0.09939024 0.9900723 0.09939024
vn -0.4786796 0.7360242 0.4786796
vn -0.0537896 0.9900723 0.1298596
vn -0.2590595 0.7360242 0.6254251
vn -0.1503507 0.9885336 0.01399675
vn -0.6903396 0.7202626 0.06821299
vn -0.1298596 0.9900723 0.0537896
vn -0.6254251 0.7360242 0.2590595
vn -0.6708204 0.3162277 0.6708204
vn -0.3630454 0.3162277 0.876469
vn -0.0949151 0.3148001 0.9444004
vn -0.06821299 0.7202626 0.6903396
vn -0.3826834 0 0.9238795
vn -0.09801714 0 0.9951847
vn -0.01399675 0.9885336 0.1503507
vn -0.876469 0.3162277 0.3630454
vn -0.9444004 0.3148001 0.0949151
vn -0.9238795 0 0.3826834
vn -0.9951847 0 0.09801714
vn -0.7071068 0 0.7071068
vn 0.09801714 0 -0.9951847
vn 0 0.9870875 -0.1601822
vn 0 0.7071068 -0.7071068
vn 0 0 -1
vn 0 0.7071068 0.7071068
vn 0 0.9870875 0.1601822
vn 0 0 1
vn 0.1601822 0.9870875 0
vn -0.1601822 0.9870875 0
vn 0 0.3162278 0.9486833
vn 0 0.3162278 -0.9486833
vn -1 0 0
vn -0.9486833 0.3162278 0
vn -0.7071068 0.7071068 0
vn 0.7071068 0.7071068 0
vn 1 0 0
vn 0.9486833 0.3162278 0
vn 0.07275616 0.7052328 -0.7052328
vn 0.08940511 0.3735052 -0.9233096
vn 0 0.3826834 -0.9238795
vn -0.09205667 0.3901203 0.9161505
vn 0 0.3826834 0.9238795
vn -0.06659367 0.7055371 0.7055371
vn -0.6532815 0.7071068 0.2705981
vn -0.8465121 0.4005885 0.3506368
vn -0.5 0.7071068 0.5
vn -0.6478924 0.4005885 0.6478924
vn 0.3560058 0.3668299 -0.8594741
vn 0.2705981 0.7071068 -0.6532815
vn 0.8594741 0.3668299 -0.3560058
vn 0.6532815 0.7071068 -0.2705981
vn 0.6578129 0.3668299 -0.6578129
vn 0.5 0.7071068 -0.5
vn -0.7055371 0.7055371 0.06659367
vn -0.9161505 0.3901203 0.09205667
vn 0.9233096 0.3735052 -0.08940511
vn 0.9238795 0.3826834 0
vn 0 -1 0
vn -0.9238795 0.3826834 0
vn 0.7052328 0.7052328 -0.07275616
vn -0.2705981 0.7071068 0.6532815
vn -0.3506368 0.4005885 0.8465121

vt 3.456325 7.874016
vt -3.456325 7.874016
vt 3.456325 23.62205
vt -3.456325 23.62205
vt 3.456325 17.05309
vt -3.456325 17.05309
vt 3.264307 20.15965
vt -3.264307 20.15965
vt -3.264307 -6.986494
vt -2.688252 -3.927788
vt 3.264307 -6.986494
vt 2.688252 -3.927788
vt 1.92018 18.0081
vt 1.344126 14.9494
vt -1.92018 18.0081
vt -1.344126 14.9494
vt 1.152108 24.25245
vt -1.152108 24.25245
vt 1.344126 27.359
vt -1.344126 27.359
vt 1.152108 7.874016
vt -1.152108 7.874016
vt 1.152108 23.62205
vt -1.152108 23.62205
vt -2.899042E-12 -4.357469
vt 19.68504 -4.357469
vt -2.92747E-12 -7.469947
vt 19.68504 -7.469947
vt 19.68504 7.874016
vt -2.899014E-12 7.874016
vt 19.68504 23.62205
vt -2.899014E-12 23.62205
vt 2.813716E-12 14.93989
vt -19.68504 14.93989
vt 2.78528E-12 18.05237
vt -19.68504 18.05237
vt 2.899014E-12 7.874016
vt -19.68504 7.874016
vt 2.785328E-12 23.62205
vt -19.68504 23.62205
vt 19.68504 -13.77953
vt -9.094947E-13 -13.77953
vt 19.68504 -9.84252
vt -1.364242E-12 -9.84252
vt -3.766569 -9.093303
vt -5.273197 -12.73062
vt -6.959713 -6.959713
vt -9.093303 -3.766569
vt -9.743597 -9.743597
vt -9.84252 1.364242E-12
vt -12.73062 -5.273197
vt -13.77953 1.477929E-12
vt -13.77953 19.68504
vt -9.84252 19.68504
vt 2.78533E-12 24.27733
vt -19.68504 24.27733
vt 2.813752E-12 27.38981
vt -19.68504 27.38981
vt 19.68504 16.80738
vt -2.899023E-12 16.80738
vt 19.68504 19.91986
vt -2.927444E-12 19.91986
vt -17.71654 7.874016
vt -17.71654 23.62205
vt -5.905512 7.874016
vt -16.73228 26.5748
vt -13.77953 27.55906
vt -9.84252 27.55906
vt -6.889764 26.5748
vt -5.905512 23.62205
vt 1.364242E-12 7.874016
vt 1.364242E-12 23.62205
vt 17.71654 7.874016
vt 5.905512 7.874016
vt 17.71654 23.62205
vt 5.905512 23.62205
vt 16.73228 26.5748
vt 6.889764 26.5748
vt 13.77953 27.55906
vt 9.84252 27.55906
vt 1.364242E-12 24.27733
vt 1.364242E-12 27.38981
vt 19.68504 24.27733
vt 19.68504 27.38981
vt -1.477929E-12 -7.469947
vt -19.68504 -7.469947
vt -1.477929E-12 -4.357469
vt -19.68504 -4.357469
vt 1.364242E-12 18.05237
vt 19.68504 18.05237
vt 1.364242E-12 14.93989
vt 19.68504 14.93989
vt -1.364242E-12 7.874016
vt -1.477929E-12 23.62205
vt -1.477929E-12 19.91986
vt -1.477929E-12 16.80738
vt -19.68504 19.91986
vt -19.68504 16.80738
vt -19.68504 2.43848E-28
vt -19.68504 5.905512
vt -3.937008 2.43848E-28
vt -3.937008 5.905512
vt -2.899009E-12 -6.959713
vt 19.68504 -6.959713
vt -2.899009E-12 -9.743597
vt 19.68504 -9.743597
vt 19.68504 0
vt -2.899014E-12 0
vt 19.68504 5.905512
vt -2.899014E-12 5.905512
vt 2.785326E-12 6.959713
vt -19.68504 6.959713
vt 2.899013E-12 9.743597
vt -19.68504 9.743597
vt 2.899014E-12 5.501092E-27
vt -19.68504 5.501092E-27
vt 2.785328E-12 5.905512
vt 1.152108 9.677186
vt 0.7680721 6.919917
vt -1.152108 9.677186
vt -0.7680721 6.919917
vt -3.840361 -9.302762
vt -3.456325 -6.545494
vt 3.840361 -9.302762
vt 3.456325 -6.545494
vt -1.364242E-12 0
vt -19.68504 0
vt -1.477929E-12 5.905512
vt 19.68504 19.68504
vt 19.68504 1.364242E-12
vt 3.937008 19.68504
vt 18.18661 -7.533138
vt 13.91943 -13.91943
vt 7.533138 -18.18661
vt 3.937008 1.364242E-12
vt 3.637321 -1.506628
vt 5.684342E-14 -19.68504
vt 2.783885 -2.783885
vt 1.506628 -3.637321
vt 2.33058E-12 -3.937008
vt -19.68504 -3.937008
vt -19.68504 -19.68504
vt 1.364242E-12 9.743597
vt 19.68504 9.743597
vt 1.364242E-12 6.959713
vt 19.68504 6.959713
vt 3.937008 0
vt 3.937008 5.905512
vt 1.364242E-12 0
vt 1.364242E-12 5.905512
vt -1.364323E-12 -6.959713
vt -1.478019E-12 -9.743597
vt -19.68504 -6.959713
vt -19.68504 -9.743597
vt -0.7680721 2.14973E-18
vt -0.7680721 5.905512
vt 0.7680721 2.14973E-18
vt 0.7680721 5.905512
vt 0.7680721 0
vt -0.7680721 0
vt 0.7680721 -7.251918E-15
vt -0.7680721 -7.251918E-15
vt 3.840361 0
vt -3.840361 0
vt 3.840361 5.905512
vt -3.840361 5.905512
vt 3.840361 1.195277E-16
vt -3.840361 1.195277E-16
vt 3.840361 -3.625959E-14
vt -3.840361 -3.625959E-14

usemtl foliage

f 3/3/1 2/2/2 1/1/1
f 2/2/2 3/3/1 4/4/2
f 7/4/4 6/1/3 5/3/3
f 6/1/3 7/4/4 8/2/4
f 5/4/3 2/1/2 4/3/2
f 2/1/2 5/4/3 6/2/3
f 9/7/7 5/6/6 4/5/5
f 5/6/6 9/7/7 10/8/8
f 10/7/8 7/6/9 5/5/6
f 7/6/9 10/7/8 11/8/10
f 9/11/7 12/10/11 10/9/8
f 12/10/11 9/11/7 13/12/12
f 10/11/8 14/10/13 11/9/10
f 14/10/13 10/11/8 12/12/11
f 17/11/16 16/10/15 15/9/14
f 16/10/15 17/11/16 18/12/17
f 15/11/14 13/10/12 9/9/7
f 13/10/12 15/11/14 16/12/15
f 17/7/16 3/6/19 19/5/18
f 3/6/19 17/7/16 15/8/14
f 22/15/22 21/14/21 20/13/20
f 21/14/21 22/15/22 23/16/23
f 15/7/14 4/6/5 3/5/19
f 4/6/5 15/7/14 9/8/7
f 26/15/26 25/14/25 24/13/24
f 25/14/25 26/15/26 27/16/27
f 21/19/21 29/18/29 28/17/28
f 29/18/29 21/19/21 23/20/23
f 23/19/23 30/18/30 29/17/29
f 30/18/30 23/19/23 31/20/31
f 29/23/32 33/22/33 32/21/32
f 33/22/33 29/23/32 30/24/33
f 34/15/34 23/14/23 22/13/22
f 23/14/23 34/15/34 31/16/31
f 20/15/20 27/14/27 26/13/26
f 27/14/27 20/15/20 21/16/21
f 28/18/28 27/19/27 21/20/21
f 27/19/27 28/18/28 35/17/35
f 35/18/35 25/19/25 27/20/27
f 25/19/25 35/18/35 36/17/36
f 38/21/38 35/24/37 37/22/37
f 35/24/37 38/21/38 36/23/38
f 37/21/37 28/24/39 39/22/39
f 28/24/39 37/21/37 35/23/37
f 28/23/39 32/22/32 39/21/39
f 32/22/32 28/23/39 29/24/32
f 19/3/40 1/2/1 40/1/40
f 1/2/1 19/3/40 3/4/1
f 17/27/16 41/26/41 18/25/17
f 41/26/41 17/27/16 42/28/42
f 44/31/43 40/30/40 43/29/43
f 40/30/40 44/31/43 19/32/40
f 34/35/34 45/34/44 31/33/31
f 45/34/44 34/35/34 46/36/45
f 30/39/33 47/38/46 33/37/33
f 47/38/46 30/39/33 48/40/46
f 46/43/45 18/42/17 41/41/41
f 18/42/17 46/43/45 34/44/34
f 22/45/22 18/42/17 34/44/34
f 22/45/22 16/46/15 18/42/17
f 20/47/20 16/46/15 22/45/22
f 26/48/26 16/46/15 20/47/20
f 26/48/26 13/49/12 16/46/15
f 24/50/24 13/49/12 26/48/26
f 24/50/24 12/51/11 13/49/12
f 12/51/11 24/50/24 14/52/13
f 24/50/24 49/53/47 14/52/13
f 49/53/47 24/50/24 50/54/48
f 31/57/31 48/56/49 30/55/30
f 48/56/49 31/57/31 45/58/44
f 42/61/42 19/60/18 44/59/50
f 19/60/18 42/61/42 17/62/16
f 47/65/51 44/64/51 43/63/51
f 44/64/51 47/65/51 42/66/51
f 42/66/51 47/65/51 41/67/51
f 41/67/51 47/65/51 46/68/51
f 46/68/51 47/65/51 45/69/51
f 45/69/51 47/65/51 48/70/51
f 51/29/51 36/72/38 38/71/38
f 36/72/38 51/29/51 52/31/51
f 54/75/46 51/74/46 53/73/46
f 51/74/46 54/75/46 52/76/46
f 52/76/46 54/75/46 55/77/46
f 52/76/46 55/77/46 56/78/46
f 56/78/46 55/77/46 49/79/46
f 56/78/46 49/79/46 50/80/46
f 52/83/52 25/82/25 36/81/36
f 25/82/25 52/83/52 56/84/53
f 14/87/13 55/86/54 11/85/10
f 55/86/54 14/87/13 49/88/47
f 25/91/25 50/90/48 24/89/24
f 50/90/48 25/91/25 56/92/53
f 7/94/4 53/38/55 8/93/4
f 53/38/55 7/94/4 54/40/55
f 55/97/54 7/96/9 11/95/10
f 7/96/9 55/97/54 54/98/56

usemtl stone

f 59/101/51 58/100/51 57/99/51
f 58/100/51 59/101/51 43/63/51
f 43/63/51 59/101/51 47/65/51
f 47/65/51 59/101/51 60/102/51
f 61/105/58 43/104/42 40/103/57
f 43/104/42 61/105/58 58/106/59
f 58/109/59 62/108/40 57/107/43
f 62/108/40 58/109/59 61/110/58
f 33/113/62 60/112/61 63/111/60
f 60/112/61 33/113/62 47/114/44
f 63/117/60 59/116/46 64/115/33
f 59/116/46 63/117/60 60/100/61
f 39/120/65 65/119/64 37/118/63
f 65/119/64 39/120/65 66/121/66
f 61/124/58 1/123/68 67/122/67
f 1/123/68 61/124/58 40/125/57
f 69/124/71 6/123/70 68/122/69
f 6/123/70 69/124/71 2/125/72
f 37/120/63 70/119/74 38/118/73
f 70/119/74 37/120/63 65/121/64
f 67/124/67 2/123/72 69/122/71
f 2/123/72 67/124/67 1/125/68
f 73/128/75 72/127/55 71/126/4
f 72/127/55 73/128/75 74/100/76
f 75/131/77 71/130/77 72/129/77
f 71/130/77 75/131/77 76/132/77
f 76/132/77 75/131/77 77/133/77
f 77/133/77 75/131/77 78/134/77
f 78/134/77 75/131/77 79/135/77
f 78/134/77 79/135/77 80/136/77
f 78/134/77 80/136/77 62/137/77
f 62/137/77 80/136/77 81/138/77
f 62/137/77 81/138/77 82/139/77
f 62/137/77 82/139/77 64/140/77
f 62/137/77 64/140/77 59/141/77
f 62/137/77 59/141/77 57/142/77
f 70/145/74 51/144/53 38/143/73
f 51/144/53 70/145/74 83/146/78
f 74/109/46 75/147/46 72/107/46
f 75/147/46 74/109/46 83/148/46
f 83/148/46 74/109/46 53/73/46
f 83/148/46 53/73/46 51/74/46
f 75/107/51 70/150/74 79/149/38
f 70/150/74 75/107/51 83/109/78
f 53/153/54 73/152/75 8/151/79
f 73/152/75 53/153/54 74/154/76
f 33/120/62 84/119/81 32/118/80
f 84/119/81 33/120/62 63/121/60
f 32/120/80 66/119/66 39/118/65
f 66/119/66 32/120/80 84/121/81
f 6/125/70 73/122/75 68/124/69
f 73/122/75 6/125/70 8/123/79
f 79/157/38 65/156/64 80/155/37
f 65/156/64 79/157/38 70/158/74
f 66/158/66 82/160/32 81/159/39
f 82/160/32 66/158/66 84/156/81
f 84/158/81 64/162/33 82/161/32
f 64/162/33 84/158/81 63/156/60
f 67/165/67 77/164/2 78/163/1
f 77/164/2 67/165/67 69/166/71
f 80/159/37 66/156/66 81/160/39
f 66/156/66 80/159/37 65/158/64
f 61/165/58 78/168/1 62/167/40
f 78/168/1 61/165/58 67/166/67
f 68/166/69 77/163/2 69/165/71
f 77/163/2 68/166/69 76/164/3
f 73/166/75 76/169/3 68/165/69
f 76/169/3 73/166/75 71/170/4

