# Created by Kenney (www.kenney.nl)

mtllib hedgeCurved.mtl

g hedgeCurved

v 0.5 0 0.5
v 0.5 0 2.021352E-14
v 0.25 0 0.5
v 0.4957224 0 -0.06526309
v 0.4829629 0 -0.1294095
v 0.4619398 0 -0.1913417
v 0.4330127 0 -0.25
v 0.3966767 0 -0.3043807
v 0.3535534 0 -0.3535534
v 0.3043807 0 -0.3966767
v 0.25 0 -0.4330127
v 0.25 0 2.021352E-14
v 0.2478612 0 -0.03263155
v 0.1913417 0 -0.4619398
v 0.2414815 0 -0.06470476
v 0.2309699 0 -0.09567086
v 0.2165064 0 -0.125
v 0.1983383 0 -0.1521904
v 0.1767767 0 -0.1767767
v 0.1294095 0 -0.4829629
v 0.1521904 0 -0.1983383
v 0.125 0 -0.2165064
v 0.06526309 0 -0.4957224
v 0.09567086 0 -0.2309699
v 0.06470476 0 -0.2414815
v 3.465175E-14 0 -0.5
v 0.03263155 0 -0.2478612
v 1.443823E-14 0 -0.25
v -0.5 0 -0.5
v -0.5 0 -0.25
v 0.25 0.1 -0.4330127
v 0.3043807 0.1 -0.3966767
v 0.1913417 0.1 -0.4619398
v 0.1294095 0.1 -0.4829629
v 3.465175E-14 0.1 -0.5
v 0.06526309 0.1 -0.4957224
v 0.06470476 0.1 -0.2414815
v 0.03263155 0.1 -0.2478612
v 0.09567086 0.1 -0.2309699
v 0.125 0.1 -0.2165064
v 1.443823E-14 0.1 -0.25
v 0.1767767 0.1 -0.1767767
v 0.1983383 0.1 -0.1521904
v 0.1521904 0.1 -0.1983383
v 0.2165064 0.1 -0.125
v 0.2309699 0.1 -0.09567086
v -0.5 0.1 -0.25
v -0.5 0.1 -0.3125
v 2.021352E-14 0.1 -0.3125
v 0.04078943 0.1 -0.3098265
v 0.08088095 0.1 -0.3018518
v 0.1195886 0.1 -0.2887124
v 0.15625 0.1 -0.270633
v 0.190238 0.1 -0.2479229
v 0.2209709 0.1 -0.2209709
v 0.2414815 0.1 -0.06470476
v 0.2478612 0.1 -0.03263155
v 0.2479229 0.1 -0.190238
v 0.25 0.1 2.021352E-14
v 0.270633 0.1 -0.15625
v 0.25 0.1 0.5
v 0.2887124 0.1 -0.1195886
v 0.3018518 0.1 -0.08088095
v 0.3098265 0.1 -0.04078943
v 0.3125 0.1 0.5
v 0.3125 0.1 2.021352E-14
v 0.4957224 0.1 -0.06526309
v 0.5 0.1 2.021352E-14
v 0.4619398 0.1 -0.1913417
v 0.4829629 0.1 -0.1294095
v 0.3966767 0.1 -0.3043807
v 0.4330127 0.1 -0.25
v -0.5 0.1 -0.4375
v -0.5 0.1 -0.5
v 3.17641E-14 0.1 -0.4375
v 0.05710521 0.1 -0.4337572
v 0.1132333 0.1 -0.4225926
v 0.167424 0.1 -0.4041973
v 0.21875 0.1 -0.3788861
v 0.2663331 0.1 -0.3470921
v 0.3093592 0.1 -0.3093592
v 0.3470921 0.1 -0.2663331
v 0.3535534 0.1 -0.3535534
v 0.3788861 0.1 -0.21875
v 0.4041973 0.1 -0.167424
v 0.4225926 0.1 -0.1132333
v 0.4337572 0.1 -0.05710521
v 0.4375 0.1 2.021352E-14
v 0.4375 0.1 0.5
v 0.5 0.1 0.5
v 2.021352E-14 0.22 -0.3125
v -0.5 0.22 -0.3125
v 3.17641E-14 0.22 -0.4375
v 2.887646E-14 0.25 -0.4075
v -0.5 0.22 -0.4375
v -0.5 0.25 -0.4075
v 2.310117E-14 0.25 -0.3425
v -0.5 0.25 -0.3425
v 0.4375 0.22 0.5
v 0.3125 0.22 0.5
v 0.4075 0.25 0.5
v 0.3425 0.25 0.5
v 0.4375 0.22 2.021352E-14
v 0.3125 0.22 2.021352E-14
v 0.3425 0.25 2.021352E-14
v 0.4075 0.25 2.021352E-14
v 0.4225926 0.22 -0.1132333
v 0.4337572 0.22 -0.05710521
v 0.3788861 0.22 -0.21875
v 0.4041973 0.22 -0.167424
v 0.2209709 0.22 -0.2209709
v 0.190238 0.22 -0.2479229
v 0.3018518 0.22 -0.08088095
v 0.3098265 0.22 -0.04078943
v 0.3470921 0.22 -0.2663331
v 0.2479229 0.22 -0.190238
v 0.08088095 0.22 -0.3018518
v 0.04078943 0.22 -0.3098265
v 0.1132333 0.22 -0.4225926
v 0.167424 0.22 -0.4041973
v 0.3093592 0.22 -0.3093592
v 0.2663331 0.22 -0.3470921
v 0.1195886 0.22 -0.2887124
v 0.21875 0.22 -0.3788861
v 0.15625 0.22 -0.270633
v 0.270633 0.22 -0.15625
v 0.2887124 0.22 -0.1195886
v 0.05710521 0.22 -0.4337572
v 0.04470522 0.25 -0.3395699
v 0.05318942 0.25 -0.4040138
v 0.08864552 0.25 -0.3308296
v 0.1054688 0.25 -0.3936148
v 0.1310691 0.25 -0.3164288
v 0.1559435 0.25 -0.3764809
v 0.17125 0.25 -0.2966137
v 0.20375 0.25 -0.3529053
v 0.2085008 0.25 -0.2717235
v 0.2421841 0.25 -0.2421841
v 0.2480703 0.25 -0.3232915
v 0.2717235 0.25 -0.2085008
v 0.288146 0.25 -0.288146
v 0.2966137 0.25 -0.17125
v 0.3164288 0.25 -0.1310691
v 0.3232915 0.25 -0.2480703
v 0.3308296 0.25 -0.08864552
v 0.3395699 0.25 -0.04470522
v 0.3529053 0.25 -0.20375
v 0.3764809 0.25 -0.1559435
v 0.3936148 0.25 -0.1054688
v 0.4040138 0.25 -0.05318942

vn 0 -1 0
vn 0.5 0 -0.8660254
vn 0.6087614 0 -0.7933533
vn 0.3826834 0 -0.9238795
vn 0.258819 0 -0.9659258
vn 0.03271909 0 -0.9994646
vn 0.1305262 0 -0.9914449
vn -0.258819 0 0.9659258
vn -0.1305262 0 0.9914449
vn -0.3826834 0 0.9238795
vn -0.5 0 0.8660254
vn -0.03271909 0 0.9994646
vn -0.7071068 0 0.7071068
vn -0.7933533 0 0.6087614
vn -0.6087614 0 0.7933533
vn -0.8660254 0 0.5
vn -0.9238795 0 0.3826834
vn 0 1 0
vn -0.9659258 0 0.258819
vn -0.9914449 0 0.1305262
vn -0.9994646 0 0.03271909
vn 0.9914449 0 -0.1305262
vn 0.9994646 0 -0.03271909
vn 0.9238795 0 -0.3826834
vn 0.9659258 0 -0.258819
vn 0.7933533 0 -0.6087614
vn 0.8660254 0 -0.5
vn 0.7071068 0 -0.7071068
vn -1 0 0
vn 1 0 0
vn 0 0 1
vn 0 0 -1
vn -0.03038135 0.3854015 0.9222487
vn 0 0.3826834 0.9238795
vn 0.03008856 0.379775 -0.9245894
vn 0.01293838 0.9209942 -0.3893613
vn 0 0.3826834 -0.9238795
vn 0 0.9238795 -0.3826834
vn -0.01212368 0.9266374 0.375761
vn 0 0.9238795 0.3826834
vn 0.9245894 0.379775 -0.03008856
vn 0.9238795 0.3826834 0
vn -0.9222487 0.3854015 0.03038136
vn -0.375761 0.9266374 0.01212368
vn -0.9238795 0.3826834 0
vn -0.3826834 0.9238795 0
vn 0.3893613 0.9209942 -0.01293838
vn 0.3826834 0.9238795 0
vn 0.8945896 0.3771618 -0.2397046
vn 0.9182241 0.3771619 -0.1208865
vn 0.8020672 0.3771618 -0.4630737
vn 0.8556485 0.3771618 -0.3544213
vn -0.6515822 0.3884344 0.6515822
vn -0.5609593 0.3884344 0.7310564
vn -0.8900778 0.3884344 0.2384956
vn -0.9135931 0.3884344 0.1202768
vn 0.7347621 0.3771619 -0.5638028
vn -0.7310564 0.3884344 0.5609593
vn -0.2384956 0.3884344 0.8900778
vn -0.1202768 0.3884344 0.9135931
vn 0.2397046 0.3771618 -0.8945896
vn 0.3544213 0.3771618 -0.8556485
vn 0.6548851 0.3771618 -0.6548851
vn 0.5638028 0.3771619 -0.7347621
vn -0.3526338 0.3884344 0.8513332
vn 0.4630737 0.3771618 -0.8020672
vn -0.4607382 0.3884344 0.798022
vn -0.798022 0.3884344 0.4607382
vn -0.8513332 0.3884344 0.3526338
vn 0.1208865 0.3771619 -0.9182241
vn -0.04815271 0.9294642 0.3657562
vn 0.05170505 0.9181954 -0.3927389
vn -0.09548152 0.9294642 0.3563419
vn 0.1025254 0.9181954 -0.3826301
vn -0.1411766 0.9294642 0.3408305
vn 0.1515916 0.9181954 -0.3659744
vn -0.1844561 0.9294642 0.3194874
vn 0.1980639 0.9181954 -0.3430568
vn -0.2245796 0.9294642 0.2926778
vn -0.2608604 0.9294642 0.2608604
vn 0.2411474 0.9181954 -0.3142693
vn -0.2926778 0.9294642 0.2245796
vn 0.2801047 0.9181954 -0.2801047
vn -0.3194874 0.9294642 0.1844561
vn -0.3408305 0.9294642 0.1411766
vn 0.3142693 0.9181954 -0.2411474
vn -0.3563419 0.9294642 0.09548152
vn -0.3657562 0.9294642 0.04815271
vn 0.3430568 0.9181954 -0.1980639
vn 0.3659744 0.9181954 -0.1515916
vn 0.3826301 0.9181954 -0.1025254
vn 0.3927389 0.9181954 -0.05170505

vt 19.68504 19.68504
vt 19.68504 7.958079E-13
vt 9.84252 19.68504
vt 19.51663 -2.569413
vt 19.01429 -5.094863
vt 18.18661 -7.533138
vt 17.04774 -9.84252
vt 15.61719 -11.98349
vt 13.91943 -13.91943
vt 11.98349 -15.61719
vt 9.84252 -17.04774
vt 9.84252 7.958079E-13
vt 9.758316 -1.284707
vt 7.533138 -18.18661
vt 9.507144 -2.547431
vt 9.093303 -3.766569
vt 8.523872 -4.92126
vt 7.808596 -5.991746
vt 6.959713 -6.959713
vt 5.094863 -19.01429
vt 5.991746 -7.808596
vt 4.92126 -8.523872
vt 2.569413 -19.51663
vt 3.766569 -9.093303
vt 2.547431 -9.507144
vt 1.364242E-12 -19.68504
vt 1.284707 -9.758316
vt 5.684342E-13 -9.84252
vt -19.68504 -19.68504
vt -19.68504 -9.84252
vt 1.287463 0
vt -1.287463 0
vt 1.287463 3.937008
vt -1.287463 3.937008
vt 0.6437316 0
vt -0.6437316 0
vt 0.6437316 3.937008
vt -0.6437316 3.937008
vt 19.68504 -9.84252
vt 19.68504 -12.30315
vt -5.684342E-13 -9.84252
vt -7.958079E-13 -12.30315
vt -1.284707 -9.758316
vt -1.605883 -12.19789
vt -2.547431 -9.507144
vt -3.184289 -11.88393
vt -3.766569 -9.093303
vt -4.708211 -11.36663
vt -4.92126 -8.523872
vt -5.991746 -7.808596
vt -6.151575 -10.65484
vt -6.959713 -6.959713
vt -7.489683 -9.760745
vt -7.808596 -5.991746
vt -8.523872 -4.92126
vt -8.69964 -8.69964
vt -9.093303 -3.766569
vt -9.507144 -2.547431
vt -9.758316 -1.284707
vt -9.760745 -7.489683
vt -9.84252 7.958079E-13
vt -10.65484 -6.151575
vt -9.84252 19.68504
vt -11.36663 -4.708211
vt -11.88393 -3.184289
vt -12.19789 -1.605883
vt -12.30315 19.68504
vt -12.30315 7.958079E-13
vt 19.68504 -17.22441
vt 19.68504 -19.68504
vt -1.250555E-12 -17.22441
vt -1.364242E-12 -19.68504
vt -2.248237 -17.07705
vt -2.569413 -19.51663
vt -4.458005 -16.6375
vt -5.094863 -19.01429
vt -6.591496 -15.91328
vt -7.533138 -18.18661
vt -8.612205 -14.91678
vt -9.84252 -17.04774
vt -10.48556 -13.66504
vt -11.98349 -15.61719
vt -12.1795 -12.1795
vt -13.66504 -10.48556
vt -13.91943 -13.91943
vt -14.91678 -8.612205
vt -15.61719 -11.98349
vt -15.91328 -6.591496
vt -16.6375 -4.458005
vt -17.04774 -9.84252
vt -17.07705 -2.248237
vt -17.22441 7.958079E-13
vt -18.18661 -7.533138
vt -17.22441 19.68504
vt -19.01429 -5.094863
vt -19.51663 -2.569413
vt -19.68504 19.68504
vt -19.68504 7.958079E-13
vt 7.958079E-13 0
vt 7.958079E-13 3.937008
vt 19.68504 0
vt 19.68504 3.937008
vt -7.958079E-13 3.937008
vt -7.958079E-13 0
vt -19.68504 3.937008
vt -19.68504 0
vt 9.84252 0
vt 9.84252 3.937008
vt 17.22441 3.937008
vt 12.30315 3.937008
vt -2.557954E-13 0
vt -2.557954E-13 3.937008
vt 2.842171E-13 0
vt 2.842171E-13 3.937008
vt -9.84252 0
vt -17.22441 3.937008
vt -12.30315 3.937008
vt -9.84252 3.937008
vt -2.344791E-13 3.937008
vt -2.344791E-13 8.661417
vt -19.68504 8.661417
vt 1.918294E-13 -6.05495
vt 2.066099E-13 -4.384619
vt 19.68504 -6.05495
vt 19.68504 -4.384619
vt -2.344951E-13 14.82419
vt -19.68504 14.82419
vt -2.197173E-13 16.49452
vt -19.68504 16.49452
vt 17.22441 8.661417
vt 12.30315 8.661417
vt 16.04331 9.84252
vt 13.48425 9.84252
vt -7.958079E-13 8.661417
vt 7.958079E-13 14.82419
vt 7.958079E-13 16.49452
vt 19.68504 14.82419
vt 19.68504 16.49452
vt -7.958079E-13 -6.05495
vt -19.68504 -6.05495
vt -7.958079E-13 -4.384619
vt -19.68504 -4.384619
vt 7.958079E-13 8.661417
vt 19.68504 8.661417
vt -17.22441 8.661417
vt -16.04331 9.84252
vt -13.48425 9.84252
vt -12.30315 8.661417
vt 1.918465E-13 3.937008
vt 1.918465E-13 8.661417
vt 1.12653 8.661417
vt 1.12653 3.937008
vt -1.12653 8.661417
vt -1.12653 3.937008
vt 0.8046645 3.937008
vt -0.8046645 3.937008
vt 0.8046645 8.661417
vt -0.8046645 8.661417
vt 19.68504 -13.48425
vt 19.68504 -16.04331
vt -9.094947E-13 -13.48425
vt -1.136868E-12 -16.04331
vt -1.760048 -13.36889
vt -2.094072 -15.90605
vt -3.489981 -13.02479
vt -4.152313 -15.49664
vt -5.1602 -12.45782
vt -6.139508 -14.82208
vt -6.742126 -11.6777
vt -8.021653 -13.89391
vt -8.208693 -10.69778
vt -9.534806 -9.534806
vt -9.766546 -12.72801
vt -10.69778 -8.208693
vt -11.34433 -11.34433
vt -11.6777 -6.742126
vt -12.45782 -5.1602
vt -12.72801 -9.766546
vt -13.02479 -3.489981
vt -13.36889 -1.760048
vt -13.89391 -8.021653
vt -13.48425 7.958079E-13
vt -13.48425 19.68504
vt -14.82208 -6.139508
vt -15.49664 -4.152313
vt -15.90605 -2.094072
vt -16.04331 19.68504
vt -16.04331 7.958079E-13
vt 1.12653 -6.009281
vt -1.12653 -6.009281
vt 1.049282 -4.340737
vt -1.049282 -4.340737
vt 0.8819123 16.47136
vt 0.8046645 14.80281
vt -0.8819123 16.47136
vt -0.8046645 14.80281

usemtl stone

f 3/3/1 2/2/1 1/1/1
f 2/2/1 3/3/1 4/4/1
f 4/4/1 3/3/1 5/5/1
f 5/5/1 3/3/1 6/6/1
f 6/6/1 3/3/1 7/7/1
f 7/7/1 3/3/1 8/8/1
f 8/8/1 3/3/1 9/9/1
f 9/9/1 3/3/1 10/10/1
f 10/10/1 3/3/1 11/11/1
f 11/11/1 3/3/1 12/12/1
f 11/11/1 12/12/1 13/13/1
f 11/11/1 13/13/1 14/14/1
f 14/14/1 13/13/1 15/15/1
f 14/14/1 15/15/1 16/16/1
f 14/14/1 16/16/1 17/17/1
f 14/14/1 17/17/1 18/18/1
f 14/14/1 18/18/1 19/19/1
f 14/14/1 19/19/1 20/20/1
f 20/20/1 19/19/1 21/21/1
f 20/20/1 21/21/1 22/22/1
f 20/20/1 22/22/1 23/23/1
f 23/23/1 22/22/1 24/24/1
f 23/23/1 24/24/1 25/25/1
f 23/23/1 25/25/1 26/26/1
f 26/26/1 25/25/1 27/27/1
f 26/26/1 27/27/1 28/28/1
f 26/26/1 28/28/1 29/29/1
f 29/29/1 28/28/1 30/30/1
f 31/33/2 10/32/3 11/31/2
f 10/32/3 31/33/2 32/34/3
f 33/33/4 11/32/2 14/31/4
f 11/32/2 33/33/4 31/34/2
f 34/33/5 14/32/4 20/31/5
f 14/32/4 34/33/5 33/34/4
f 35/33/6 23/32/7 26/31/6
f 23/32/7 35/33/6 36/34/7
f 36/33/7 20/32/5 23/31/7
f 20/32/5 36/33/7 34/34/5
f 37/37/8 27/36/9 25/35/8
f 27/36/9 37/37/8 38/38/9
f 39/37/10 25/36/8 24/35/10
f 25/36/8 39/37/10 37/38/8
f 40/37/11 24/36/10 22/35/11
f 24/36/10 40/37/11 39/38/10
f 38/37/9 28/36/12 27/35/9
f 28/36/12 38/37/9 41/38/12
f 18/35/14 42/38/13 19/36/13
f 42/38/13 18/35/14 43/37/14
f 42/37/13 21/36/15 19/35/13
f 21/36/15 42/37/13 44/38/15
f 17/35/16 43/38/14 18/36/14
f 43/38/14 17/35/16 45/37/16
f 44/37/15 22/36/11 21/35/15
f 22/36/11 44/37/15 40/38/11
f 16/35/17 45/38/16 17/36/16
f 45/38/16 16/35/17 46/37/17
f 41/41/18 48/40/18 47/39/18
f 41/41/18 49/42/18 48/40/18
f 38/43/18 49/42/18 41/41/18
f 38/43/18 50/44/18 49/42/18
f 37/45/18 50/44/18 38/43/18
f 37/45/18 51/46/18 50/44/18
f 39/47/18 51/46/18 37/45/18
f 39/47/18 52/48/18 51/46/18
f 40/49/18 52/48/18 39/47/18
f 44/50/18 52/48/18 40/49/18
f 44/50/18 53/51/18 52/48/18
f 42/52/18 53/51/18 44/50/18
f 42/52/18 54/53/18 53/51/18
f 43/54/18 54/53/18 42/52/18
f 45/55/18 54/53/18 43/54/18
f 45/55/18 55/56/18 54/53/18
f 46/57/18 55/56/18 45/55/18
f 56/58/18 55/56/18 46/57/18
f 57/59/18 55/56/18 56/58/18
f 57/59/18 58/60/18 55/56/18
f 59/61/18 58/60/18 57/59/18
f 58/60/18 59/61/18 60/62/18
f 61/63/18 60/62/18 59/61/18
f 61/63/18 62/64/18 60/62/18
f 61/63/18 63/65/18 62/64/18
f 61/63/18 64/66/18 63/65/18
f 65/67/18 64/66/18 61/63/18
f 64/66/18 65/67/18 66/68/18
f 15/35/19 46/38/17 16/36/17
f 46/38/17 15/35/19 56/37/19
f 12/35/21 57/38/20 13/36/20
f 57/38/20 12/35/21 59/37/21
f 13/35/20 56/38/19 15/36/19
f 56/38/19 13/35/20 57/37/20
f 68/34/23 4/31/22 67/33/22
f 4/31/22 68/34/23 2/32/23
f 70/34/25 6/31/24 69/33/24
f 6/31/24 70/34/25 5/32/25
f 72/34/27 8/31/26 71/33/26
f 8/31/26 72/34/27 7/32/27
f 69/34/24 7/31/27 72/33/27
f 7/31/27 69/34/24 6/32/24
f 75/71/18 74/70/18 73/69/18
f 75/71/18 35/72/18 74/70/18
f 76/73/18 35/72/18 75/71/18
f 76/73/18 36/74/18 35/72/18
f 77/75/18 36/74/18 76/73/18
f 77/75/18 34/76/18 36/74/18
f 78/77/18 34/76/18 77/75/18
f 78/77/18 33/78/18 34/76/18
f 79/79/18 33/78/18 78/77/18
f 79/79/18 31/80/18 33/78/18
f 80/81/18 31/80/18 79/79/18
f 80/81/18 32/82/18 31/80/18
f 81/83/18 32/82/18 80/81/18
f 82/84/18 32/82/18 81/83/18
f 82/84/18 83/85/18 32/82/18
f 84/86/18 83/85/18 82/84/18
f 84/86/18 71/87/18 83/85/18
f 85/88/18 71/87/18 84/86/18
f 86/89/18 71/87/18 85/88/18
f 86/89/18 72/90/18 71/87/18
f 87/91/18 72/90/18 86/89/18
f 88/92/18 72/90/18 87/91/18
f 72/90/18 88/92/18 69/93/18
f 89/94/18 69/93/18 88/92/18
f 89/94/18 70/95/18 69/93/18
f 89/94/18 67/96/18 70/95/18
f 90/97/18 67/96/18 89/94/18
f 67/96/18 90/97/18 68/98/18
f 67/34/22 5/31/25 70/33/25
f 5/31/25 67/34/22 4/32/22
f 71/34/26 9/31/28 83/33/28
f 9/31/28 71/34/26 8/32/26
f 32/33/3 9/32/28 10/31/3
f 9/32/28 32/33/3 83/34/28
f 3/101/29 59/100/21 12/99/21
f 59/100/21 3/101/29 61/102/29
f 90/105/30 2/104/23 68/103/23
f 2/104/23 90/105/30 1/106/30
f 90/102/31 3/107/31 1/101/31
f 3/107/31 90/102/31 61/108/31
f 61/108/31 90/102/31 89/109/31
f 61/108/31 89/109/31 65/110/31
f 41/112/12 30/106/31 28/111/12
f 30/106/31 41/112/12 47/105/31
f 74/102/32 26/113/6 29/101/32
f 26/113/6 74/102/32 35/114/6
f 30/115/29 74/105/29 29/106/29
f 74/105/29 30/115/29 73/116/29
f 73/116/29 30/115/29 48/117/29
f 48/117/29 30/115/29 47/118/29

usemtl foliage

f 91/120/33 48/105/31 49/119/12
f 48/105/31 91/120/33 92/121/34
f 95/124/37 94/123/36 93/122/35
f 94/123/36 95/124/37 96/125/38
f 97/128/39 92/127/34 91/126/33
f 92/127/34 97/128/39 98/129/40
f 99/130/31 65/110/31 89/109/31
f 65/110/31 99/130/31 100/131/31
f 100/131/31 99/130/31 101/132/31
f 100/131/31 101/132/31 102/133/31
f 99/121/42 88/103/23 103/134/41
f 88/103/23 99/121/42 89/105/30
f 100/137/45 105/136/44 104/135/43
f 105/136/44 100/137/45 102/138/46
f 106/141/47 99/140/42 103/139/41
f 99/140/42 106/141/47 101/142/48
f 65/102/29 104/143/43 66/100/21
f 104/143/43 65/102/29 100/144/45
f 48/117/29 95/145/29 73/116/29
f 95/145/29 48/117/29 96/146/29
f 96/146/29 48/117/29 98/147/29
f 98/147/29 48/117/29 92/148/29
f 95/144/37 75/149/6 73/102/32
f 75/149/6 95/144/37 93/150/35
f 108/153/50 86/152/25 107/151/49
f 86/152/25 108/153/50 87/154/22
f 110/153/52 84/152/27 109/151/51
f 84/152/27 110/153/52 85/154/24
f 111/157/53 54/156/15 55/155/13
f 54/156/15 111/157/53 112/158/54
f 64/155/20 113/158/55 63/156/19
f 113/158/55 64/155/20 114/157/56
f 109/153/51 82/152/26 115/151/57
f 82/152/26 109/153/51 84/154/27
f 58/155/14 111/158/53 55/156/13
f 111/158/53 58/155/14 116/157/58
f 117/157/59 50/156/9 51/155/8
f 50/156/9 117/157/59 118/158/60
f 119/151/61 78/154/4 77/152/5
f 78/154/4 119/151/61 120/153/62
f 118/157/60 49/156/12 50/155/9
f 49/156/12 118/157/60 91/158/33
f 107/153/49 85/152/24 110/151/52
f 85/152/24 107/153/49 86/154/25
f 103/153/41 87/152/22 108/151/50
f 87/152/22 103/153/41 88/154/23
f 115/153/57 81/152/28 121/151/63
f 81/152/28 115/153/57 82/154/26
f 122/151/64 81/154/28 80/152/3
f 81/154/28 122/151/64 121/153/63
f 123/157/65 51/156/8 52/155/10
f 51/156/8 123/157/65 117/158/59
f 120/151/62 79/154/2 78/152/4
f 79/154/2 120/151/62 124/153/66
f 125/157/67 52/156/10 53/155/11
f 52/156/10 125/157/67 123/158/65
f 60/155/16 116/158/58 58/156/14
f 116/158/58 60/155/16 126/157/68
f 112/157/54 53/156/11 54/155/15
f 53/156/11 112/157/54 125/158/67
f 124/151/66 80/154/3 79/152/2
f 80/154/3 124/151/66 122/153/64
f 62/155/17 126/158/68 60/156/16
f 126/158/68 62/155/17 127/157/69
f 63/155/19 127/158/69 62/156/17
f 127/158/69 63/155/19 113/157/55
f 128/151/70 77/154/5 76/152/7
f 77/154/5 128/151/70 119/153/61
f 66/155/21 114/158/56 64/156/20
f 114/158/56 66/155/21 104/157/43
f 93/151/35 76/154/7 75/152/6
f 76/154/7 93/151/35 128/153/70
f 97/161/39 96/160/38 98/159/40
f 97/161/39 94/162/36 96/160/38
f 129/163/71 94/162/36 97/161/39
f 129/163/71 130/164/72 94/162/36
f 131/165/73 130/164/72 129/163/71
f 131/165/73 132/166/74 130/164/72
f 133/167/75 132/166/74 131/165/73
f 133/167/75 134/168/76 132/166/74
f 135/169/77 134/168/76 133/167/75
f 135/169/77 136/170/78 134/168/76
f 137/171/79 136/170/78 135/169/77
f 138/172/80 136/170/78 137/171/79
f 138/172/80 139/173/81 136/170/78
f 140/174/82 139/173/81 138/172/80
f 140/174/82 141/175/83 139/173/81
f 142/176/84 141/175/83 140/174/82
f 143/177/85 141/175/83 142/176/84
f 143/177/85 144/178/86 141/175/83
f 145/179/87 144/178/86 143/177/85
f 146/180/88 144/178/86 145/179/87
f 146/180/88 147/181/89 144/178/86
f 147/181/89 146/180/88 105/182/44
f 102/183/46 147/181/89 105/182/44
f 102/183/46 148/184/90 147/181/89
f 102/183/46 149/185/91 148/184/90
f 102/183/46 150/186/92 149/185/91
f 101/187/48 150/186/92 102/183/46
f 150/186/92 101/187/48 106/188/47
f 150/191/92 103/190/41 108/189/50
f 103/190/41 150/191/92 106/192/47
f 107/189/49 150/192/92 108/190/50
f 150/192/92 107/189/49 149/191/91
f 110/189/52 149/192/91 107/190/49
f 149/192/91 110/189/52 148/191/90
f 109/189/51 148/192/90 110/190/52
f 148/192/90 109/189/51 147/191/89
f 115/189/57 147/192/89 109/190/51
f 147/192/89 115/189/57 144/191/86
f 121/189/63 144/192/86 115/190/57
f 144/192/86 121/189/63 141/191/83
f 122/189/64 141/192/83 121/190/63
f 141/192/83 122/189/64 139/191/81
f 124/189/66 139/192/81 122/190/64
f 139/192/81 124/189/66 136/191/78
f 120/189/62 136/192/78 124/190/66
f 136/192/78 120/189/62 134/191/76
f 119/189/61 134/192/76 120/190/62
f 134/192/76 119/189/61 132/191/74
f 128/189/70 132/192/74 119/190/61
f 132/192/74 128/189/70 130/191/72
f 94/191/36 128/190/70 93/189/35
f 128/190/70 94/191/36 130/192/72
f 97/195/39 118/194/60 129/193/71
f 118/194/60 97/195/39 91/196/33
f 129/195/71 117/194/59 131/193/73
f 117/194/59 129/195/71 118/196/60
f 131/195/73 123/194/65 133/193/75
f 123/194/65 131/195/73 117/196/59
f 133/195/75 125/194/67 135/193/77
f 125/194/67 133/195/75 123/196/65
f 135/195/77 112/194/54 137/193/79
f 112/194/54 135/195/77 125/196/67
f 137/195/79 111/194/53 138/193/80
f 111/194/53 137/195/79 112/196/54
f 138/195/80 116/194/58 140/193/82
f 116/194/58 138/195/80 111/196/53
f 140/195/82 126/194/68 142/193/84
f 126/194/68 140/195/82 116/196/58
f 142/195/84 127/194/69 143/193/85
f 127/194/69 142/195/84 126/196/68
f 143/195/85 113/194/55 145/193/87
f 113/194/55 143/195/85 127/196/69
f 146/195/88 104/194/43 105/193/44
f 104/194/43 146/195/88 114/196/56
f 145/195/87 114/194/56 146/193/88
f 114/194/56 145/195/87 113/196/55

