# Created by Kenney (www.kenney.nl)

mtllib overhang.mtl

g overhang

v 0.4 0.67 -0.425
v 0.4 0.67 -0.475
v 0.17 0.9 -0.425
v 0.17 0.9 -0.475
v 0.165 1 0.4
v 0.14 1 0.4
v 0.165 0.9499999 0.4
v 0.14 0.9 0.4
v 0.4 0.9 0.4
v 0.4 0.9499999 0.4
v 0.4 1 0.4
v 0.4 1 0.5
v 0.4 0.9 0.5
v 0.425 1 -0.4
v 0.425 0.9499999 -0.4
v 0.425 1 0.4
v 0.425 0.9499999 0.4
v 0.14 1 0.5
v 0.165 1 -0.4
v 0.14 1 -0.5
v 0.14 1 -0.4
v 0.4 1 -0.4
v 0.4 1 -0.5
v 0.14 0.9 0.5
v 0.4 0.67 0.475
v 0.17 0.9 0.475
v 0.4 0.7407107 0.475
v 0.2407107 0.9 0.475
v 0.4 0.9 -0.5
v 0.4 0.9 -0.4
v 0.4 0.9499999 -0.4
v 0.4 0.7407107 -0.475
v 0.4 0.7407107 -0.425
v 0.4 0.67 0.425
v 0.17 0.9 0.425
v 0.2407107 0.9 -0.475
v 0.14 0.9 -0.5
v 0.4 0.7407107 0.425
v 0.2407107 0.9 0.425
v 0.2407107 0.9 -0.425
v 0.14 0.9 -0.4
v 0.165 0.9499999 -0.4

vn -0.7071068 -0.7071068 0
vn 0 0 -1
vn 1 0 0
vn 0 1 0
vn -1 0 0
vn 0 0 1
vn 0.7071068 0.7071068 0
vn 0 -1 0

vt -16.73228 7.516489
vt -18.70079 7.516489
vt -16.73228 20.32236
vt -18.70079 20.32236
vt -6.496063 39.37008
vt -5.511811 39.37008
vt -6.496063 37.40157
vt -5.511811 35.43307
vt -15.74803 35.43307
vt -15.74803 37.40157
vt -15.74803 39.37008
vt -19.68504 39.37008
vt -19.68504 35.43307
vt 15.74803 39.37008
vt 15.74803 37.40157
vt -5.511811 15.74803
vt -6.496063 15.74803
vt -5.511811 19.68504
vt -15.74803 19.68504
vt -6.496063 -15.74803
vt -5.511811 -19.68504
vt -5.511811 -15.74803
vt -15.74803 15.74803
vt -15.74803 -15.74803
vt -15.74803 -19.68504
vt -16.73228 15.74803
vt -16.73228 -15.74803
vt 15.74803 35.43307
vt 19.68504 35.43307
vt 19.68504 39.37008
vt 15.74803 26.37795
vt 6.692914 35.43307
vt 15.74803 29.16184
vt 9.476798 35.43307
vt 18.70079 29.16184
vt 18.70079 26.37795
vt 16.73228 29.16184
vt 16.73228 26.37795
vt 16.73228 37.40157
vt 16.73228 39.37008
vt 18.70079 7.516489
vt 16.73228 7.516489
vt 18.70079 20.32236
vt 16.73228 20.32236
vt -15.74803 26.37795
vt -15.74803 29.16184
vt -6.692914 35.43307
vt -9.476798 35.43307
vt -16.73228 9.484993
vt -18.70079 9.484993
vt -16.73228 18.35386
vt -18.70079 18.35386
vt -16.73228 29.16184
vt -16.73228 26.37795
vt -18.70079 29.16184
vt -18.70079 26.37795
vt 5.511811 35.43307
vt 6.496063 37.40157
vt 5.511811 39.37008
vt 6.496063 39.37008
vt -16.73228 37.40157
vt -16.73228 39.37008
vt 18.70079 9.484993
vt 16.73228 9.484993
vt 18.70079 18.35386
vt 16.73228 18.35386
vt 15.74803 -19.68504
vt 9.476798 -16.73228
vt 15.74803 -15.74803
vt 5.511811 -15.74803
vt 9.476798 -18.70079
vt 6.692914 -16.73228
vt 5.511811 -19.68504
vt 6.692914 -18.70079
vt 15.74803 15.74803
vt 9.476798 18.70079
vt 15.74803 19.68504
vt 5.511811 19.68504
vt 9.476798 16.73228
vt 6.692914 18.70079
vt 5.511811 15.74803
vt 6.692914 16.73228
vt 16.73228 15.74803
vt 16.73228 -15.74803
vt 6.496063 15.74803
vt 6.496063 -15.74803

usemtl wood

f 3/3/1 2/2/1 1/1/1
f 2/2/1 3/3/1 4/4/1
f 7/7/2 6/6/2 5/5/2
f 7/7/2 8/8/2 6/6/2
f 8/8/2 7/7/2 9/9/2
f 10/10/2 9/9/2 7/7/2
f 12/12/3 10/10/3 11/11/3
f 10/10/3 12/12/3 9/9/3
f 9/9/3 12/12/3 13/13/3
f 16/11/3 15/15/3 14/14/3
f 15/15/3 16/11/3 17/10/3
f 18/18/4 5/17/4 6/16/4
f 12/19/4 5/17/4 18/18/4
f 5/17/4 12/19/4 19/20/4
f 12/19/4 20/21/4 19/20/4
f 19/20/4 20/21/4 21/22/4
f 11/23/4 20/21/4 12/19/4
f 22/24/4 20/21/4 11/23/4
f 20/21/4 22/24/4 23/25/4
f 16/26/4 22/24/4 11/23/4
f 22/24/4 16/26/4 14/27/4
f 24/29/5 6/14/5 8/28/5
f 6/14/5 24/29/5 18/30/5
f 27/33/6 26/32/6 25/31/6
f 26/32/6 27/33/6 28/34/6
f 22/14/3 29/29/3 23/30/3
f 29/29/3 22/14/3 30/28/3
f 30/28/3 22/14/3 31/15/3
f 33/37/3 2/36/3 32/35/3
f 2/36/3 33/37/3 1/38/3
f 16/40/6 10/15/6 17/39/6
f 10/15/6 16/40/6 11/14/6
f 26/43/1 34/42/1 25/41/1
f 34/42/1 26/43/1 35/44/1
f 4/47/2 32/46/2 2/45/2
f 32/46/2 4/47/2 36/48/2
f 20/6/2 29/9/2 37/8/2
f 29/9/2 20/6/2 23/11/2
f 39/51/7 27/50/7 38/49/7
f 27/50/7 39/51/7 28/52/7
f 33/33/6 3/32/6 1/31/6
f 3/32/6 33/33/6 40/34/6
f 27/55/3 34/54/3 38/53/3
f 34/54/3 27/55/3 25/56/3
f 31/15/6 41/57/6 30/28/6
f 41/57/6 31/15/6 42/58/6
f 41/57/6 42/58/6 21/59/6
f 21/59/6 42/58/6 19/60/6
f 7/15/5 19/11/5 42/10/5
f 19/11/5 7/15/5 5/14/5
f 12/14/6 24/57/6 13/28/6
f 24/57/6 12/14/6 18/59/6
f 41/9/5 20/12/5 37/13/5
f 20/12/5 41/9/5 21/11/5
f 22/11/2 15/61/2 31/10/2
f 15/61/2 22/11/2 14/62/2
f 36/65/7 33/64/7 32/63/7
f 33/64/7 36/65/7 40/66/7
f 35/47/2 38/46/2 34/45/2
f 38/46/2 35/47/2 39/48/2
f 30/69/8 40/68/8 29/67/8
f 40/68/8 30/69/8 41/70/8
f 36/71/8 29/67/8 40/68/8
f 40/68/8 41/70/8 3/72/8
f 29/67/8 36/71/8 37/73/8
f 3/72/8 41/70/8 4/74/8
f 37/73/8 36/71/8 4/74/8
f 37/73/8 4/74/8 41/70/8
f 13/77/8 28/76/8 9/75/8
f 28/76/8 13/77/8 24/78/8
f 39/79/8 9/75/8 28/76/8
f 28/76/8 24/78/8 26/80/8
f 9/75/8 39/79/8 8/81/8
f 26/80/8 24/78/8 35/82/8
f 8/81/8 39/79/8 35/82/8
f 8/81/8 35/82/8 24/78/8

usemtl woodDark

f 10/75/8 15/84/8 17/83/8
f 15/84/8 10/75/8 31/69/8
f 31/69/8 10/75/8 7/85/8
f 31/69/8 7/85/8 42/86/8

