# Created by Kenney (www.kenney.nl)

mtllib pillarStone.mtl

g pillarStone

v 0.08 -1.263345E-15 -0.05
v 0.08 0.2 -0.05
v 0.05 0 -0.08000001
v 0.05 0.2 -0.08000001
v -0.05 0 -0.08
v -0.05 0.2 -0.08
v 0.08 1.263345E-15 0.05
v 0.05 1.263345E-15 0.08
v 0.08 0.2 0.05
v 0.05 0.2 0.08
v -0.08 0 -0.05
v -0.08 0.2 -0.05
v -0.08 0 0.05
v -0.08 0.2 0.05
v -0.05 1.263345E-15 0.08
v -0.05 0.2 0.08
v -0.08 0.9 -0.05
v -0.08 1 -0.05
v -0.08 0.9 0.05
v -0.08 1 0.05
v 0.08 1 -0.05
v 0.08 1 0.05
v 0.05 1 -0.08000001
v 0.05 1 0.08
v -0.05 1 -0.08
v -0.05 1 0.08
v -0.05 0.2 0.05
v -0.05 0.2 -0.05
v 0.05 0.2 0.05
v 0.05 0.2 -0.05
v -0.08 0.3381664 0.05
v -0.08 0.4381664 0.05
v -0.05 0.3381664 0.08
v -0.05 0.4381664 0.08
v 0.05 0.9 0.08
v -0.05 0.9 0.08
v 0.08 0.3381664 0.05
v 0.05 0.3381664 0.08
v 0.08 0.4381664 0.05
v 0.05 0.4381664 0.08
v -0.08 0.3381664 -0.05
v -0.08 0.4381664 -0.05
v -0.05 0.3381664 -0.08
v -0.05 0.4381664 -0.08
v 0.08 0.3381664 -0.05
v 0.05 0.3381664 -0.08000001
v 0.05 0.3381664 -0.05
v 0.05 0.3381664 0.05
v -0.05 0.3381664 0.05
v -0.05 0.3381664 -0.05
v -0.05 0.4381664 0.05
v -0.05 0.4381664 -0.05
v 0.05 0.4381664 0.05
v 0.05 0.4381664 -0.05
v 0.05 0.4381664 -0.08000001
v 0.08 0.4381664 -0.05
v 0.08 0.9 -0.05
v 0.05 0.9 -0.08000001
v 0.08 0.9 0.05
v 0.05 0.9 -0.05
v -0.05 0.9 -0.08
v 0.05 0.9 0.05
v -0.05 0.9 0.05
v -0.05 0.9 -0.05

vn 0.7071068 0 -0.7071068
vn 0 0 -1
vn 0.7071068 0 0.7071068
vn 1 0 0
vn -1 0 0
vn -0.7071068 0 0.7071068
vn -0.7071068 0 -0.7071068
vn 0 0 1
vn 0 1 0
vn 0 -1 0

vt -0.8351655 -4.973799E-14
vt -0.8351655 7.874016
vt 0.8351655 0
vt 0.8351655 7.874016
vt 1.968504 -1.646314E-36
vt -1.968504 -1.646314E-36
vt 1.968504 7.874016
vt -1.968504 7.874016
vt 0.8351655 4.973799E-14
vt -0.8351654 4.973799E-14
vt -0.8351654 7.874016
vt 1.968504 7.874016
vt 1.968504 -4.973799E-14
vt -1.968504 4.973799E-14
vt -1.968504 0
vt 1.968504 0
vt 1.968504 7.874016
vt -0.8351655 0
vt -1.968504 35.43307
vt -1.968504 39.37008
vt 1.968504 35.43307
vt 1.968504 39.37008
vt 0.8351655 -1.605888E-42
vt -0.8351655 -1.605888E-42
vt 1.968504 4.973799E-14
vt -3.149606 -1.968504
vt -3.149606 1.968504
vt -1.968504 -3.149606
vt -1.968504 3.149606
vt 1.968504 -3.149606
vt 1.968504 3.149606
vt 3.149606 -1.968504
vt 3.149606 1.968504
vt 3.149606 -1.968504
vt 1.968504 -3.149606
vt -1.968504 -3.149606
vt -3.149606 -1.968504
vt 1.968504 1.968504
vt 1.968504 -1.968504
vt -1.968504 1.968504
vt -1.968504 -1.968504
vt -0.8351655 13.31364
vt -0.8351655 17.25064
vt 0.8351655 13.31364
vt 0.8351655 17.25064
vt -0.8351655 35.43307
vt -0.8351655 39.37008
vt 0.8351655 35.43307
vt 0.8351655 39.37008
vt -0.8351654 13.31364
vt -0.8351654 17.25064
vt -1.968504 13.31364
vt -1.968504 17.25064
vt 1.968504 13.31364
vt 1.968504 17.25064
vt -0.8351654 35.43307
vt -0.8351654 39.37008
vt 1.968504 13.31364
vt 1.968504 17.25064
vt 1.968504 39.37008
vt 1.968504 35.43307
vt 1.968504 17.25064
vt 1.968504 13.31364
vt 1.968504 35.43307
vt 1.968504 39.37008

usemtl stoneDark

f 3/3/1 2/2/1 1/1/1
f 2/2/1 3/3/1 4/4/1
f 6/7/2 3/6/2 5/5/2
f 3/6/2 6/7/2 4/8/2
f 9/4/3 8/10/3 7/9/3
f 8/10/3 9/4/3 10/11/3
f 9/8/4 1/13/4 2/12/4
f 1/13/4 9/8/4 7/14/4
f 13/16/5 12/8/5 11/15/5
f 12/8/5 13/16/5 14/17/5
f 15/9/6 14/2/6 13/18/6
f 14/2/6 15/9/6 16/4/6
f 19/21/5 18/20/5 17/19/5
f 18/20/5 19/21/5 20/22/5
f 12/4/7 5/24/7 11/23/7
f 5/24/7 12/4/7 6/2/7
f 10/17/8 15/14/8 8/25/8
f 15/14/8 10/17/8 16/8/8
f 23/28/9 22/27/9 21/26/9
f 22/27/9 23/28/9 24/29/9
f 24/29/9 23/28/9 25/30/9
f 24/29/9 25/30/9 26/31/9
f 26/31/9 25/30/9 18/32/9
f 26/31/9 18/32/9 20/33/9
f 7/33/10 3/35/10 1/34/10
f 3/35/10 7/33/10 8/31/10
f 3/35/10 8/31/10 5/36/10
f 5/36/10 8/31/10 15/29/10
f 5/36/10 15/29/10 11/37/10
f 11/37/10 15/29/10 13/27/10
f 16/31/9 12/32/9 14/33/9
f 27/38/9 12/32/9 16/31/9
f 10/29/9 27/38/9 16/31/9
f 28/39/9 12/32/9 27/38/9
f 28/39/9 6/30/9 12/32/9
f 10/29/9 29/40/9 27/38/9
f 30/41/9 6/30/9 28/39/9
f 10/29/9 30/41/9 29/40/9
f 6/30/9 30/41/9 4/28/9
f 10/29/9 4/28/9 30/41/9
f 9/27/9 4/28/9 10/29/9
f 4/28/9 9/27/9 2/26/9
f 33/44/6 32/43/6 31/42/6
f 32/43/6 33/44/6 34/45/6
f 24/22/8 36/19/8 35/21/8
f 36/19/8 24/22/8 26/20/8
f 36/48/6 20/47/6 19/46/6
f 20/47/6 36/48/6 26/49/6
f 39/45/3 38/50/3 37/44/3
f 38/50/3 39/45/3 40/51/3
f 31/54/5 42/53/5 41/52/5
f 42/53/5 31/54/5 32/55/5
f 42/45/7 43/42/7 41/44/7
f 43/42/7 42/45/7 44/43/7
f 37/33/10 46/35/10 45/34/10
f 46/35/10 37/33/10 38/31/10
f 46/35/10 38/31/10 47/39/10
f 46/35/10 47/39/10 43/36/10
f 47/39/10 38/31/10 48/38/10
f 33/29/10 48/38/10 38/31/10
f 48/38/10 33/29/10 49/40/10
f 49/40/10 33/29/10 31/27/10
f 43/36/10 47/39/10 50/41/10
f 49/40/10 31/27/10 50/41/10
f 43/36/10 50/41/10 41/37/10
f 41/37/10 50/41/10 31/27/10
f 34/31/9 42/32/9 32/33/9
f 51/38/9 42/32/9 34/31/9
f 40/29/9 51/38/9 34/31/9
f 52/39/9 42/32/9 51/38/9
f 52/39/9 44/30/9 42/32/9
f 40/29/9 53/40/9 51/38/9
f 54/41/9 44/30/9 52/39/9
f 40/29/9 54/41/9 53/40/9
f 44/30/9 54/41/9 55/28/9
f 40/29/9 55/28/9 54/41/9
f 39/27/9 55/28/9 40/29/9
f 55/28/9 39/27/9 56/26/9
f 59/33/10 58/35/10 57/34/10
f 58/35/10 59/33/10 35/31/10
f 58/35/10 35/31/10 60/39/10
f 58/35/10 60/39/10 61/36/10
f 60/39/10 35/31/10 62/38/10
f 36/29/10 62/38/10 35/31/10
f 62/38/10 36/29/10 63/40/10
f 63/40/10 36/29/10 19/27/10
f 61/36/10 60/39/10 64/41/10
f 63/40/10 19/27/10 64/41/10
f 61/36/10 64/41/10 17/37/10
f 17/37/10 64/41/10 19/27/10
f 22/49/3 35/56/3 59/48/3
f 35/56/3 22/49/3 24/57/3
f 44/59/2 46/52/2 43/58/2
f 46/52/2 44/59/2 55/53/2
f 58/48/1 21/47/1 57/46/1
f 21/47/1 58/48/1 23/49/1
f 46/44/1 56/43/1 45/42/1
f 56/43/1 46/44/1 55/45/1
f 40/55/8 33/52/8 38/54/8
f 33/52/8 40/55/8 34/53/8
f 22/20/4 57/61/4 21/60/4
f 57/61/4 22/20/4 59/19/4
f 39/53/4 45/63/4 56/62/4
f 45/63/4 39/53/4 37/52/4
f 18/49/7 61/46/7 17/48/7
f 61/46/7 18/49/7 25/47/7
f 25/65/2 58/19/2 61/64/2
f 58/19/2 25/65/2 23/20/2

usemtl stone

f 27/17/5 50/52/5 28/8/5
f 50/52/5 27/17/5 49/54/5
f 62/19/4 54/55/4 60/21/4
f 54/55/4 62/19/4 53/53/4
f 48/52/4 30/17/4 47/54/4
f 30/17/4 48/52/4 29/8/4
f 51/55/5 64/19/5 52/53/5
f 64/19/5 51/55/5 63/21/5
f 50/54/2 30/8/2 28/17/2
f 30/8/2 50/54/2 47/52/2
f 62/21/8 51/53/8 53/55/8
f 51/53/8 62/21/8 63/19/8
f 64/21/2 54/53/2 52/55/2
f 54/53/2 64/21/2 60/19/2
f 48/54/8 27/8/8 29/17/8
f 27/8/8 48/54/8 49/52/8

