# Created by Kenney (www.kenney.nl)

mtllib roadSlope.mtl

g roadSlope

v 0.5 0.025 -0.5
v 0.5 0 -0.5
v 0.5 0.225 0.5
v 0.5 0 0.5
v -0.5 0 0.5
v -0.5 0.225 0.5
v -0.5 0 -0.5
v -0.5 0.025 -0.5

vn 1 0 0
vn 0 0 1
vn -1 0 0
vn 0 0 -1
vn 0 0.9805807 -0.1961161
vn 0 -1 0

vt 19.68504 0.984252
vt 19.68504 0
vt -19.68504 8.858268
vt -19.68504 0
vt 19.68504 2.526374E-13
vt -19.68504 2.526374E-13
vt 19.68504 8.858268
vt -19.68504 0.984252
vt -19.68504 -19.10974
vt -19.68504 21.04002
vt 19.68504 -19.10974
vt 19.68504 21.04002
vt 19.68504 19.68504
vt 19.68504 -19.68504
vt -19.68504 19.68504
vt -19.68504 -19.68504

usemtl stone

f 3/3/1 2/2/1 1/1/1
f 2/2/1 3/3/1 4/4/1
f 3/7/2 5/6/2 4/5/2
f 5/6/2 3/7/2 6/3/2
f 5/2/3 8/8/3 7/4/3
f 8/8/3 5/2/3 6/7/3
f 8/1/4 2/4/4 7/2/4
f 2/4/4 8/1/4 1/8/4
f 8/11/5 3/10/5 1/9/5
f 3/10/5 8/11/5 6/12/5
f 5/15/6 2/14/6 4/13/6
f 2/14/6 5/15/6 7/16/6

