# Created by Kenney (www.kenney.nl)

mtllib roadCurbEnd.mtl

g roadCurbEnd

v -2.598881E-14 0.025 0.215
v 0.5 0.0125 0.215
v 0.5 0.025 0.215
v 0.5 0 0.5
v -0.5 0 0.5
v 0.5 0.025 0.5
v -0.5 0.025 0.5
v 0.5 -1.639515E-19 0.125
v 0.5 0.0125 0.125
v 0.5 0 -0.5
v 6.641585E-14 0 -0.5
v -0.5 0 -0.5
v -0.5 0.025 -0.5
v 6.064056E-14 0.025 -0.5
v -2.598881E-14 0.025 0.125
v 0.5 0.025 0.125
v 0.5 0.05 0.035
v -2.396746E-13 0.05 0.035
v 0.5 0.05 -0.5
v 6.064056E-14 0.05 -0.5

vn 0 0 -1
vn 0 0 1
vn 1 0 0
vn 0 -1 0
vn -1 0 0
vn 0 1 0
vn 0.008331309 0.9999653 0
vn 0.006248414 0.9999804 0
vn 0.02499219 0.9996877 0
vn 0 0.963518 0.2676439
vn 0 0.9908375 0.1350594

vt 1.023182E-12 0.984252
vt -19.68504 0.492126
vt -19.68504 0.984252
vt 19.68504 0
vt -19.68504 0
vt 19.68504 0.984252
vt -8.464567 0.9842474
vt -8.464567 0.4921214
vt -19.68504 0.9842474
vt -19.68504 -4.575175E-06
vt -4.92126 -4.575175E-06
vt -4.92126 0.4921214
vt 19.68504 -19.68504
vt 2.614797E-12 -19.68504
vt 19.68504 4.92126
vt 19.68504 19.68504
vt -19.68504 19.68504
vt -19.68504 -19.68504
vt 3.946624E-14 0
vt 2.668399E-13 0.984252
vt -2.387424E-12 -19.68504
vt 1.023182E-12 4.92126
vt 1.023182E-12 8.464567
vt -19.68504 8.464567
vt -4.921258 -19.66659
vt -8.464566 -19.66659
vt -4.92126 0.02459832
vt -8.464567 0.02459811
vt 19.68504 0.492126
vt -3.694822E-13 0.984252
vt 19.68504 -4.478293
vt -3.695494E-13 -4.478293
vt 19.68504 -0.8008242
vt -9.252991E-12 -0.8008242
vt -19.68504 1.377953
vt 9.436008E-12 1.377953
vt 19.68504 1.968504
vt 19.68504 -4.690296E-11
vt -1.377953 1.968504
vt -4.92126 0.984252
vt -4.92126 0.492126
vt -19.68504 1.968504
vt 2.668399E-13 1.968504
vt 4.92126 0.984252
vt 1.377953 1.968504

usemtl stone

f 3/3/1 2/2/1 1/1/1
f 6/6/2 5/5/2 4/4/2
f 5/5/2 6/6/2 7/3/2
f 6/9/3 2/8/3 3/7/3
f 4/10/3 2/8/3 6/9/3
f 8/11/3 2/8/3 4/10/3
f 2/8/3 8/11/3 9/12/3
f 8/15/4 11/14/4 10/13/4
f 11/14/4 8/15/4 4/16/4
f 11/14/4 4/16/4 5/17/4
f 11/14/4 5/17/4 12/18/4
f 5/4/5 13/3/5 12/5/5
f 13/3/5 5/4/5 7/6/5
f 13/6/1 11/19/1 12/4/1
f 11/19/1 13/6/1 14/20/1
f 13/13/6 15/22/7 14/21/6
f 15/22/7 13/13/6 1/23/8
f 7/16/6 1/23/8 13/13/6
f 7/16/6 3/24/6 1/23/8
f 3/24/6 7/16/6 6/17/6
f 15/27/7 2/26/9 9/25/9
f 2/26/9 15/27/7 1/28/8

usemtl stoneDark

f 15/30/2 9/29/2 16/6/2
f 17/33/11 15/32/10 16/31/10
f 15/32/10 17/33/11 18/34/11
f 20/21/6 17/35/11 19/18/6
f 17/35/11 20/21/6 18/36/11
f 17/39/3 10/38/3 19/37/3
f 10/38/3 17/39/3 8/11/3
f 8/11/3 17/39/3 16/40/3
f 8/11/3 16/40/3 9/41/3
f 14/20/1 10/5/1 11/19/1
f 10/5/1 14/20/1 19/42/1
f 19/42/1 14/20/1 20/43/1
f 15/44/5 20/42/5 14/3/5
f 20/42/5 15/44/5 18/45/5

