# Created by Kenney (www.kenney.nl)

mtllib rockLarge.mtl

g rockLarge

v 0.2064383 0.7618666 0.08837507
v 0.2696069 0.603614 0.0616921
v 0.2522673 0.7618666 0.08837507
v -0.4286817 0.5256879 -0.4819706
v -0.4611765 0.08722559 -0.7033932
v -0.2713904 0.5256879 -0.5962495
v -0.3577095 0.5256879 0.04151648
v -0.2152936 1.1628 -0.1647598
v -0.2152936 1.1628 0.06764276
v -0.5887498 0.2754605 0.2348184
v -0.4611765 0.2754605 0.4544727
v -0.7105953 0.1377302 0.3573996
v 0.3877369 0.4341808 -0.4390844
v 0.5578044 0.1377302 -0.566622
v 0.5368547 0.4341808 -0.2484858
v 0.3165923 0.7618666 0.286347
v 0.4507641 0.1377302 0.3835785
v 0.2785353 0.7618666 0.4034744
v -0.3684253 0.2754605 -0.01663575
v -0.3896502 0.2754605 0.04868761
v -0.5070474 0.2754605 -0.01663575
v -0.320848 0.2754605 0.5564274
v -0.2060857 0.2754605 0.3780964
v -0.1407411 0.2754605 0.4255721
v -0.1545532 0.2754605 0.2194956
v -0.07435605 0.7618666 0.2187129
v -0.1198522 0.7618666 0.3587357
v -0.02365619 0.7618666 0.2555485
v -0.02365619 1.1628 0.2068755
v 0.3220777 0.4341808 0.04413893
v 0.2975426 0.4341808 0.06196474
v 0.2290719 1.1628 0.02325782
v -0.6144649 0 -0.2955639
v -0.4793958 0.5256879 -0.3258888
v -0.4621714 2.591244E-18 -0.1849162
v -0.3537288 0.092121 -0.1286389
v -0.2843713 0.5256879 -0.1841952
v -0.2301125 0.5256879 -0.3511867
v -0.1798507 1.1628 -0.2738418
v 0.006361895 0.3545556 -0.371962
v 0.0366124 0.4341808 -0.3622956
v -0.02765055 0.5256879 -0.3511867
v 0.1900191 0.4341808 -0.3622956
v 0.1325383 1.1628 -0.2738418
v -0.02379896 0 -0.7247078
v 0.008313562 0 -0.6258757
v -0.1072763 0.5256879 -0.5962495
v -0.009425815 0.1802618 -0.5483242
v 0.1101303 0 0.6542861
v -0.0568953 2.591244E-18 0.532935
v 0.1101303 0.7618666 0.5258278
v -0.6164027 5.182487E-18 -0.1849162
v -0.4750276 0 -0.7247078
v 0.4751819 0 0.3890606
v -0.320848 5.182487E-18 0.7247078
v 0.3274473 0.4341808 0.154002
v 0.4342793 7.97052E-21 0.2631753
v -0.7990655 5.182487E-18 0.3772624
v 0.5963098 0 -0.6258757
v 0.7990655 0 -0.001857442
v 0.6026616 0.4341808 -0.04595288
v 0.06156256 0.4341808 -0.4390844

vn 0 0.1662632 -0.9860814
vn -0.5355897 0.4119652 -0.7371759
vn -0.9533455 0.1239898 -0.2752431
vn -0.9697325 0.1559344 -0.1878916
vn -0.9759153 0.2181497 0
vn -0.550337 0.7713398 0.319631
vn 0.6400954 0.5826564 -0.5007887
vn 0.9220955 0.2448992 0.299607
vn 0 1 0
vn -0.9396467 0.1544348 -0.3053097
vn -0.5849708 0.09774375 0.8051431
vn 0.5849708 0.09774375 0.8051431
vn -0.5766253 0.1939398 0.7936566
vn -0.9450901 0.1118372 -0.3070784
vn 0 0.1205144 -0.9927117
vn 0.9275539 0.2209382 -0.3013805
vn 0.9450901 0.1118372 -0.3070784
vn -0.5823919 0.1351567 0.8015937
vn 0 0.5213225 -0.8533597
vn 0 0.2373779 -0.9714174
vn -0.9275539 0.2209382 -0.3013805
vn 0.5823919 0.1351567 0.8015937
vn 0.526941 0.443073 0.7252721
vn 0.9396467 0.1544348 -0.3053097
vn -0.526941 0.443073 0.7252721
vn -0.8275558 0.4927981 -0.2688892
vn 0 -1 0
vn 0.5551224 0.3287106 0.7640604
vn -0.8833893 0.370455 -0.2870306
vn 0 0.3951948 -0.9185973
vn 0.8833893 0.370455 -0.2870306

vt -8.127493 30.15575
vt -10.61445 23.83739
vt -9.931784 30.15575
vt 2.500613 8.447565
vt -1.588367 -10.49702
vt -5.153825 8.447565
vt 1.634507 17.12569
vt -6.486606 42.82788
vt 2.663101 42.82788
vt -3.646946 -12.13997
vt 6.353595 -12.13997
vt -1.882944 -20.66016
vt 4.208757 0.6807739
vt 4.037674 -13.68002
vt -5.318795 0.6807739
vt -6.870071 25.32512
vt -8.878388 -0.01894114
vt -11.71869 25.32512
vt 14.50494 -0.6549506
vt 15.34056 1.916835
vt 19.9625 -0.6549506
vt 18.15656 17.89263
vt 23.17913 9.244818
vt 12.63181 21.90659
vt 8.113612 14.88568
vt 5.540987 16.75481
vt 6.084773 8.641558
vt 9.093922 29.61586
vt 14.89033 29.61586
vt 10.09891 10.23349
vt 16.66437 10.23349
vt 5.160212 29.00203
vt 2.692949 29.00203
vt 4.033863 44.86275
vt -5.291999 44.86275
vt -10.43269 19.65892
vt 0.1566956 9.760044
vt -11.28409 9.760044
vt 9.237091 16.14596
vt 8.043113 16.14596
vt 6.757969 44.96977
vt 7.159642 22.84865
vt 4.530179 29.10904
vt -6.667161 29.10904
vt -5.540812 44.96977
vt -26.41105 -0.9319587
vt -22.81071 20.16497
vt -18.99982 -0.9319587
vt -14.24349 2.765046
vt -13.32002 20.16497
vt -10.34999 19.1251
vt -8.065438 44.36661
vt -3.437184 19.1251
vt -3.549862 44.36661
vt -0.513176 1.947777
vt 5.906411 19.1251
vt 3.859376 9.211434
vt 6.563512 9.211434
vt -0.2504683 12.09231
vt -1.441433 15.25018
vt 1.088604 18.87927
vt -7.481067 15.25018
vt -5.218045 44.14658
vt 9.059546 18.87927
vt 7.080737 44.14658
vt 27.4249 -1.751091
vt 23.33362 -1.751091
vt 23.6306 19.4697
vt 20.64567 5.525654
vt 13.48594 19.4697
vt 13.85004 12.56149
vt 11.25372 15.69784
vt -5.571106 15.69784
vt 8.641042 44.56473
vt -3.65774 44.56473
vt 18.6487 -2.472175
vt 10.52055 -2.472175
vt 15.67603 27.80035
vt 5.365475 8.473158
vt 4.484137 27.80035
vt 2.185535 8.473158
vt 18.19572 -3.795314
vt 13.92633 0.4547239
vt 24.26782 -3.795314
vt 19.9625 8.913161
vt 14.50494 8.913161
vt 1.088604 -13.82625
vt 9.059546 -13.82625
vt 4.223475 -23.47439
vt 10.68466 -23.47439
vt 11.19572 -7.25178
vt 16.87723 -18.97522
vt 18.87385 -12.83027
vt 18.70187 -6.772819
vt 0.936967 -6.772819
vt 18.15656 -3.237697
vt 4.223475 14.53252
vt 10.68466 14.53252
vt -21.35616 -5.877696
vt -20.72659 -2.356604
vt -3.591254 -5.877696
vt -12.83116 15.34309
vt -6.369969 15.34309
vt 6.131738 -3.16108
vt -11.63317 -3.16108
vt 5.480868 2.311586
vt -8.660495 27.11144
vt -0.4652175 27.11144
vt -14.14491 -6.937603
vt -26.98992 -6.937603
vt -14.33098 5.159525
vt -23.09572 5.159525
vt -12.46426 11.27351
vt -10.96596 15.88482
vt -9.931784 3.479333
vt -4.335838 20.70188
vt -8.127493 3.479333
vt 0.9313459 10.06096
vt 4.718592 14.12346
vt 2.927404 8.610744
vt -5.589993 22.03613
vt -5.940066 15.28453
vt -6.378133 28.3422
vt -9.750054 15.28453
vt -14.57341 28.3422
vt -15.13757 -2.016764
vt -20.34874 -2.016764
vt -19.8464 3.471529
vt 6.551226 -13.51705
vt -16.7208 -13.51705
vt 2.657022 -1.419923
vt -14.36258 -7.468488
vt -4.171939 -1.419923
vt 0.5753215 -12.48246
vt 5.545856 -0.01911457
vt 23.84735 -12.48246
vt 15.95509 -0.01911457
vt 22.02729 -6.250786
vt -9.018578 0.9156622
vt 0.9313459 8.144705
vt -5.218045 -10.78117
vt 7.080737 -10.78117
vt 8.476127 2.663101
vt 8.476127 -6.486606
vt 18.70795 15.31735
vt 17.09761 10.36123
vt 4.335838 25.7593
vt 0.3273056 -24.64077
vt -2.239972 20.98169
vt 23.47676 -24.64077
vt 31.45927 -0.07312765
vt -0.936967 -28.5318
vt -18.70187 -28.5318
vt -12.63181 28.5318
vt -18.19572 -7.280165
vt -24.19153 -11.63637
vt -31.45927 14.85285
vt -24.26782 -7.280165
vt 25.49407 -6.058839
vt 7.742077 -6.058839
vt 20.25882 12.04067
vt 6.865761 12.04067
vt -20.41632 3.989955
vt -17.18968 14.75252
vt -14.00484 11.37754
vt -14.01092 14.75252
vt -23.72684 -1.809169
vt -12.89163 6.063071
vt -21.13601 -9.782906
vt -15.26523 -17.28679
vt -12.68022 1.737753
vt -11.71428 2.439557
vt -7.481067 -14.26361
vt -2.423723 -17.28679
vt -1.441433 -14.26361
vt -0.3273056 -9.737905
vt -23.47676 -9.737905
vt 0.3710951 -2.012082
vt -21.9608 -3.834937
vt -15.26523 8.87061
vt -2.423723 8.87061
vt 16.18005 -11.09222
vt -9.651902 -11.09222
vt 14.42986 -5.254409
vt 2.77271 7.310889
vt -5.611373 7.310889

usemtl stone

f 3/3/1 2/2/1 1/1/1
f 6/6/2 5/5/2 4/4/2
f 9/9/5 8/8/4 7/7/3
f 12/12/6 11/11/6 10/10/6
f 15/15/7 14/14/7 13/13/7
f 18/18/8 17/17/8 16/16/8
f 21/21/9 20/20/9 19/19/9
f 20/20/9 21/21/9 11/22/9
f 11/22/9 21/21/9 10/23/9
f 22/24/9 20/20/9 11/22/9
f 23/25/9 20/20/9 22/24/9
f 22/24/9 24/26/9 23/25/9
f 20/20/9 23/25/9 25/27/9
f 25/30/10 27/29/10 26/28/10
f 27/29/10 25/30/10 23/31/10
f 29/34/11 26/33/11 28/32/11
f 9/35/11 26/33/11 29/34/11
f 7/36/11 26/33/11 9/35/11
f 7/36/11 25/37/11 26/33/11
f 25/37/11 7/36/11 20/38/11
f 32/41/12 31/40/12 30/39/12
f 31/40/12 32/41/12 2/42/12
f 2/42/12 32/41/12 1/43/12
f 1/43/12 32/41/12 28/44/12
f 28/44/12 32/41/12 29/45/12
f 35/48/13 34/47/13 33/46/13
f 34/47/13 35/48/13 36/49/13
f 34/47/13 36/49/13 37/50/13
f 37/53/14 39/52/14 38/51/14
f 39/52/14 37/53/14 8/54/4
f 8/54/4 37/53/14 36/55/14
f 8/54/4 36/55/14 7/56/3
f 7/56/3 36/55/14 19/57/14
f 7/56/3 19/57/14 20/58/14
f 42/61/15 41/60/15 40/59/15
f 41/60/15 42/61/15 43/62/15
f 43/62/15 42/61/15 44/63/15
f 44/63/15 42/61/15 38/64/15
f 44/63/15 38/64/15 39/65/15
f 47/68/16 46/67/16 45/66/16
f 46/67/16 47/68/16 48/69/16
f 48/69/16 47/68/16 42/70/16
f 48/69/16 42/70/16 40/71/16
f 44/74/17 30/73/17 43/72/17
f 30/73/17 44/74/17 32/75/17
f 51/78/18 50/77/18 49/76/18
f 50/77/18 51/78/18 24/79/18
f 27/80/18 24/79/18 51/78/18
f 24/79/18 27/80/18 23/81/18
f 52/84/19 36/83/19 35/82/19
f 36/83/19 52/84/19 21/85/19
f 36/83/19 21/85/19 19/86/19
f 47/89/9 38/88/9 42/87/9
f 38/88/9 47/89/9 6/90/9
f 38/88/9 6/90/9 37/91/9
f 37/91/9 6/90/9 4/92/9
f 37/91/9 4/92/9 34/93/9
f 5/96/20 45/95/20 53/94/20
f 45/95/20 5/96/20 47/97/20
f 47/97/20 5/96/20 6/98/20
f 33/101/21 5/100/21 53/99/21
f 5/100/21 33/101/21 4/102/21
f 4/102/21 33/101/21 34/103/21
f 17/106/22 49/105/22 54/104/22
f 49/105/22 17/106/22 51/107/22
f 51/107/22 17/106/22 18/108/22
f 24/111/23 55/110/23 50/109/23
f 55/110/23 24/111/23 22/112/23
f 3/115/9 18/114/9 16/113/9
f 18/114/9 3/115/9 51/116/9
f 51/116/9 3/115/9 1/117/9
f 51/116/9 1/117/9 28/118/9
f 51/116/9 28/118/9 27/119/9
f 27/119/9 28/118/9 26/120/9
f 3/123/24 31/122/24 2/121/24
f 31/122/24 3/123/24 56/124/24
f 56/124/24 3/123/24 16/125/24
f 56/124/24 16/125/24 57/126/24
f 57/126/24 16/125/24 54/127/24
f 54/127/24 16/125/24 17/128/24
f 22/131/25 58/130/25 55/129/25
f 58/130/25 22/131/25 12/132/25
f 12/132/25 22/131/25 11/133/25
f 58/136/26 21/135/26 52/134/26
f 21/135/26 58/136/26 10/137/26
f 10/137/26 58/136/26 12/138/26
f 44/141/9 29/140/9 32/139/9
f 29/140/9 44/141/9 39/142/9
f 29/140/9 39/142/9 9/143/9
f 9/143/9 39/142/9 8/144/9
f 49/147/27 57/146/27 54/145/27
f 46/148/27 57/146/27 49/147/27
f 46/148/27 49/147/27 50/149/27
f 59/150/27 57/146/27 46/148/27
f 57/146/27 59/150/27 60/151/27
f 46/148/27 50/149/27 45/152/27
f 45/152/27 50/149/27 53/153/27
f 53/153/27 50/149/27 55/154/27
f 53/153/27 55/154/27 35/155/27
f 53/153/27 35/155/27 33/156/27
f 58/157/27 35/155/27 55/154/27
f 35/155/27 58/157/27 52/158/27
f 61/161/28 57/160/28 60/159/28
f 57/160/28 61/161/28 56/162/28
f 40/165/29 62/164/29 48/163/29
f 62/164/29 40/165/29 41/166/29
f 15/169/9 56/168/9 61/167/9
f 56/168/9 15/169/9 13/170/9
f 56/168/9 13/170/9 30/171/9
f 31/172/9 56/168/9 30/171/9
f 30/171/9 13/170/9 43/173/9
f 43/173/9 13/170/9 62/174/9
f 43/173/9 62/174/9 41/175/9
f 48/178/30 59/177/30 46/176/30
f 59/177/30 48/178/30 14/179/30
f 14/179/30 48/178/30 13/180/30
f 13/180/30 48/178/30 62/181/30
f 14/184/31 60/183/31 59/182/31
f 60/183/31 14/184/31 15/185/31
f 60/183/31 15/185/31 61/186/31

