# Created by Kenney (www.kenney.nl)

mtllib roofHighCorner.mtl

g roofHighCorner

v 0.5 1.040711 -0.4
v 0.4 1.040711 -0.4
v 0.5 1.140711 -0.5
v 0.4 1.040711 -0.5
v 0.4 0.9707107 -0.5
v 0.4 0.9707107 -0.4
v -0.4707107 0.1 -0.5
v -0.4707107 0.1 0.4707107
v 0.5 -0.03535534 0.5353553
v -0.5353553 -0.03535534 0.5353553
v 0.5 -3.609557E-16 0.5707107
v -0.5707107 -3.609557E-16 0.5707107
v -0.5 0 -0.5
v -0.5353553 -0.03535534 -0.5
v -0.5 0 0.5
v 0.5 0.9707107 -0.4
v -0.5707107 -3.609557E-16 -0.5
v 0.5 0.1 0.4707107
v 0.5 0 0.5
v 0.5 0 -0.5

vn 0 0.7071068 0.7071068
vn -0.7071068 0.7071068 0
vn 0 -0.7071068 0.7071068
vn 0.7071068 -0.7071068 0
vn -1 0 0
vn 0 0 1
vn -0.7071068 -0.7071068 0
vn 0 -0.7071068 -0.7071068
vn 0 0 -1
vn 0 -1 0
vn 1 0 0

vt 19.68504 40.10773
vt 15.74803 40.10773
vt 19.68504 45.6755
vt -19.68504 40.10773
vt -19.68504 45.6755
vt -15.74803 40.10773
vt -19.68504 38.15901
vt -15.74803 38.15901
vt -19.68504 -10.32016
vt 18.53192 -10.32016
vt 19.68504 13.91943
vt -21.07698 13.91943
vt 19.68504 15.88793
vt -22.46892 15.88793
vt 19.68504 -13.91943
vt 19.68504 -15.88793
vt -19.68504 -13.91943
vt -21.07698 -15.88793
vt -19.68504 38.21696
vt -19.68504 40.97286
vt -15.74803 38.21696
vt -15.74803 40.97286
vt 19.68504 38.21696
vt 15.74803 38.21696
vt 19.68504 40.97286
vt 15.74803 40.97286
vt 21.07698 13.91943
vt -19.68504 13.91943
vt 22.46892 15.88793
vt -19.68504 15.88793
vt 19.68504 38.15901
vt 19.68504 -10.32016
vt 15.74803 38.15901
vt -18.53192 -10.32016
vt -19.68504 -15.88793
vt 21.07698 -15.88793
vt -22.46892 -15.88793
vt 22.46892 -15.88793
vt 21.07698 -1.391943
vt 19.68504 3.336441E-14
vt 22.46892 1.915356E-14
vt 18.53192 3.937008
vt -19.68504 3.336441E-14
vt -19.68504 44.90987
vt 19.68504 19.68504
vt 19.68504 -19.68504
vt -19.68504 19.68504
vt -19.68504 -19.68504
vt 19.68504 44.90987
vt 19.68504 -1.832694E-13
vt -19.68504 -1.832694E-13
vt -18.53192 3.937008
vt -22.46892 -1.974803E-13
vt -21.07698 -1.391943

usemtl roofRed

f 3/3/1 2/2/1 1/1/1
f 2/6/2 3/5/2 4/4/2
f 7/9/2 6/8/2 5/7/2
f 6/8/2 7/9/2 8/10/2
f 11/13/3 10/12/3 9/11/3
f 10/12/3 11/13/3 12/14/3
f 15/17/4 14/16/4 13/15/4
f 14/16/4 15/17/4 10/18/4
f 6/21/5 4/20/5 5/19/5
f 4/20/5 6/21/5 2/22/5
f 1/25/6 6/24/6 16/23/6
f 6/24/6 1/25/6 2/26/6
f 12/29/7 14/28/7 10/27/7
f 14/28/7 12/29/7 17/30/7
f 6/33/1 18/32/1 16/31/1
f 18/32/1 6/33/1 8/34/1
f 9/35/8 15/15/8 19/17/8
f 15/15/8 9/35/8 10/36/8

usemtl roofRedLight

f 18/32/1 12/37/1 11/16/1
f 12/37/1 18/32/1 8/34/1
f 12/38/2 7/9/2 17/35/2
f 7/9/2 12/38/2 8/10/2

usemtl woodDark

f 17/41/9 13/40/9 14/39/9
f 13/40/9 17/41/9 7/42/9
f 13/40/9 7/42/9 20/43/9
f 20/43/9 7/42/9 5/21/9
f 20/43/9 5/21/9 3/44/9
f 3/44/9 5/21/9 4/22/9
f 15/47/10 20/46/10 19/45/10
f 20/46/10 15/47/10 13/48/10
f 1/26/11 20/50/11 3/49/11
f 20/50/11 1/26/11 16/24/11
f 20/50/11 16/24/11 19/51/11
f 19/51/11 16/24/11 18/52/11
f 19/51/11 18/52/11 11/53/11
f 19/51/11 11/53/11 9/54/11

