# Created by Kenney (www.kenney.nl)

mtllib roofGableDetail.mtl

g roofGableDetail

v -0.5 0.1022748 -0.4684359
v 0.5 0.1022748 -0.4684359
v -0.5 0.5707107 2.887646E-15
v 0.5 0.5707107 2.887646E-15
v 0.5 0.1022748 0.4684359
v -0.5 0.1022748 0.4684359
v 0.5 0.03535534 0.5353553
v 0.5 -5.414336E-16 0.5
v -0.5 0.03535534 0.5353553
v -0.5 -5.414336E-16 0.5
v 0.5 -5.414336E-16 -0.5
v 0.5 0.03535534 -0.5353553
v -0.5 -5.414336E-16 -0.5
v -0.5 0.03535534 -0.5353553
v 0.5 0.1 0.4
v 0.5 -5.414336E-16 0.4
v -0.5 -5.414336E-16 -0.4
v -0.5 0.1 -0.4
v 0.5 0.1 -0.4
v 0.5 -5.414336E-16 -0.4
v -0.5 -5.414336E-16 0.4
v -0.5 0.1 0.4
v -0.475 0.1 -0.4
v -0.475 0.5 2.887646E-15
v -0.55 0.5 2.887646E-15
v -0.55 -0.03535534 -0.5353553
v -0.5 -0.03535534 -0.5353553
v -0.55 -0.03535534 0.5353553
v -0.5 -0.03535534 0.5353553
v -0.475 0.1 0.4
v -0.475 -5.414336E-16 -0.4
v -0.475 -5.414336E-16 0.4
v 0.55 -0.03535534 -0.5353553
v 0.5 -0.03535534 -0.5353553
v 0.55 0.5 2.887646E-15
v 0.475 0.1 -0.4
v 0.475 0.5 2.887646E-15
v 0.5 -0.03535534 0.5353553
v 0.55 -0.03535534 0.5353553
v 0.475 0.1 0.4
v 0.475 0 0.4
v 0.475 0 -0.4
v 0.55 0.6414214 -0.07071068
v 0.55 0.5707107 -0.07071068
v 0.55 0.6414214 0.07071068
v 0.55 0.5707107 0.07071068
v 0.55 0.03535534 -0.606066
v 0.55 0.03535534 0.606066
v 0.5 0.03535534 0.606066
v 0.5 0.5707107 0.07071068
v 0.5 0.03535534 -0.606066
v 0.5 0.5707107 -0.07071068
v 0.5 0.6414214 -0.07071068
v 0.5 0.6414214 0.07071068
v -0.55 0.03535534 0.606066
v -0.55 0.5707107 0.07071068
v -0.55 0.6414214 0.07071068
v -0.55 0.6414214 -0.07071068
v -0.55 0.5707107 -0.07071068
v -0.55 0.03535534 -0.606066
v -0.5 0.03535534 -0.606066
v -0.5 0.5707107 -0.07071068
v -0.5 0.03535534 0.606066
v -0.5 0.5707107 0.07071068
v -0.5 0.6414214 -0.07071068
v -0.5 0.6414214 0.07071068

vn 0 0.7071068 -0.7071068
vn 0 0.7071068 0.7071068
vn 0 -0.7071068 0.7071068
vn 0 -0.7071068 -0.7071068
vn 1 0 0
vn -1 0 0
vn 0 0 1
vn 0 0 -1
vn 0 1 0
vn 0 -1 0

vt 19.68504 -10.19351
vt -19.68504 -10.19351
vt 19.68504 15.88793
vt -19.68504 15.88793
vt 19.68504 13.91943
vt -19.68504 13.91943
vt -15.74803 3.937008
vt -15.74803 -2.131628E-14
vt -19.68504 -2.131628E-14
vt 15.74803 3.937008
vt 19.68504 -2.131628E-14
vt 15.74803 -2.131628E-14
vt -18.70079 -8.351655
vt -19.68504 -8.351655
vt -18.70079 13.91943
vt -21.65354 13.91943
vt -19.68504 -13.91943
vt -21.65354 -15.88793
vt -19.68504 -15.88793
vt 21.65354 -15.88793
vt 19.68504 -15.88793
vt 21.65354 13.91943
vt 19.68504 -13.91943
vt 19.68504 -8.351655
vt 18.70079 -8.351655
vt 18.70079 13.91943
vt -18.70079 -2.131628E-14
vt -18.70079 3.937008
vt -19.68504 3.937008
vt 18.70079 -2.131628E-14
vt 19.68504 3.937008
vt 18.70079 3.937008
vt -18.70079 0
vt 18.70079 0
vt 2.783885 25.25281
vt 2.783885 22.46892
vt -2.783885 25.25281
vt -1.136868E-13 19.68504
vt -2.783885 22.46892
vt 21.07698 -1.391943
vt 23.86087 1.391943
vt -21.07698 -1.391943
vt -23.86087 1.391943
vt 21.65354 17.85643
vt 19.68504 17.85643
vt -21.65354 17.85643
vt -19.68504 17.85643
vt -19.68504 -1.154423E-13
vt -21.07698 1.391943
vt -18.44236 4.026565
vt 1.136868E-13 22.46892
vt 18.44236 4.026565
vt 21.07698 1.391943
vt 19.68504 -1.154423E-13
vt 1.136868E-13 19.68504
vt -1.122715E-13 22.46892
vt -19.68504 -9.810117E-14
vt 19.68504 -9.810117E-14
vt -19.68504 22.46892
vt -21.65354 22.46892
vt -19.68504 25.25281
vt -21.65354 25.25281
vt 19.68504 2.783885
vt 21.65354 2.783885
vt 19.68504 -2.783885
vt 21.65354 -2.783885
vt 21.65354 22.46892
vt 19.68504 22.46892
vt 21.65354 25.25281
vt 19.68504 25.25281
vt -21.65354 -2.783885
vt -21.65354 2.783885
vt -19.68504 -2.783885
vt -19.68504 2.783885
vt 19.68504 19.68504
vt 19.68504 15.74803
vt -19.68504 19.68504
vt 18.70079 15.74803
vt 18.70079 -15.74803
vt -18.70079 15.74803
vt -19.68504 15.74803
vt -18.70079 -15.74803
vt -19.68504 -19.68504
vt -19.68504 -15.74803
vt 19.68504 -19.68504
vt 19.68504 -15.74803
vt 15.74803 -1.130259E-13
vt -15.74803 -1.130259E-13

usemtl roof

f 3/3/1 2/2/1 1/1/1
f 2/2/1 3/3/1 4/4/1
f 4/3/2 6/2/2 5/1/2
f 6/2/2 4/3/2 3/4/2
f 9/4/3 8/5/3 7/3/3
f 8/5/3 9/4/3 10/6/3
f 13/5/4 12/4/4 11/6/4
f 12/4/4 13/5/4 14/3/4

usemtl wood

f 8/9/5 16/8/5 15/7/5
f 18/7/6 13/9/6 17/8/6
f 20/12/5 11/11/5 19/10/5
f 10/11/6 22/10/6 21/12/6
f 24/15/3 18/14/3 23/13/3
f 18/14/3 24/15/3 25/16/3
f 25/16/3 13/17/3 18/14/3
f 26/18/3 13/17/3 25/16/3
f 13/17/3 26/18/3 27/19/3
f 25/22/4 29/21/4 28/20/4
f 29/21/4 25/22/4 10/23/4
f 10/23/4 25/22/4 22/24/4
f 22/24/4 25/22/4 30/25/4
f 30/25/4 25/22/4 24/26/4
f 23/28/7 17/9/7 31/27/7
f 17/9/7 23/28/7 18/29/7
f 22/31/8 32/30/8 21/11/8
f 32/30/8 22/31/8 30/32/8
f 35/22/3 34/21/3 33/20/3
f 34/21/3 35/22/3 11/23/3
f 11/23/3 35/22/3 19/24/3
f 19/24/3 35/22/3 36/25/3
f 36/25/3 35/22/3 37/26/3
f 8/17/4 39/18/4 38/19/4
f 39/18/4 8/17/4 35/16/4
f 35/16/4 8/17/4 15/14/4
f 35/16/4 15/14/4 40/13/4
f 35/16/4 40/13/4 37/15/4
f 41/33/8 15/29/8 16/9/8
f 15/29/8 41/33/8 40/28/8
f 19/31/7 42/34/7 20/11/7
f 42/34/7 19/31/7 36/32/7
f 45/37/5 44/36/5 43/35/5
f 44/36/5 45/37/5 35/38/5
f 35/38/5 45/37/5 46/39/5
f 33/40/5 44/36/5 35/38/5
f 44/36/5 33/40/5 47/41/5
f 35/38/5 46/39/5 39/42/5
f 39/42/5 46/39/5 48/43/5
f 46/22/2 49/21/2 48/20/2
f 49/21/2 46/22/2 50/5/2
f 49/45/3 39/22/3 48/44/3
f 39/22/3 49/45/3 38/5/3
f 34/6/4 47/46/4 33/16/4
f 47/46/4 34/6/4 51/47/4
f 51/19/1 44/16/1 47/18/1
f 44/16/1 51/19/1 52/6/1
f 12/49/6 34/42/6 11/48/6
f 34/42/6 12/49/6 51/43/6
f 12/49/6 52/39/6 51/43/6
f 52/39/6 12/49/6 2/50/6
f 52/39/6 2/50/6 4/51/6
f 52/39/6 4/51/6 53/37/6
f 53/37/6 4/51/6 54/35/6
f 54/35/6 4/51/6 50/36/6
f 5/52/6 50/36/6 4/51/6
f 50/36/6 5/52/6 49/41/6
f 49/41/6 5/52/6 7/53/6
f 7/53/6 38/40/6 49/41/6
f 38/40/6 7/53/6 8/54/6
f 56/36/6 28/40/6 55/41/6
f 28/40/6 56/36/6 25/55/6
f 57/35/6 25/55/6 56/36/6
f 58/37/6 25/55/6 57/35/6
f 59/39/6 25/55/6 58/37/6
f 59/39/6 26/42/6 25/55/6
f 26/42/6 59/39/6 60/43/6
f 59/22/1 61/21/1 60/20/1
f 61/21/1 59/22/1 62/5/1
f 26/22/4 61/45/4 27/5/4
f 61/45/4 26/22/4 60/44/4
f 63/47/3 28/16/3 29/6/3
f 28/16/3 63/47/3 55/46/3
f 64/6/2 55/18/2 63/19/2
f 55/18/2 64/6/2 56/16/2
f 66/37/5 62/36/5 65/35/5
f 62/36/5 66/37/5 3/56/5
f 3/56/5 66/37/5 64/39/5
f 1/52/5 62/36/5 3/56/5
f 3/56/5 64/39/5 6/50/5
f 6/50/5 64/39/5 63/43/5
f 6/50/5 63/43/5 9/49/5
f 29/42/5 9/49/5 63/43/5
f 9/49/5 29/42/5 10/57/5
f 14/53/5 62/36/5 1/52/5
f 62/36/5 14/53/5 61/41/5
f 14/53/5 27/40/5 61/41/5
f 27/40/5 14/53/5 13/58/5
f 66/61/7 56/60/7 64/59/7
f 56/60/7 66/61/7 57/62/7
f 65/65/9 57/64/9 66/63/9
f 57/64/9 65/65/9 58/66/9
f 58/69/8 62/68/8 59/67/8
f 62/68/8 58/69/8 65/70/8
f 53/61/8 44/60/8 52/59/8
f 44/60/8 53/61/8 43/62/8
f 53/73/9 45/72/9 43/71/9
f 45/72/9 53/73/9 54/74/9
f 45/69/7 50/68/7 46/67/7
f 50/68/7 45/69/7 54/70/7

usemtl stone

f 10/77/10 16/76/10 8/75/10
f 16/76/10 10/77/10 41/78/10
f 41/78/10 10/77/10 42/79/10
f 42/79/10 10/77/10 32/80/10
f 32/80/10 10/77/10 21/81/10
f 31/82/10 42/79/10 32/80/10
f 13/83/10 42/79/10 31/82/10
f 13/83/10 31/82/10 17/84/10
f 11/85/10 42/79/10 13/83/10
f 42/79/10 11/85/10 20/86/10
f 32/12/6 23/7/6 31/8/6
f 23/7/6 32/12/6 24/55/6
f 24/55/6 32/12/6 30/10/6
f 37/38/5 42/87/5 36/10/5
f 42/87/5 37/38/5 41/88/5
f 41/88/5 37/38/5 40/7/5

usemtl roofLight

f 7/23/2 6/2/2 9/17/2
f 6/2/2 7/23/2 5/1/2
f 14/23/1 2/2/1 12/17/1
f 2/2/1 14/23/1 1/1/1

