# Created by Kenney (www.kenney.nl)

mtllib roofHighGableDetail.mtl

g roofHighGableDetail

v 0.4 -5.414336E-16 0.5
v 0.4 -5.414336E-16 0.4
v -0.5 -5.414336E-16 0.5
v 0.375 -5.414336E-16 0.4
v 0.375 -5.414336E-16 -0.4
v -0.475 -5.414336E-16 0.4
v -0.5 -5.414336E-16 0.4
v -0.475 -5.414336E-16 -0.4
v -0.5 -5.414336E-16 -0.5
v -0.5 -5.414336E-16 -0.4
v 0.4 -5.414336E-16 -0.5
v 0.4 -5.414336E-16 -0.4
v 0.375 0.2 -0.4
v 0.375 1 0
v 0.375 0.2 0.4
v -0.475 0.2 -0.4
v -0.475 1 0
v -0.475 0.2 0.4
v 0.4 0.2 0.4
v -0.5 0.2 -0.4
v 0.4 0.2 -0.4
v -0.5 0.2 0.4
v -0.6 -0.04472136 -0.6341641
v -0.55 -0.04472136 -0.6341641
v -0.6 1.111803 -0.0559017
v -0.55 1.111803 -0.0559017
v -0.55 -0.08944272 -0.5447214
v -0.6 -0.08944272 -0.5447214
v -0.55 -0.04472136 -0.5223607
v -0.6 1 0
v -0.55 1 0
v 0.45 -0.04472136 -0.6341641
v 0.5 -0.04472136 -0.6341641
v 0.45 1.111803 -0.0559017
v 0.5 1.111803 -0.0559017
v 0.5 1.223607 -0.0559017
v 0.5 1.223607 0.0559017
v 0.5 1 0
v 0.5 1.111803 0.0559017
v 0.5 -0.08944272 -0.5447214
v 0.5 -0.08944272 0.5447214
v 0.5 -0.04472136 0.6341641
v -0.6 -0.08944272 0.5447214
v -0.55 -0.08944272 0.5447214
v -0.55 -0.04472136 0.5223607
v 0.45 -0.04472136 -0.5223607
v 0.45 -0.08944272 -0.5447214
v 0.45 -0.02236068 -0.567082
v 0.45 0.1194098 -0.4961968
v 0.45 1.111803 2.887646E-15
v 0.45 1.223607 -0.0559017
v 0.45 1.223607 0.0559017
v 0.45 1.111803 0.0559017
v 0.45 0.1194098 0.4961968
v 0.45 -0.04472136 0.6341641
v 0.45 -0.02236068 0.567082
v 0.45 -0.08944272 0.5447214
v 0.45 -0.04472136 0.5223607
v 0.45 1 0
v -0.55 -0.04472136 0.6341641
v -0.6 -0.04472136 0.6341641
v -0.55 1.111803 0.0559017
v -0.6 1.111803 0.0559017
v -0.55 1.223607 -0.0559017
v -0.55 1.223607 0.0559017
v -0.6 1.223607 -0.0559017
v -0.6 1.223607 0.0559017
v -0.55 1.111803 2.887646E-15
v -0.55 0.1194098 -0.4961968
v -0.55 0.1194098 0.4961968
v -0.55 -0.02236068 0.567082
v -0.55 -0.02236068 -0.567082

vn 0 -1 0
vn 1 0 0
vn -1 0 0
vn 0 0 1
vn 0 0 -1
vn 0 0.4472136 -0.8944272
vn 0 -0.4472136 0.8944272
vn 0 -0.4472136 -0.8944272
vn 0 0.4472136 0.8944272
vn 0 1 0
vn 0 -0.8944272 0.4472136
vn 0 -0.8944272 -0.4472136

vt 15.74803 19.68504
vt 15.74803 15.74803
vt -19.68504 19.68504
vt 14.76378 15.74803
vt 14.76378 -15.74803
vt -18.70079 15.74803
vt -19.68504 15.74803
vt -18.70079 -15.74803
vt -19.68504 -19.68504
vt -19.68504 -15.74803
vt 15.74803 -19.68504
vt 15.74803 -15.74803
vt 15.74803 7.874016
vt 15.74803 -2.131628E-14
vt 0 39.37008
vt -15.74803 -2.131628E-14
vt -15.74803 7.874016
vt -19.68504 -2.131628E-14
vt 19.68504 -2.131628E-14
vt 14.76378 -2.131628E-14
vt 14.76378 7.874016
vt 18.70079 -2.131628E-14
vt 19.68504 7.874016
vt 18.70079 7.874016
vt -14.76378 -2.131628E-14
vt -14.76378 7.874016
vt -18.70079 -2.131628E-14
vt -18.70079 7.874016
vt -19.68504 7.874016
vt 23.62205 -12.74043
vt 21.65354 -12.74043
vt 23.62205 38.16642
vt 21.65354 38.16642
vt -21.65354 -12.74043
vt -23.62205 -12.74043
vt -21.65354 -10.77192
vt -23.62205 35.21367
vt -21.65354 35.21367
vt -17.71654 -12.74043
vt -19.68504 -12.74043
vt -17.71654 38.16642
vt -19.68504 38.16642
vt 2.200854 48.1735
vt 2.200854 43.77179
vt -2.200854 48.1735
vt -2.200854 43.77179
vt 21.44572 -3.521367
vt 24.96709 -1.760683
vt -21.44572 -3.521367
vt -24.96709 -1.760683
vt 23.62205 35.21367
vt 21.65354 -10.77192
vt 21.65354 35.21367
vt -20.56538 -1.760683
vt -22.32607 -0.8803417
vt -19.53531 4.701174
vt 1.132243E-13 43.77179
vt 19.53531 4.701174
vt 22.32607 -0.8803417
vt 20.56538 -1.760683
vt 19.68504 -12.74043
vt 17.71654 -12.74043
vt 19.68504 35.21367
vt 17.71654 -10.77192
vt 17.71654 35.21367
vt -21.65354 38.16642
vt -23.62205 38.16642
vt 21.65354 -2.200854
vt 21.65354 2.200854
vt 23.62205 -2.200854
vt 23.62205 2.200854
vt -19.68504 -2.200854
vt -19.68504 2.200854
vt -17.71654 -2.200854
vt -17.71654 2.200854
vt -17.71654 43.77179
vt -19.68504 43.77179
vt -17.71654 48.1735
vt -19.68504 48.1735
vt -21.65354 21.54384
vt -21.65354 17.60683
vt -23.62205 21.54384
vt -23.62205 17.60683
vt -17.71654 -10.77192
vt -19.68504 35.21367
vt -17.71654 35.21367
vt 23.62205 43.77179
vt 21.65354 43.77179
vt 23.62205 48.1735
vt 21.65354 48.1735
vt 21.65354 17.60683
vt 21.65354 21.54384
vt 23.62205 17.60683
vt 23.62205 21.54384
vt -19.68504 17.60683
vt -19.68504 21.54384
vt -17.71654 17.60683
vt -17.71654 21.54384
vt 19.68504 38.16642
vt 17.71654 38.16642
vt -21.65354 43.77179
vt -23.62205 43.77179
vt -21.65354 48.1735
vt -23.62205 48.1735
vt 19.68504 43.77179
vt 17.71654 43.77179
vt 19.68504 48.1735
vt 17.71654 48.1735
vt -1.148175E-13 43.77179
vt 19.68504 21.54384
vt 19.68504 17.60683
vt 17.71654 21.54384
vt 17.71654 17.60683
vt 21.65354 -4.531597
vt -17.71654 -4.531597
vt 17.71654 -4.531597
vt -21.65354 -4.531597
vt 14.76378 35.21367
vt 14.76378 -1.838529E-13
vt 15.74803 -1.838529E-13
vt 15.74803 -8.803417
vt -19.68504 -8.803417
vt -19.68504 -1.838529E-13
vt -18.70079 35.21367
vt -18.70079 -1.838529E-13
vt 18.70079 35.21367
vt 18.70079 3.28626E-14
vt 19.68504 3.28626E-14
vt 19.68504 -8.803417
vt -15.74803 -8.803417
vt -15.74803 3.28626E-14
vt -14.76378 35.21367
vt -14.76378 3.28626E-14
vt 17.71654 39.15068
vt -21.65354 39.15068
vt 17.71654 19.57534
vt -21.65354 19.57534
vt 21.65354 39.15068
vt -17.71654 39.15068
vt -17.71654 19.57534
vt 21.65354 19.57534

usemtl woodDark

f 3/3/1 2/2/1 1/1/1
f 2/2/1 3/3/1 4/4/1
f 4/4/1 3/3/1 5/5/1
f 5/5/1 3/3/1 6/6/1
f 6/6/1 3/3/1 7/7/1
f 8/8/1 5/5/1 6/6/1
f 9/9/1 5/5/1 8/8/1
f 9/9/1 8/8/1 10/10/1
f 11/11/1 5/5/1 9/9/1
f 5/5/1 11/11/1 12/12/1
f 14/15/2 5/14/2 13/13/2
f 5/14/2 14/15/2 4/16/2
f 4/16/2 14/15/2 15/17/2
f 6/14/3 16/17/3 8/16/3
f 16/17/3 6/14/3 17/15/3
f 17/15/3 6/14/3 18/13/3

usemtl wood

f 1/18/2 2/16/2 19/17/2
f 20/17/3 9/18/3 10/16/3
f 12/14/2 11/19/2 21/13/2
f 3/19/3 22/13/3 7/14/3
f 21/13/4 5/20/4 12/14/4
f 5/20/4 21/13/4 13/21/4
f 22/23/5 6/22/5 7/19/5
f 6/22/5 22/23/5 18/24/5
f 15/26/5 2/16/5 4/25/5
f 2/16/5 15/26/5 19/17/5
f 16/28/4 10/18/4 8/27/4
f 10/18/4 16/28/4 20/29/4
f 25/32/6 24/31/6 23/30/6
f 24/31/6 25/32/6 26/33/6
f 29/36/7 28/35/7 27/34/7
f 28/35/7 29/36/7 30/37/7
f 30/37/7 29/36/7 31/38/7
f 34/41/6 33/40/6 32/39/6
f 33/40/6 34/41/6 35/42/6
f 37/45/2 35/44/2 36/43/2
f 35/44/2 37/45/2 38/15/2
f 38/15/2 37/45/2 39/46/2
f 40/47/2 35/44/2 38/15/2
f 35/44/2 40/47/2 33/48/2
f 38/15/2 39/46/2 41/49/2
f 41/49/2 39/46/2 42/50/2
f 30/51/8 44/31/8 43/30/8
f 44/31/8 30/51/8 45/52/8
f 45/52/8 30/51/8 31/53/8
f 48/55/3 47/49/3 46/54/3
f 47/49/3 48/55/3 32/50/3
f 48/55/3 34/46/3 32/50/3
f 34/46/3 48/55/3 49/56/3
f 34/46/3 49/56/3 50/57/3
f 34/46/3 50/57/3 51/45/3
f 51/45/3 50/57/3 52/43/3
f 52/43/3 50/57/3 53/44/3
f 54/58/3 53/44/3 50/57/3
f 53/44/3 54/58/3 55/48/3
f 55/48/3 54/58/3 56/59/3
f 56/59/3 57/47/3 55/48/3
f 57/47/3 56/59/3 58/60/3
f 38/63/7 47/62/7 40/61/7
f 47/62/7 38/63/7 46/64/7
f 46/64/7 38/63/7 59/65/7
f 62/66/9 61/35/9 60/34/9
f 61/35/9 62/66/9 63/67/9
f 66/70/10 65/69/10 64/68/10
f 65/69/10 66/70/10 67/71/10
f 51/74/10 37/73/10 36/72/10
f 37/73/10 51/74/10 52/75/10
f 51/78/5 35/77/5 34/76/5
f 35/77/5 51/78/5 36/79/5
f 61/82/11 44/81/11 60/80/11
f 44/81/11 61/82/11 43/83/11
f 58/84/8 41/40/8 57/39/8
f 41/40/8 58/84/8 38/85/8
f 38/85/8 58/84/8 59/86/8
f 66/89/5 26/88/5 25/87/5
f 26/88/5 66/89/5 64/90/5
f 28/93/12 24/92/12 27/91/12
f 24/92/12 28/93/12 23/94/12
f 47/97/12 33/96/12 40/95/12
f 33/96/12 47/97/12 32/98/12
f 39/99/9 55/62/9 42/61/9
f 55/62/9 39/99/9 53/100/9
f 65/103/4 63/102/4 62/101/4
f 63/102/4 65/103/4 67/104/4
f 37/107/4 53/106/4 39/105/4
f 53/106/4 37/107/4 52/108/4
f 65/45/2 26/44/2 64/43/2
f 26/44/2 65/45/2 68/109/2
f 68/109/2 65/45/2 62/46/2
f 69/58/2 26/44/2 68/109/2
f 68/109/2 62/46/2 70/56/2
f 70/56/2 62/46/2 60/50/2
f 70/56/2 60/50/2 71/55/2
f 44/49/2 71/55/2 60/50/2
f 71/55/2 44/49/2 45/54/2
f 72/59/2 26/44/2 69/58/2
f 26/44/2 72/59/2 24/48/2
f 72/59/2 27/47/2 24/48/2
f 27/47/2 72/59/2 29/60/2
f 55/112/11 41/111/11 42/110/11
f 41/111/11 55/112/11 57/113/11
f 63/44/3 43/47/3 61/48/3
f 43/47/3 63/44/3 30/15/3
f 67/43/3 30/15/3 63/44/3
f 66/45/3 30/15/3 67/43/3
f 25/46/3 30/15/3 66/45/3
f 25/46/3 28/49/3 30/15/3
f 28/49/3 25/46/3 23/50/3

usemtl roofRedLight

f 69/114/6 48/84/6 72/52/6
f 48/84/6 69/114/6 49/115/6
f 54/116/9 71/36/9 56/64/9
f 71/36/9 54/116/9 70/117/9

usemtl roofRed

f 13/119/7 59/65/7 14/118/7
f 21/120/7 59/65/7 13/119/7
f 11/121/7 59/65/7 21/120/7
f 11/121/7 46/64/7 59/65/7
f 46/64/7 11/121/7 29/36/7
f 9/122/7 29/36/7 11/121/7
f 29/36/7 9/122/7 31/38/7
f 31/38/7 9/122/7 20/123/7
f 31/38/7 20/123/7 17/124/7
f 17/124/7 20/123/7 16/125/7
f 18/127/8 31/53/8 17/126/8
f 22/128/8 31/53/8 18/127/8
f 3/129/8 31/53/8 22/128/8
f 3/129/8 45/52/8 31/53/8
f 45/52/8 3/129/8 58/84/8
f 1/130/8 58/84/8 3/129/8
f 58/84/8 1/130/8 59/86/8
f 59/86/8 1/130/8 19/131/8
f 59/86/8 19/131/8 14/132/8
f 14/132/8 19/131/8 15/133/8
f 50/134/9 70/117/9 54/116/9
f 70/117/9 50/134/9 68/135/9
f 71/137/11 58/113/11 56/136/11
f 58/113/11 71/137/11 45/81/11
f 68/138/6 49/115/6 69/114/6
f 49/115/6 68/138/6 50/139/6
f 29/91/12 48/140/12 46/97/12
f 48/140/12 29/91/12 72/141/12

