# Created by Kenney (www.kenney.nl)

mtllib roofHighGableEnd.mtl

g roofHighGableEnd

v -0.4965645 0.1194098 -0.4961968
v 4.331469E-15 1.111803 -2.598881E-14
v -0.4965645 0.1194098 0.4961968
v 0.55 -0.04472136 0.5223607
v -0.522781 -0.04472136 0.5223607
v 0.55 -0.02236068 0.567082
v -0.5675023 -0.02236068 0.567082
v 0.55 -0.02236068 -0.567082
v 0.55 -0.04472136 -0.5223607
v 0.55 0.1194098 -0.4961968
v 0.55 1 0
v 0.55 1.111803 -5.775291E-15
v 0.55 0.1194098 0.4961968
v 0.475 1 -2.887646E-15
v 0.475 0.2 -0.4
v 0.5 0.2 -0.4
v 0.5 0 -0.5
v -0.522781 -0.04472136 -0.5223607
v -0.5004203 0 -0.5
v -0.5675023 -0.02236068 -0.567082
v 0.475 0.2 0.4
v 0.5 0.2 0.4
v 0.5 0 0.5
v -0.5004203 0 0.5
v 0.5 0 0.4
v 0.5 0 -0.4
v 0.475 0 0.4
v 0.475 0 -0.4

vn -0.8942946 0.4474787 0
vn 0 -0.8944272 0.4472136
vn 1 0 0
vn 0 -0.4472136 0.8944272
vn 0 -0.8944272 -0.4472136
vn 0 -0.4472136 -0.8944272
vn 0 0.4472136 -0.8944272
vn 0 0.4472136 0.8944272
vn -0.4472136 -0.8944272 0
vn 0.8944272 -0.4472136 0
vn 0 0 -1
vn 0 0 1
vn 0 -1 0

vt -19.53531 -4.543878
vt -1.023182E-12 39.14487
vt 19.53531 -4.543878
vt 21.65354 17.60683
vt -20.58193 17.60683
vt 21.65354 19.57534
vt -22.34261 19.57534
vt 22.32607 -0.8803417
vt 20.56538 -1.760683
vt 19.53531 4.701174
vt 1.080009E-12 39.37008
vt 1.307382E-12 43.77179
vt -19.53531 4.701174
vt -20.56538 -1.760683
vt -22.32607 -0.8803417
vt 18.70079 35.21367
vt 21.65354 35.21367
vt 18.70079 -3.375078E-13
vt 19.68504 -3.606004E-13
vt 19.68504 -8.803417
vt 21.65354 -10.77192
vt -20.58193 -10.77192
vt -19.70159 -8.803417
vt -21.65354 19.57534
vt 22.34261 19.57534
vt -21.65354 17.60683
vt 20.58193 17.60683
vt -18.70079 3.099743E-13
vt -19.68504 3.321787E-13
vt -18.70079 35.21367
vt -21.65354 35.21367
vt -19.68504 -8.803417
vt -21.65354 -10.77192
vt 19.70159 -8.803417
vt 20.58193 -10.77192
vt 19.54979 -4.531597
vt -21.65354 -4.531597
vt -1.705303E-13 39.15068
vt -21.65354 39.15068
vt -19.54979 -4.531597
vt 1.705303E-13 39.15068
vt 21.65354 -4.531597
vt 21.65354 39.15068
vt -20.56538 17.62164
vt -22.32607 19.59014
vt 20.56538 17.62164
vt 22.32607 19.59014
vt 20.56538 -10.77932
vt -20.56538 -10.77932
vt 19.68504 -8.810818
vt -19.68504 -8.810818
vt -15.74803 7.874016
vt -15.74803 0
vt -19.68504 0
vt 15.74803 7.874016
vt 19.68504 0
vt 15.74803 0
vt -18.70079 0
vt -18.70079 7.874016
vt -19.68504 7.874016
vt 18.70079 0
vt 19.68504 7.874016
vt 18.70079 7.874016
vt 19.68504 15.74803
vt 18.70079 15.74803
vt 19.68504 19.68504
vt -19.70159 19.68504
vt -19.70159 -19.68504
vt 18.70079 -15.74803
vt 19.68504 -15.74803
vt 19.68504 -19.68504
vt 1.046422E-12 39.37008
vt 22.34261 -10.77192
vt -22.34261 -10.77192
vt -22.32607 -10.78513
vt 22.32607 -10.78513

usemtl roofRed

f 3/3/1 2/2/1 1/1/1
f 6/6/2 5/5/2 4/4/2
f 5/5/2 6/6/2 7/7/2
f 10/10/3 9/9/3 8/8/3
f 9/9/3 10/10/3 11/11/3
f 11/11/3 10/10/3 12/12/3
f 11/11/3 12/12/3 13/13/3
f 11/11/3 13/13/3 4/14/3
f 4/14/3 13/13/3 6/15/3
f 15/18/4 11/17/4 14/16/4
f 16/19/4 11/17/4 15/18/4
f 17/20/4 11/17/4 16/19/4
f 17/20/4 9/21/4 11/17/4
f 9/21/4 17/20/4 18/22/4
f 19/23/4 18/22/4 17/20/4
f 9/26/5 20/25/5 8/24/5
f 20/25/5 9/26/5 18/27/5
f 14/30/6 22/29/6 21/28/6
f 11/31/6 22/29/6 14/30/6
f 11/31/6 23/32/6 22/29/6
f 4/33/6 23/32/6 11/31/6
f 4/33/6 24/34/6 23/32/6
f 24/34/6 4/33/6 5/35/6
f 2/38/7 10/37/7 1/36/7
f 10/37/7 2/38/7 12/39/7
f 13/42/8 2/41/8 3/40/8
f 2/41/8 13/42/8 12/43/8
f 5/46/9 20/45/9 18/44/9
f 20/45/9 5/46/9 7/47/9
f 19/50/10 5/49/10 18/48/10
f 5/49/10 19/50/10 24/51/10

usemtl wood

f 23/54/3 25/53/3 22/52/3
f 26/57/3 17/56/3 16/55/3
f 21/59/11 25/54/11 27/58/11
f 25/54/11 21/59/11 22/60/11
f 16/62/12 28/61/12 26/56/12
f 28/61/12 16/62/12 15/63/12

usemtl woodDark

f 23/66/13 27/65/13 25/64/13
f 27/65/13 23/66/13 24/67/13
f 27/65/13 24/67/13 19/68/13
f 19/68/13 28/69/13 27/65/13
f 19/68/13 26/70/13 28/69/13
f 26/70/13 19/68/13 17/71/13
f 14/72/3 28/57/3 15/55/3
f 28/57/3 14/72/3 27/53/3
f 27/53/3 14/72/3 21/52/3

usemtl roofRedLight

f 20/73/7 10/37/7 8/33/7
f 10/37/7 20/73/7 1/36/7
f 6/21/8 3/40/8 7/74/8
f 3/40/8 6/21/8 13/42/8
f 7/76/1 1/1/1 20/75/1
f 1/1/1 7/76/1 3/3/1

