# Created by Kenney (www.kenney.nl)

mtllib stairsFullCornerInner.mtl

g stairsFullCornerInner

v -0.375 0.125 -0.5
v -0.375 0.125 -0.375
v -0.5 0.125 -0.5
v -0.5 0.125 -0.375
v 0.5 0 0.5
v 0.5 0 -0.5
v -0.5 0 0.5
v -0.5 0 -0.5
v -0.375 0.2125 -0.5
v -0.375 0.2125 -0.375
v 0.5 0.5 -0.5
v -0.25 0.25 -0.5
v -0.395 0.25 -0.5
v -0.395 0.2125 -0.5
v -0.25 0.3375 -0.5
v -0.125 0.375 -0.5
v -0.27 0.375 -0.5
v -0.27 0.3375 -0.5
v -0.125 0.4625 -0.5
v -0.145 0.5 -0.5
v -0.145 0.4625 -0.5
v 0.5 0.5 0.5
v -0.5 0.5 0.5
v -0.145 0.5 -0.145
v -0.5 0.5 -0.145
v -0.27 0.3375 -0.27
v -0.27 0.375 -0.27
v -0.145 0.4625 -0.145
v -0.125 0.375 -0.125
v -0.125 0.4625 -0.125
v -0.5 0.2125 -0.395
v -0.395 0.2125 -0.395
v -0.5 0.25 -0.395
v -0.395 0.25 -0.395
v -0.25 0.25 -0.25
v -0.25 0.3375 -0.25
v -0.5 0.4625 -0.145
v -0.5 0.3375 -0.27
v -0.5 0.3375 -0.25
v -0.5 0.25 -0.25
v -0.5 0.2125 -0.375
v -0.5 0.375 -0.125
v -0.5 0.375 -0.27
v -0.5 0.4625 -0.125

vn 0 1 0
vn 0 -1 0
vn -1 0 0
vn 0 0 -1
vn 0 0 1
vn 1 0 0

vt 14.76378 -19.68504
vt 14.76378 -14.76378
vt 19.68504 -19.68504
vt 19.68504 -14.76378
vt 19.68504 19.68504
vt -19.68504 19.68504
vt -19.68504 -19.68504
vt -19.68504 4.92126
vt -19.68504 8.366141
vt -14.76378 4.92126
vt -14.76378 8.366141
vt 19.68504 -9.916559E-13
vt -19.68504 -9.916559E-13
vt 19.68504 4.92126
vt 14.76378 4.92126
vt 9.84252 9.84252
vt 14.76378 8.366141
vt 15.55118 9.84252
vt 15.55118 8.366141
vt 9.84252 13.2874
vt 4.92126 14.76378
vt 10.62992 14.76378
vt 10.62992 13.2874
vt 4.92126 18.20866
vt 5.708662 19.68504
vt 5.708662 18.20866
vt 19.68504 4.591199E-13
vt -19.68504 4.591199E-13
vt 5.708662 -19.68504
vt 5.708662 -5.708662
vt 19.68504 -5.708662
vt 19.68504 0
vt -19.68504 0
vt -19.68504 13.2874
vt -19.68504 14.76378
vt -10.62992 13.2874
vt -10.62992 14.76378
vt -19.68504 18.20866
vt -5.708662 18.20866
vt -5.708662 19.68504
vt -4.92126 14.76378
vt -4.92126 18.20866
vt 19.68504 8.366141
vt 19.68504 9.84252
vt -19.68504 9.84252
vt -15.55118 8.366141
vt -15.55118 9.84252
vt -9.84252 9.84252
vt -9.84252 13.2874
vt 19.68504 18.20866
vt -19.68504 -10.62992
vt -19.68504 -9.84252
vt -10.62992 -10.62992
vt -9.84252 -9.84252
vt -9.84252 -19.68504
vt -10.62992 -19.68504
vt 19.68504 13.2874
vt -19.68504 4.07351E-13
vt 19.68504 4.07351E-13
vt 19.68504 14.76378
vt -19.68504 -15.55118
vt -19.68504 -14.76378
vt -15.55118 -15.55118
vt -14.76378 -14.76378
vt -14.76378 -19.68504
vt -15.55118 -19.68504
vt 9.84252 -19.68504
vt 9.84252 -9.84252
vt 15.55118 -19.68504
vt 15.55118 -15.55118
vt 19.68504 -9.84252
vt 19.68504 -15.55118
vt 4.92126 -19.68504
vt 10.62992 -10.62992
vt 10.62992 -19.68504
vt 4.92126 -4.92126
vt 19.68504 -4.92126
vt 19.68504 -10.62992
vt -19.68504 -5.708662
vt -19.68504 -4.92126
vt -5.708662 -5.708662
vt -4.92126 -4.92126
vt -4.92126 -19.68504
vt -5.708662 -19.68504

usemtl stone

f 3/3/1 2/2/1 1/1/1
f 2/2/1 3/3/1 4/4/1
f 7/6/2 6/3/2 5/5/2
f 6/3/2 7/6/2 8/7/2
f 2/10/3 9/9/3 1/8/3
f 9/9/3 2/10/3 10/11/3
f 3/14/4 6/13/4 8/12/4
f 6/13/4 3/14/4 1/15/4
f 1/15/4 11/6/4 6/13/4
f 11/6/4 1/15/4 12/16/4
f 12/16/4 1/15/4 9/17/4
f 12/16/4 9/17/4 13/18/4
f 13/18/4 9/17/4 14/19/4
f 11/6/4 12/16/4 15/20/4
f 11/6/4 15/20/4 16/21/4
f 16/21/4 15/20/4 17/22/4
f 17/22/4 15/20/4 18/23/4
f 11/6/4 16/21/4 19/24/4
f 11/6/4 19/24/4 20/25/4
f 20/25/4 19/24/4 21/26/4
f 22/5/5 7/28/5 5/27/5
f 7/28/5 22/5/5 23/6/5
f 20/29/1 22/6/1 11/7/1
f 22/6/1 20/29/1 24/30/1
f 24/30/1 23/5/1 22/6/1
f 23/5/1 24/30/1 25/31/1
f 11/5/6 5/33/6 6/32/6
f 5/33/6 11/5/6 22/6/6
f 26/36/3 17/35/3 18/34/3
f 17/35/3 26/36/3 27/37/3
f 28/39/3 20/6/3 21/38/3
f 20/6/3 28/39/3 24/40/3
f 29/41/3 19/38/3 16/35/3
f 19/38/3 29/41/3 30/42/3
f 33/44/4 32/19/4 31/43/4
f 32/19/4 33/44/4 34/18/4
f 32/46/3 13/45/3 14/9/3
f 13/45/3 32/46/3 34/47/3
f 35/48/3 15/34/3 12/45/3
f 15/34/3 35/48/3 36/49/3
f 37/50/4 24/25/4 28/26/4
f 24/25/4 37/50/4 25/5/4
f 26/53/2 39/52/2 38/51/2
f 26/53/2 36/54/2 39/52/2
f 36/54/2 26/53/2 15/55/2
f 18/56/2 15/55/2 26/53/2
f 40/44/4 36/20/4 35/16/4
f 36/20/4 40/44/4 39/57/4
f 7/59/3 3/8/3 8/58/3
f 3/8/3 7/59/3 4/10/3
f 4/10/3 7/59/3 41/11/3
f 41/11/3 7/59/3 40/48/3
f 40/48/3 31/46/3 41/11/3
f 31/46/3 40/48/3 33/47/3
f 40/48/3 7/59/3 42/41/3
f 42/41/3 39/49/3 40/48/3
f 42/41/3 38/36/3 39/49/3
f 38/36/3 42/41/3 43/37/3
f 42/41/3 7/59/3 44/42/3
f 23/5/3 44/42/3 7/59/3
f 23/5/3 37/39/3 44/42/3
f 37/39/3 23/5/3 25/40/3
f 44/50/4 29/21/4 42/60/4
f 29/21/4 44/50/4 30/24/4
f 32/63/2 41/62/2 31/61/2
f 32/63/2 10/64/2 41/62/2
f 10/64/2 32/63/2 9/65/2
f 14/66/2 9/65/2 32/63/2
f 13/69/1 35/68/1 12/67/1
f 35/68/1 13/69/1 34/70/1
f 34/70/1 40/71/1 35/68/1
f 40/71/1 34/70/1 33/72/1
f 43/60/4 26/23/4 38/57/4
f 26/23/4 43/60/4 27/22/4
f 17/75/1 27/74/1 16/73/1
f 27/74/1 29/76/1 16/73/1
f 29/76/1 27/74/1 42/77/1
f 42/77/1 27/74/1 43/78/1
f 41/43/4 2/15/4 4/14/4
f 2/15/4 41/43/4 10/17/4
f 28/81/2 44/80/2 37/79/2
f 28/81/2 30/82/2 44/80/2
f 30/82/2 28/81/2 19/83/2
f 21/84/2 19/83/2 28/81/2

