# Created by Kenney (www.kenney.nl)

mtllib stairsWideStoneHandrail.mtl

g stairsWideStoneHandrail

v -0.145 0.4625 -0.5
v -0.145 0.5 -0.5
v -0.145 0.4625 0.5
v -0.145 0.5 0.5
v -0.375 0.2125 0.5
v -0.375 0.2125 -0.5
v -0.395 0.2125 0.5
v -0.395 0.2125 -0.5
v 0.25 0.75 -0.5
v 0.25 0.8375 -0.5
v 0.25 0.75 0.5
v 0.25 0.8375 0.5
v 0.375 0.9625 0.5
v 0.375 0.9625 -0.5
v 0.355 0.9625 0.5
v 0.355 0.9625 -0.5
v 0.375 0.875 -0.5
v 0.375 0.875 0.5
v 0.355 1 -0.5
v 0.355 1 0.5
v -0.25 0.25 -0.5
v -0.25 0.3375 -0.5
v -0.25 0.25 0.5
v -0.25 0.3375 0.5
v -0.425 2.819966E-18 0.5
v -0.425 5.561603E-15 -0.5
v -0.5 0 0.5
v -0.5 0 -0.5
v -0.125 0.4625 0.5
v -0.125 0.4625 -0.5
v -0.02 0.5875 -0.5
v -0.02 0.625 -0.5
v -0.02 0.5875 0.5
v -0.02 0.625 0.5
v -0.395 0.25 0.5
v -0.395 0.25 -0.5
v 0.125 0.625 0.5
v 0.125 0.625 -0.5
v -1.443823E-15 0.5 -0.5
v -1.443823E-15 0.5875 -0.5
v 2.887646E-15 0.5 0.5
v 2.887646E-15 0.5875 0.5
v -0.375 0.125 0.5
v -0.52 0.125 0.5
v -0.375 0.125 -0.5
v -0.52 0.125 -0.5
v 0.5 1 -0.5
v 0.5 0.925 -0.5
v 0.5 1 0.5
v 0.5 0.925 0.5
v -0.125 0.375 -0.5
v -0.125 0.375 0.5
v 0.125 0.7125 -0.5
v 0.125 0.7125 0.5
v 0.23 0.8375 0.5
v 0.23 0.8375 -0.5
v 0.105 0.75 0.5
v 0.105 0.75 -0.5
v 0.23 0.875 -0.5
v 0.23 0.875 0.5
v -0.27 0.3375 0.5
v -0.27 0.3375 -0.5
v -0.52 0.0875 -0.5
v -0.52 0.0875 0.5
v -0.5 0.0875 -0.5
v -0.5 0.0875 0.5
v -0.27 0.375 -0.5
v 0.105 0.7125 -0.5
v -0.27 0.375 0.5
v 0.105 0.7125 0.5

vn -1 0 0
vn 0 -1 0
vn 0 1 0
vn 1 0 0
vn 0 0 -1
vn 0 0 1
vn 0.7071068 -0.7071068 0

vt -19.68504 18.20866
vt -19.68504 19.68504
vt 19.68504 18.20866
vt 19.68504 19.68504
vt -14.76378 19.68504
vt -14.76378 -19.68504
vt -15.55118 19.68504
vt -15.55118 -19.68504
vt -19.68504 29.52756
vt -19.68504 32.97244
vt 19.68504 29.52756
vt 19.68504 32.97244
vt 14.76378 19.68504
vt 14.76378 -19.68504
vt 13.97638 19.68504
vt 13.97638 -19.68504
vt -19.68504 34.44882
vt -19.68504 37.8937
vt 19.68504 34.44882
vt 19.68504 37.8937
vt -19.68504 39.37008
vt 19.68504 39.37008
vt -19.68504 9.84252
vt -19.68504 13.2874
vt 19.68504 9.84252
vt 19.68504 13.2874
vt -16.73228 19.68504
vt -16.73228 -19.68504
vt -19.68504 -19.68504
vt -4.92126 19.68504
vt -4.92126 -19.68504
vt -5.708662 19.68504
vt -5.708662 -19.68504
vt -19.68504 23.12992
vt -19.68504 24.6063
vt 19.68504 23.12992
vt 19.68504 24.6063
vt 9.84252 19.68504
vt 15.55118 19.68504
vt 9.84252 -19.68504
vt 15.55118 -19.68504
vt 0.7874016 19.68504
vt 0.7874016 -19.68504
vt -19.68504 8.366141
vt 19.68504 8.366141
vt 20.47244 19.68504
vt 20.47244 -19.68504
vt 19.68504 36.41732
vt -19.68504 36.41732
vt -19.68504 14.76378
vt 19.68504 14.76378
vt -19.68504 28.05118
vt 19.68504 28.05118
vt 9.055119 19.68504
vt 9.055119 -19.68504
vt -9.84252 19.68504
vt -4.133858 19.68504
vt -9.84252 -19.68504
vt -4.133858 -19.68504
vt -10.62992 19.68504
vt -10.62992 -19.68504
vt -19.68504 3.444882
vt -19.68504 4.92126
vt 19.68504 3.444882
vt 19.68504 4.92126
vt -9.055119 19.68504
vt -9.055119 -19.68504
vt -19.68504 1.624098E-13
vt 19.68504 1.624098E-13
vt -1.136868E-13 19.68504
vt 5.708662 19.68504
vt 5.684342E-14 -19.68504
vt 5.708662 -19.68504
vt 1.004234E-12 19.68504
vt 8.337035E-13 -19.68504
vt -0.7874016 19.68504
vt -0.7874016 -19.68504
vt -13.97638 19.68504
vt -13.97638 -19.68504
vt 20.47244 3.444882
vt 20.47244 4.92126
vt 14.76378 4.92126
vt 16.73228 -9.964265E-14
vt 19.68504 -3.186034E-13
vt 9.84252 9.84252
vt 14.76378 8.366141
vt 15.55118 9.84252
vt 15.55118 8.366141
vt 4.92126 14.76378
vt 9.84252 13.2874
vt 10.62992 14.76378
vt 10.62992 13.2874
vt -2.176452E-13 19.68504
vt 4.92126 18.20866
vt 5.708662 18.20866
vt -4.92126 24.6063
vt -2.176452E-13 23.12992
vt 0.7874016 24.6063
vt 0.7874016 23.12992
vt -9.84252 29.52756
vt -4.92126 28.05118
vt -4.133858 29.52756
vt -4.133858 28.05118
vt -14.76378 34.44882
vt -9.84252 32.97244
vt -9.055119 34.44882
vt -9.055119 32.97244
vt -14.76378 37.8937
vt -13.97638 39.37008
vt -13.97638 37.8937
vt -20.47244 19.68504
vt -20.47244 -19.68504
vt -19.68504 1.701372E-14
vt -16.73228 1.712474E-14
vt -14.76378 4.92126
vt -9.84252 9.84252
vt -20.47244 4.92126
vt -20.47244 3.444882
vt -14.76378 8.366141
vt -15.55118 9.84252
vt -15.55118 8.366141
vt -4.92126 14.76378
vt -9.84252 13.2874
vt -10.62992 14.76378
vt -10.62992 13.2874
vt 1.008882E-13 19.68504
vt -4.92126 18.20866
vt -5.708662 18.20866
vt 4.92126 24.6063
vt 1.008882E-13 23.12992
vt -0.7874016 24.6063
vt -0.7874016 23.12992
vt 9.84252 29.52756
vt 4.92126 28.05118
vt 4.133858 29.52756
vt 4.133858 28.05118
vt 14.76378 34.44882
vt 9.84252 32.97244
vt 9.055119 34.44882
vt 9.055119 32.97244
vt 14.76378 37.8937
vt 13.97638 39.37008
vt 13.97638 37.8937
vt 19.68504 -11.83151
vt -19.68504 -11.83151
vt 19.68504 39.67036
vt -19.68504 39.67036
vt 4.92126 19.68504
vt 10.62992 19.68504
vt 4.92126 -19.68504
vt 10.62992 -19.68504
vt 4.133858 19.68504
vt 4.133858 -19.68504

usemtl stone

f 3/3/1 2/2/1 1/1/1
f 2/2/1 3/3/1 4/4/1
f 7/7/2 6/6/2 5/5/2
f 6/6/2 7/7/2 8/8/2
f 11/11/1 10/10/1 9/9/1
f 10/10/1 11/11/1 12/12/1
f 15/15/2 14/14/2 13/13/2
f 14/14/2 15/15/2 16/16/2
f 18/19/1 14/18/1 17/17/1
f 14/18/1 18/19/1 13/20/1
f 15/20/1 19/21/1 16/18/1
f 19/21/1 15/20/1 20/22/1
f 23/25/1 22/24/1 21/23/1
f 22/24/1 23/25/1 24/26/1
f 27/2/2 26/28/2 25/27/2
f 26/28/2 27/2/2 28/29/2
f 3/32/2 30/31/2 29/30/2
f 30/31/2 3/32/2 1/33/2
f 33/36/1 32/35/1 31/34/1
f 32/35/1 33/36/1 34/37/1
f 21/40/3 35/39/3 23/38/3
f 35/39/3 21/40/3 36/41/3
f 38/31/3 34/42/3 37/30/3
f 34/42/3 38/31/3 32/43/3
f 7/45/1 36/23/1 8/44/1
f 36/23/1 7/45/1 35/25/1
f 41/4/1 40/34/1 39/2/1
f 40/34/1 41/4/1 42/36/1
f 45/14/3 44/46/3 43/13/3
f 44/46/3 45/14/3 46/47/3
f 49/21/4 48/48/4 47/22/4
f 48/48/4 49/21/4 50/49/4
f 52/51/1 30/1/1 51/50/1
f 30/1/1 52/51/1 29/3/1
f 37/37/1 53/52/1 38/35/1
f 53/52/1 37/37/1 54/53/1
f 55/54/2 10/40/2 12/38/2
f 10/40/2 55/54/2 56/55/2
f 9/58/3 57/57/3 11/56/3
f 57/57/3 9/58/3 58/59/3
f 55/12/1 59/17/1 56/10/1
f 59/17/1 55/12/1 60/19/1
f 61/60/2 22/58/2 24/56/2
f 22/58/2 61/60/2 62/61/2
f 64/64/1 46/63/1 63/62/1
f 46/63/1 64/64/1 44/65/1
f 43/65/1 6/44/1 45/63/1
f 6/44/1 43/65/1 5/45/1
f 17/6/3 60/66/3 18/5/3
f 60/66/3 17/6/3 59/67/3
f 27/69/1 65/62/1 28/68/1
f 65/62/1 27/69/1 66/64/1
f 39/72/3 4/71/3 41/70/3
f 4/71/3 39/72/3 2/73/3
f 33/76/2 40/75/2 42/74/2
f 40/75/2 33/76/2 31/77/2
f 47/29/3 20/78/3 49/2/3
f 20/78/3 47/29/3 19/79/3
f 46/81/5 65/64/5 63/80/5
f 45/82/5 65/64/5 46/81/5
f 26/83/5 65/64/5 45/82/5
f 65/64/5 26/83/5 28/84/5
f 26/83/5 45/82/5 48/49/5
f 48/49/5 45/82/5 21/85/5
f 21/85/5 45/82/5 6/86/5
f 21/85/5 6/86/5 36/87/5
f 36/87/5 6/86/5 8/88/5
f 48/49/5 21/85/5 51/89/5
f 51/89/5 21/85/5 22/90/5
f 51/89/5 22/90/5 67/91/5
f 67/91/5 22/90/5 62/92/5
f 48/49/5 51/89/5 39/93/5
f 39/93/5 51/89/5 30/94/5
f 39/93/5 30/94/5 2/71/5
f 2/71/5 30/94/5 1/95/5
f 48/49/5 39/93/5 38/96/5
f 38/96/5 39/93/5 40/97/5
f 38/96/5 40/97/5 32/98/5
f 32/98/5 40/97/5 31/99/5
f 48/49/5 38/96/5 9/100/5
f 9/100/5 38/96/5 53/101/5
f 9/100/5 53/101/5 58/102/5
f 58/102/5 53/101/5 68/103/5
f 48/49/5 9/100/5 17/104/5
f 17/104/5 9/100/5 10/105/5
f 17/104/5 10/105/5 59/106/5
f 59/106/5 10/105/5 56/107/5
f 48/49/5 17/104/5 14/108/5
f 48/49/5 14/108/5 47/21/5
f 47/21/5 14/108/5 19/109/5
f 19/109/5 14/108/5 16/110/5
f 64/111/2 65/29/2 66/2/2
f 65/29/2 64/111/2 63/112/2
f 25/114/6 66/62/6 27/113/6
f 66/62/6 25/114/6 43/115/6
f 43/115/6 25/114/6 50/48/6
f 43/115/6 50/48/6 23/116/6
f 66/62/6 43/115/6 44/117/6
f 44/117/6 64/118/6 66/62/6
f 43/115/6 23/116/6 5/119/6
f 5/119/6 23/116/6 35/120/6
f 35/120/6 7/121/6 5/119/6
f 23/116/6 50/48/6 52/122/6
f 23/116/6 52/122/6 24/123/6
f 24/123/6 52/122/6 69/124/6
f 69/124/6 61/125/6 24/123/6
f 52/122/6 50/48/6 41/126/6
f 52/122/6 41/126/6 29/127/6
f 29/127/6 41/126/6 4/32/6
f 4/32/6 3/128/6 29/127/6
f 41/126/6 50/48/6 37/129/6
f 41/126/6 37/129/6 42/130/6
f 42/130/6 37/129/6 34/131/6
f 34/131/6 33/132/6 42/130/6
f 37/129/6 50/48/6 11/133/6
f 37/129/6 11/133/6 54/134/6
f 54/134/6 11/133/6 57/135/6
f 57/135/6 70/136/6 54/134/6
f 11/133/6 50/48/6 18/137/6
f 11/133/6 18/137/6 12/138/6
f 12/138/6 18/137/6 60/139/6
f 60/139/6 55/140/6 12/138/6
f 18/137/6 50/48/6 13/141/6
f 13/141/6 50/48/6 49/22/6
f 13/141/6 49/22/6 20/142/6
f 20/142/6 15/143/6 13/141/6
f 61/26/1 67/50/1 62/24/1
f 67/50/1 61/26/1 69/51/1
f 48/146/7 25/145/7 26/144/7
f 25/145/7 48/146/7 50/147/7
f 51/150/3 69/149/3 52/148/3
f 69/149/3 51/150/3 67/151/3
f 70/152/2 53/150/2 54/148/2
f 53/150/2 70/152/2 68/153/2
f 70/53/1 58/9/1 68/52/1
f 58/9/1 70/53/1 57/11/1

g rail

v -0.09249997 0.5 -0.44
v -0.09249997 0.7725 -0.44
v -0.09249997 0.5 -0.42
v -0.09249997 0.7725 -0.42
v 0.5 1.445 -0.45
v 0.5 1.365 -0.45
v 0.5 1.445 -0.41
v 0.5 1.365 -0.41
v -0.3425 0.25 -0.44
v -0.3025 0.25 -0.44
v -0.3425 0.5225 -0.44
v -0.3025 0.5625 -0.44
v 0.1575 0.75 -0.44
v 0.1975 0.75 -0.44
v 0.1575 1.0225 -0.44
v 0.1975 1.0625 -0.44
v -0.3025 0.25 -0.42
v -0.3425 0.25 -0.42
v -0.3025 0.5625 -0.42
v -0.3425 0.5225 -0.42
v 0.1975 0.75 -0.42
v 0.1575 0.75 -0.42
v 0.1975 1.0625 -0.42
v 0.1575 1.0225 -0.42
v -0.52 0.345 -0.45
v -0.52 0.425 -0.45
v -0.52 0.345 -0.41
v -0.52 0.425 -0.41
v 0.4075 1 -0.44
v 0.4475 1 -0.44
v 0.4075 1.2725 -0.44
v 0.4475 1.3125 -0.44
v 0.4475 1.3125 -0.42
v 0.4475 1 -0.42
v 0.4075 1 -0.42
v 0.4075 1.2725 -0.42
v -0.05250001 0.5 -0.44
v -0.05250001 0.8125 -0.44
v -0.05250001 0.5 -0.42
v -0.05250001 0.8125 -0.42
v -0.52 0.345 0.41
v 0.5 1.365 0.41
v -0.52 0.425 0.41
v 0.5 1.445 0.41
v -0.52 0.345 0.45
v -0.52 0.425 0.45
v 0.5 1.365 0.45
v 0.5 1.445 0.45
v -0.3025 0.25 0.44
v -0.3425 0.25 0.44
v -0.3025 0.5625 0.44
v -0.3425 0.5225 0.44
v 0.1975 0.75 0.44
v 0.1575 0.75 0.44
v 0.1975 1.0625 0.44
v 0.1575 1.0225 0.44
v 0.1575 0.75 0.42
v 0.1975 0.75 0.42
v 0.1575 1.0225 0.42
v 0.1975 1.0625 0.42
v -0.3425 0.25 0.42
v -0.3025 0.25 0.42
v -0.3425 0.5225 0.42
v -0.3025 0.5625 0.42
v 0.4075 1 0.42
v 0.4475 1 0.42
v 0.4075 1.2725 0.42
v 0.4475 1.3125 0.42
v -0.05250001 0.5 0.44
v -0.09249997 0.5 0.44
v -0.05250001 0.8125 0.44
v -0.09249997 0.7725 0.44
v -0.05250001 0.8125 0.42
v -0.05250001 0.5 0.42
v 0.4075 1 0.44
v 0.4075 1.2725 0.44
v -0.09249997 0.5 0.42
v -0.09249997 0.7725 0.42
v 0.4475 1 0.44
v 0.4475 1.3125 0.44

vn -0.7071068 0.7071068 0

vt -7.480315 9.84252
vt -7.480315 20.57087
vt -6.692914 9.84252
vt -6.692914 20.57087
vt 7.874016 47.04725
vt 7.874016 43.89764
vt 6.299212 47.04725
vt 6.299212 43.89764
vt 33.16929 0
vt 31.59449 0
vt 33.16929 10.72835
vt 31.59449 12.30315
vt 13.48425 19.68504
vt 11.90945 19.68504
vt 13.48425 30.41339
vt 11.90945 31.98819
vt -31.59449 0
vt -33.16929 0
vt -31.59449 12.30315
vt -33.16929 10.72835
vt -11.90945 19.68504
vt -13.48425 19.68504
vt -11.90945 31.98819
vt -13.48425 30.41339
vt -7.874016 3.740157
vt -7.874016 6.889764
vt -6.299212 3.740157
vt -6.299212 6.889764
vt 3.641732 29.52756
vt 2.066929 29.52756
vt 3.641732 40.25591
vt 2.066929 41.83071
vt 7.480315 41.83071
vt 7.480315 29.52756
vt 6.692914 41.83071
vt 6.692914 29.52756
vt -40.15748 3.740157
vt -40.15748 6.889764
vt 5.127053E-14 43.89764
vt 5.127053E-14 47.04725
vt 7.480315 31.98819
vt 7.480315 19.68504
vt 6.692914 31.98819
vt 6.692914 19.68504
vt -7.480315 19.68504
vt -7.480315 30.41339
vt -6.692914 19.68504
vt -6.692914 30.41339
vt 40.15748 3.740157
vt -7.523393E-14 43.89764
vt 40.15748 6.889764
vt -7.523393E-14 47.04725
vt -7.480315 -1.757453E-13
vt -7.480315 10.72835
vt -6.692914 -1.757453E-13
vt -6.692914 10.72835
vt -2.066929 29.52756
vt -3.641732 29.52756
vt -2.066929 41.83071
vt -3.641732 40.25591
vt 23.32677 9.84252
vt 21.75197 9.84252
vt 23.32677 20.57087
vt 21.75197 22.14567
vt 7.480315 12.30315
vt 7.480315 0
vt 6.692914 12.30315
vt 6.692914 0
vt -7.480315 29.52756
vt -7.480315 40.25591
vt -6.692914 29.52756
vt -6.692914 40.25591
vt -7.874016 -23.52383
vt -7.874016 33.26743
vt -6.299212 -23.52383
vt -6.299212 33.26743
vt -21.75197 9.84252
vt -23.32677 9.84252
vt -21.75197 22.14567
vt -23.32677 20.57087
vt 7.480315 22.14567
vt 7.480315 9.84252
vt 6.692914 22.14567
vt 6.692914 9.84252
vt 2.85053E-13 43.89764
vt 2.85053E-13 47.04725
vt -2.243086E-13 43.89764
vt -2.243086E-13 47.04725
vt -25.98425 47.04725
vt -25.98425 43.89764
vt -27.55906 47.04725
vt -27.55906 43.89764
vt 26.37795 -1.757453E-13
vt 26.37795 10.72835
vt 27.16535 -1.757453E-13
vt 27.16535 10.72835
vt 25.98425 -23.52383
vt 25.98425 33.26743
vt 27.55906 -23.52383
vt 27.55906 33.26743
vt -26.37795 22.14567
vt -26.37795 9.84252
vt -27.16535 22.14567
vt -27.16535 9.84252
vt 26.37795 29.52756
vt 26.37795 40.25591
vt 27.16535 29.52756
vt 27.16535 40.25591
vt 25.98425 3.740157
vt 25.98425 6.889764
vt 27.55906 3.740157
vt 27.55906 6.889764
vt 26.37795 9.84252
vt 26.37795 20.57087
vt 27.16535 9.84252
vt 27.16535 20.57087
vt 26.37795 19.68504
vt 26.37795 30.41339
vt 27.16535 19.68504
vt 27.16535 30.41339
vt -26.37795 12.30315
vt -26.37795 0
vt -27.16535 12.30315
vt -27.16535 0
vt -26.37795 31.98819
vt -26.37795 19.68504
vt -27.16535 31.98819
vt -27.16535 19.68504
vt -26.37795 41.83071
vt -26.37795 29.52756
vt -27.16535 41.83071
vt -27.16535 29.52756
vt 6.692914 28.11724
vt 6.299212 31.04032
vt 7.480315 28.11724
vt 6.692914 25.89013
vt 7.874016 31.04032
vt 7.480315 -15.86814
vt 7.874016 -25.75094
vt 7.480315 25.89013
vt 6.299212 -25.75094
vt 7.480315 14.19781
vt 6.692914 14.19781
vt 7.480315 11.97071
vt 6.692914 11.97071
vt 6.692914 -15.86814
vt 6.692914 -13.64104
vt 7.480315 0.2783885
vt 7.480315 -1.94872
vt 6.692914 0.2783885
vt 7.480315 -13.64104
vt 6.692914 -1.94872
vt -27.16535 28.11724
vt -27.55906 31.04032
vt -26.37795 28.11724
vt -27.16535 25.89013
vt -25.98425 31.04032
vt -26.37795 -15.86814
vt -25.98425 -25.75094
vt -26.37795 25.89013
vt -27.55906 -25.75094
vt -26.37795 14.19781
vt -27.16535 14.19781
vt -26.37795 11.97071
vt -27.16535 11.97071
vt -27.16535 -15.86814
vt -27.16535 -13.64104
vt -26.37795 0.2783885
vt -26.37795 -1.94872
vt -27.16535 0.2783885
vt -26.37795 -13.64104
vt -27.16535 -1.94872

usemtl wood

f 73/156/1 72/155/1 71/154/1
f 72/155/1 73/156/1 74/157/1
f 77/160/4 76/159/4 75/158/4
f 76/159/4 77/160/4 78/161/4
f 81/164/5 80/163/5 79/162/5
f 80/163/5 81/164/5 82/165/5
f 85/168/5 84/167/5 83/166/5
f 84/167/5 85/168/5 86/169/5
f 89/172/6 88/171/6 87/170/6
f 88/171/6 89/172/6 90/173/6
f 93/176/6 92/175/6 91/174/6
f 92/175/6 93/176/6 94/177/6
f 97/180/1 96/179/1 95/178/1
f 96/179/1 97/180/1 98/181/1
f 101/184/5 100/183/5 99/182/5
f 100/183/5 101/184/5 102/185/5
f 103/188/4 100/187/4 102/186/4
f 100/187/4 103/188/4 104/189/4
f 78/192/6 98/191/6 97/190/6
f 98/191/6 78/192/6 77/193/6
f 93/196/4 84/195/4 86/194/4
f 84/195/4 93/196/4 91/197/4
f 92/200/1 85/199/1 83/198/1
f 85/199/1 92/200/1 94/201/1
f 96/204/5 76/203/5 95/202/5
f 76/203/5 96/204/5 75/205/5
f 88/208/1 81/207/1 79/206/1
f 81/207/1 88/208/1 90/209/1
f 103/212/6 105/211/6 104/210/6
f 105/211/6 103/212/6 106/213/6
f 72/216/5 107/215/5 71/214/5
f 107/215/5 72/216/5 108/217/5
f 89/220/4 80/219/4 82/218/4
f 80/219/4 89/220/4 87/221/4
f 105/224/1 101/223/1 99/222/1
f 101/223/1 105/224/1 106/225/1
f 98/228/8 75/227/8 96/226/8
f 75/227/8 98/228/8 77/229/8
f 110/232/6 73/231/6 109/230/6
f 73/231/6 110/232/6 74/233/6
f 110/236/4 107/235/4 108/234/4
f 107/235/4 110/236/4 109/237/4
f 113/204/5 112/238/5 111/202/5
f 112/238/5 113/204/5 114/239/5
f 117/240/6 116/191/6 115/190/6
f 116/191/6 117/240/6 118/241/6
f 121/172/6 120/171/6 119/170/6
f 120/171/6 121/172/6 122/173/6
f 125/176/6 124/175/6 123/174/6
f 124/175/6 125/176/6 126/177/6
f 118/244/4 112/243/4 114/242/4
f 112/243/4 118/244/4 117/245/4
f 129/168/5 128/167/5 127/166/5
f 128/167/5 129/168/5 130/169/5
f 133/164/5 132/163/5 131/162/5
f 132/163/5 133/164/5 134/165/5
f 120/248/1 133/247/1 131/246/1
f 133/247/1 120/248/1 122/249/1
f 137/184/5 136/183/5 135/182/5
f 136/183/5 137/184/5 138/185/5
f 116/252/8 114/251/8 113/250/8
f 114/251/8 116/252/8 118/253/8
f 141/232/6 140/231/6 139/230/6
f 140/231/6 141/232/6 142/233/6
f 141/256/4 144/255/4 143/254/4
f 144/255/4 141/256/4 139/257/4
f 145/260/1 137/259/1 135/258/1
f 137/259/1 145/260/1 146/261/1
f 115/264/1 113/263/1 111/262/1
f 113/263/1 115/264/1 116/265/1
f 140/268/1 148/267/1 147/266/1
f 148/267/1 140/268/1 142/269/1
f 150/212/6 145/211/6 149/210/6
f 145/211/6 150/212/6 146/213/6
f 124/272/1 129/271/1 127/270/1
f 129/271/1 124/272/1 126/273/1
f 121/276/4 132/275/4 134/274/4
f 132/275/4 121/276/4 119/277/4
f 148/216/5 144/215/5 147/214/5
f 144/215/5 148/216/5 143/217/5
f 125/280/4 128/279/4 130/278/4
f 128/279/4 125/280/4 123/281/4
f 150/284/4 136/283/4 138/282/4
f 136/283/4 150/284/4 149/285/4
f 102/288/7 78/287/7 103/286/7
f 103/286/7 78/287/7 106/289/7
f 78/287/7 102/288/7 76/290/7
f 81/291/7 76/290/7 102/288/7
f 81/291/7 95/292/7 76/290/7
f 81/291/7 102/288/7 101/293/7
f 95/292/7 81/291/7 97/294/7
f 106/289/7 86/295/7 101/293/7
f 81/291/7 101/293/7 86/295/7
f 86/295/7 106/289/7 93/296/7
f 106/289/7 78/287/7 93/296/7
f 81/291/7 86/295/7 85/297/7
f 93/296/7 78/287/7 94/298/7
f 90/299/7 78/287/7 97/294/7
f 97/294/7 81/291/7 90/299/7
f 89/300/7 78/287/7 90/299/7
f 81/291/7 85/297/7 108/301/7
f 94/298/7 108/301/7 85/297/7
f 81/291/7 108/301/7 72/302/7
f 108/301/7 94/298/7 110/303/7
f 94/298/7 78/287/7 110/303/7
f 81/291/7 72/302/7 82/304/7
f 110/303/7 78/287/7 74/305/7
f 74/305/7 78/287/7 89/300/7
f 74/305/7 82/304/7 72/302/7
f 82/304/7 74/305/7 89/300/7
f 138/308/7 117/307/7 150/306/7
f 150/306/7 117/307/7 146/309/7
f 117/307/7 138/308/7 112/310/7
f 133/311/7 112/310/7 138/308/7
f 133/311/7 111/312/7 112/310/7
f 133/311/7 138/308/7 137/313/7
f 111/312/7 133/311/7 115/314/7
f 146/309/7 130/315/7 137/313/7
f 133/311/7 137/313/7 130/315/7
f 130/315/7 146/309/7 125/316/7
f 146/309/7 117/307/7 125/316/7
f 133/311/7 130/315/7 129/317/7
f 125/316/7 117/307/7 126/318/7
f 122/319/7 117/307/7 115/314/7
f 115/314/7 133/311/7 122/319/7
f 121/320/7 117/307/7 122/319/7
f 133/311/7 129/317/7 143/321/7
f 126/318/7 143/321/7 129/317/7
f 133/311/7 143/321/7 148/322/7
f 143/321/7 126/318/7 141/323/7
f 126/318/7 117/307/7 141/323/7
f 133/311/7 148/322/7 134/324/7
f 141/323/7 117/307/7 142/325/7
f 142/325/7 117/307/7 121/320/7
f 142/325/7 134/324/7 148/322/7
f 134/324/7 142/325/7 121/320/7

