# Created by Kenney (www.kenney.nl)

mtllib treeHighCrooked.mtl

g treeHighCrooked

v 0.1584724 0.8909026 -0.01937344
v 0.1604343 0.8463057 -0.01937344
v 0.1584724 0.8909026 0.02526656
v 0.1604343 0.8463057 0.02526656
v 0.06196394 0.9003503 -0.03305344
v 0.06196394 0.9003503 0.03894656
v -0.14432 0 -0.14432
v 0.14432 0 -0.14432
v -0.093808 0.17648 -0.093808
v 0.093808 0.17648 -0.093808
v -0.14432 0 0.14432
v -0.093808 0.17648 0.093808
v 0.14432 0 0.14432
v 0.093808 0.17648 0.093808
v 0.06512826 0.8284197 0.03894656
v 0.06512826 0.8284197 -0.03305344
v -0.05558124 1.04544 -0.05558124
v -0.05558124 1.04544 0.05558124
v 0.02980023 0.585065 0.1879421
v -0.00619977 0.585065 0.1879421
v 0.02980023 0.6290225 0.1860083
v -0.00619977 0.6290225 0.1860083
v 0.04780023 0.6460789 0.07314969
v -0.02419977 0.6460789 0.07314969
v -0.02419977 0.558164 0.07701719
v 0.04780023 0.558164 0.07701719
v -0.01226793 0.3175712 -0.1576689
v 0.03813208 0.3175712 -0.1576689
v -0.01226793 0.3679225 -0.1554539
v 0.03813208 0.3679225 -0.1554539
v 0.05293207 0.2997091 -0.08838698
v 0.05293207 0.3796318 -0.08487107
v -0.02706793 0.2997091 -0.08838698
v -0.02706793 0.3796318 -0.08487107
v 0.05558124 1.04544 0.05558124
v 0.05558124 1.04544 -0.05558124
v -0.1006437 2.449185 -0.09425555
v 5.775291E-15 2.97258 -0.01091935
v -0.1423316 2.452521 0.006332775
v 6.497203E-15 2.447802 -0.1359206
v 0.1423316 2.452521 0.006332775
v 0.1006437 2.455858 0.1069211
v -0.1006437 2.455858 0.1069211
v 0.1006437 2.449185 -0.09425555
v 6.497203E-15 2.457241 0.1485861
v 0.3806707 1.478026 -0.02679997
v 0.2615198 1.463682 0.2624821
v 0.2874071 1.717237 -0.004187826
v 0.2028099 1.707054 0.2012025
v 0.00102693 2.106595 0.2004671
v -0.01713804 2.31848 0.1381066
v 0.1422605 2.118703 0.1417516
v 0.08303039 2.317206 0.09969349
v 0.2007614 2.123718 -2.887646E-15
v 0.1268307 2.313899 -7.219114E-16
v -0.1800935 1.881912 -0.1996502
v -0.1402066 2.094487 -0.1417516
v -0.2624891 1.874848 -7.219114E-16
v -0.1987075 2.089472 -2.887646E-15
v 0.2177476 1.916019 -0.1996502
v 0.3001432 1.923083 -7.219114E-16
v 0.1422605 2.118703 -0.1417516
v -0.3616851 1.04544 -0.3616851
v 7.219114E-16 1.04544 -0.5115
v -0.2567964 1.33144 -0.2567964
v 6.497203E-15 1.33144 -0.363165
v 0.2615198 1.518142 -0.3136458
v 0.2028099 1.74572 -0.2078484
v -0.363165 1.33144 -4.331469E-15
v -0.2567964 1.33144 0.2567964
v -0.5115 1.04544 -7.219114E-16
v -0.3616851 1.04544 0.3616851
v -0.1402066 2.094487 0.1417516
v -0.1800935 1.881912 0.1996502
v 0.3616851 1.04544 0.3616851
v 7.219114E-16 1.04544 0.5115
v 0.2567964 1.33144 0.2567964
v 6.497203E-15 1.33144 0.363165
v -0.1532795 2.313899 -7.219114E-16
v -0.1136065 2.317091 0.09623454
v 5.775291E-15 2.307615 -0.1894375
v 0.1417516 2.309561 -0.1307544
v -0.02613584 1.483514 0.3847429
v -0.001425591 1.721134 0.2880076
v -0.1417516 2.318961 0.152593
v 5.775291E-15 2.320908 0.2112762
v 0.01882705 1.898965 0.282348
v 0.2177476 1.916019 0.1996502
v 0.2004671 2.314261 0.01091935
v 0.1417516 2.318961 0.152593
v 0.08501797 2.310545 -0.1011048
v -0.01634476 2.309227 -0.14083
v -0.1417516 2.309561 -0.1307544
v -0.1143747 2.310663 -0.097549
v -0.2004671 2.314261 0.01091935
v 0.363165 1.33144 -4.331469E-15
v 0.5115 1.04544 -7.219114E-16
v -0.3137915 1.580364 -0.3077641
v -0.2056611 1.789897 -0.2036724
v -0.4329424 1.56602 -0.01848204
v -0.2902583 1.779713 0.001717898
v 0.00102693 2.106595 -0.2004671
v 0.3616851 1.04544 -0.3616851
v 0.2567964 1.33144 -0.2567964
v 0.1752797 1.912378 -0.1459727
v -0.001425591 1.775817 -0.2904776
v 0.01246394 1.89842 -0.2288858
v -0.02613584 1.560532 -0.430025
v 0.01882705 1.898965 -0.282348
v 0.2336887 1.917386 0.01473175
v -0.195124 1.556767 -0.195124
v -0.2795217 1.547532 -7.219114E-16
v 0.2181598 1.472604 0.2181598
v 7.941025E-15 1.488447 0.3023921
v -0.2051805 1.520025 0.2051805
v -0.1678087 1.882965 -0.1674967
v -0.3137915 1.525904 0.2683638
v -0.2056611 1.751231 0.2053784
v 0.2068259 1.514013 -0.2068259
v 0.3041753 1.48384 -2.887646E-15
v 8.662937E-15 1.543598 -0.2810446
v 0.0172764 1.898833 0.2374779
v -0.1544396 1.884111 0.1808914
v 0.1706271 1.911979 0.1666573
v -0.2397987 1.876794 0.01089466

vn 0.9990338 0.04394889 0
vn 0.09742919 0.9952425 0
vn 0 0.2751701 -0.9613956
vn 0 0.1714603 -0.985191
vn -0.9613956 0.2751701 0
vn -0.985191 0.1714603 0
vn 0 0.2751701 0.9613956
vn 0 0.1714603 0.985191
vn 0.9613956 0.2751701 0
vn 0.985191 0.1714603 0
vn 0 -1 0
vn 0.1409386 0.006200083 0.989999
vn 0.1409386 0.006200083 -0.989999
vn 0.1844479 -0.9828423 0
vn -0.9990338 0.04394889 0
vn 0 0.04394889 0.9990338
vn 0 0.9887716 0.1494343
vn -0.9873304 0.006973726 0.1585248
vn 0.9873304 0.006973726 0.1585248
vn 0 -0.9718298 0.2356839
vn 0 0.04394889 -0.9990338
vn 0.9783715 0.009091079 -0.2066558
vn -0.9783715 0.009091079 -0.2066558
vn 0 0.9865172 -0.1636575
vn 0 -0.9683352 -0.2496542
vn -0.6671573 0.3090624 -0.6777769
vn -0.8957203 0.2325735 -0.3789389
vn -0.9435029 0.3311821 -0.01098645
vn 0 0.2999001 -0.9539706
vn -0.3710195 0.215177 -0.9033512
vn 0.8957203 0.257176 0.3626922
vn 0.9435029 0.3311821 -0.01098645
vn 0.6671573 0.3533018 0.6558041
vn -0.8957203 0.257176 0.3626922
vn -0.6671573 0.3533018 0.6558041
vn 0.6671573 0.3090624 -0.6777769
vn 0.3710195 0.215177 -0.9033512
vn 0.8957203 0.2325735 -0.3789389
vn 0 0.3624641 0.9319977
vn 0.3710195 0.2745726 0.8871045
vn -0.3710195 0.2745726 0.8871045
vn 0.9322374 0.3602414 0.03405284
vn 0.6737553 0.3291249 0.6616122
vn 0.948837 0.3143649 0.02971623
vn 0.6841006 0.2824955 0.6724602
vn -0.02795279 0.3260553 0.9449374
vn -0.04336679 0.2786493 0.9594133
vn 0.6377769 0.3831284 0.6681716
vn 0.6385053 0.3371084 0.6918589
vn 0.9135311 0.4067689 0
vn 0.9320253 0.3623151 0.007515698
vn -0.6869587 0.3081511 -0.6581268
vn -0.6936824 0.2689821 -0.6681717
vn -0.9585674 0.2848659 0
vn -0.9694366 0.2453416 0
vn 0.6244842 0.4205813 -0.6581267
vn 0.8960929 0.4438664 0
vn 0.6377769 0.3831284 -0.6681716
vn -0.6277025 0.4604119 -0.6277025
vn 0 0.4604119 -0.8877054
vn -0.6428906 0.4163931 -0.6428906
vn 0 0.4163931 -0.9091846
vn 0.6737553 0.4472689 -0.5882214
vn 0.6841006 0.4034982 -0.6076147
vn -0.9091846 0.4163931 0
vn -0.6428906 0.4163931 0.6428906
vn -0.8877054 0.4604119 0
vn -0.6277025 0.4604119 0.6277025
vn -0.6936824 0.2689821 0.6681717
vn -0.6869587 0.3081511 0.6581268
vn 0.6277025 0.4604119 0.6277025
vn 0 0.4604119 0.8877054
vn 0.6428906 0.4163931 0.6428906
vn 0 0.4163931 0.9091846
vn -0.9800944 0.1983886 0.007553337
vn -0.7059917 0.2218855 0.6725641
vn 0 0.3566471 -0.9342393
vn 0.6518824 0.3655996 -0.6643691
vn 0.04972418 0.3721471 0.9268409
vn 0.04497019 0.3265586 0.9441065
vn -0.6518824 0.4088261 0.6386788
vn 0 0.4177787 0.9085488
vn -0.0312372 0.3643662 0.9307318
vn 0.6244842 0.4205813 0.6581267
vn 0 -0.9994503 0.0331552
vn -0.6518824 0.3655996 -0.6643691
vn -0.9219008 0.3872128 -0.01284518
vn 0.9091846 0.4163931 0
vn 0.8877054 0.4604119 0
vn -0.5743069 0.5822501 -0.5754619
vn -0.5941601 0.5417455 -0.5945465
vn -0.832789 0.5511337 0.05209747
vn -0.8588966 0.5098761 0.04819748
vn 0.9219008 0.3872128 -0.01284518
vn 0.6518824 0.4088261 0.6386788
vn -0.7133883 0.2212101 -0.6649384
vn -0.02795279 0.3260553 -0.9449374
vn -0.04333138 0.2786525 -0.9594139
vn 0.6461009 0.3378008 -0.6844299
vn 0.6277025 0.4604119 -0.6277025
vn 0.6428906 0.4163931 -0.6428906
vn 0.7256306 0.3416241 -0.5972882
vn 0.04497019 0.4976823 -0.8661928
vn 0.08198084 0.4399623 -0.8942663
vn 0.04972418 0.539228 -0.8406907
vn -0.0312372 0.3643662 -0.9307318
vn 0.9658942 0.254972 0.04514262
vn -0.6610326 0.3609734 -0.6578253
vn -0.9323742 0.3608963 -0.02078578
vn 0.6578095 0.3609734 0.6610483
vn -0.02417072 0.3608688 0.9323033
vn -0.68155 0.3607924 0.6366463
vn -0.6054488 0.4900203 -0.6271458
vn -0.5743069 0.4641061 0.6743717
vn -0.5941601 0.4207428 0.6855285
vn 0.6366273 0.360792 -0.681568
vn 0.932371 0.3608951 -0.02095214
vn -0.1079994 -0.9897389 -0.09355788
vn -0.02400036 0.3608704 -0.9323072
vn 0.08163232 0.2646424 0.9608853
vn -0.5839704 0.3592494 0.727955
vn 0.7053901 0.2241362 0.6724492
vn -0.8879359 0.4554401 0.06437476
vn 0.0854169 -0.9963452 0

vt 0.7627337 34.76682
vt 0.7627337 33.00933
vt -0.9947466 34.76682
vt -0.9947466 33.00933
vt 0.7627337 -2.792069
vt -0.9947466 -2.792069
vt 1.301316 1.02564
vt -1.533329 1.02564
vt 5.68189 -1.563486
vt -5.68189 -1.563486
vt 3.693228 5.663541
vt -3.693228 5.663541
vt 5.68189 5.68189
vt 5.68189 -5.68189
vt -5.68189 5.68189
vt -5.68189 -5.68189
vt 2.3224 32.60268
vt 2.199064 35.43464
vt 6.11306 33.30686
vt 6.036592 35.06267
vt -2.355101 32.6041
vt -6.14576 33.30828
vt -2.231765 35.43606
vt -6.069292 35.0641
vt -0.9947466 12.35358
vt 0.7627337 12.35358
vt -1.533329 8.53587
vt 1.301316 8.53587
vt -3.693228 6.779005
vt -2.188238 41.02312
vt 3.693228 6.779005
vt 2.188238 41.02312
vt 1.173237 22.68661
vt -0.2440854 22.68661
vt 1.173237 24.41889
vt -0.2440854 24.41889
vt 1.881899 0.9534647
vt 1.173237 -3.540246
vt -0.9527469 0.9534647
vt -0.2440854 -3.540246
vt 2.692453 25.42582
vt 7.191863 24.75429
vt 2.842792 21.96451
vt 7.267032 23.02363
vt -2.545156 25.41942
vt -2.695494 21.95812
vt -7.044566 24.74789
vt -7.119735 23.01724
vt 1.881899 8.125899
vt -0.9527469 8.125899
vt 1.173237 12.61961
vt -0.2440854 12.61961
vt 0.4829892 12.21791
vt -1.501263 12.21791
vt 0.4829892 14.20217
vt -1.501263 14.20217
vt 5.763173 12.47727
vt 2.974004 11.77401
vt 5.67785 14.45969
vt 2.838571 14.9207
vt -5.973614 12.48633
vt -5.88829 14.46875
vt -3.184445 11.78307
vt -3.049011 14.92976
vt -2.08394 -0.850283
vt 1.065666 -0.850283
vt -1.501263 -3.667112
vt 0.4829892 -3.667112
vt -2.08394 6.315426
vt -1.501263 9.132256
vt 1.065666 6.315426
vt 0.4829892 9.132256
vt 1.881899 25.28503
vt 1.881899 21.82047
vt -0.9527469 25.28503
vt -0.9527469 21.82047
vt 1.065666 14.78484
vt 1.065666 11.63524
vt -2.08394 14.78484
vt -2.08394 11.63524
vt -1.533329 35.3054
vt 1.301316 35.3054
vt -1.533329 32.47075
vt 1.301316 32.47075
vt -1.873776 92.59554
vt -0.3959229 113.7826
vt 2.412912 92.73061
vt 2.255429 93.10331
vt -2.033025 93.04758
vt -0.1633255 114.2037
vt 0.3984689 113.1358
vt 1.872028 91.94843
vt -2.414632 92.08438
vt -1.872028 91.94843
vt -0.3984689 113.1358
vt 2.414632 92.08438
vt 2.033025 93.04758
vt -2.255429 93.10331
vt 0.1633255 114.2037
vt 0.3959229 113.7826
vt 1.873776 92.59554
vt -2.412912 92.73061
vt 2.031283 91.4852
vt -2.257159 91.54179
vt 0.1658748 112.6417
vt 2.257159 91.54179
vt -2.031283 91.4852
vt -0.1658748 112.6417
vt 6.880632 51.3236
vt -5.435337 50.73052
vt 4.614362 61.21466
vt -4.129976 60.79358
vt -2.81497 77.1665
vt -2.594382 85.88879
vt 3.205017 77.66492
vt 1.629265 85.83633
vt 3.100522 76.28101
vt -2.936423 76.0713
vt 1.95875 84.23272
vt -2.328046 84.37099
vt -4.646888 68.89784
vt -3.118006 77.57922
vt 3.856086 68.60937
vt 2.919106 77.3744
vt 3.832408 64.11241
vt -4.669971 64.41795
vt 2.913013 72.8793
vt -3.123675 73.09623
vt 7.7064 29.07815
vt -7.7064 29.07815
vt 5.471544 41.56392
vt -5.471544 41.56392
vt 8.178149 50.38395
vt -4.034273 48.68348
vt 5.029813 60.03056
vt -3.641006 58.82323
vt -2.919106 77.3744
vt 3.118006 77.57922
vt -3.856086 68.60937
vt 4.646888 68.89784
vt -2.940016 79.51594
vt -2.267876 88.50575
vt 3.097228 79.71684
vt 1.830145 88.63363
vt 2.821851 83.3598
vt -3.218187 83.44109
vt 2.024666 89.21348
vt -2.263761 89.27119
vt 5.15003 50.48471
vt -7.152791 51.30656
vt 4.031892 60.57029
vt -4.703111 61.1538
vt -2.817066 81.05151
vt -2.021778 86.90543
vt 3.222946 81.13475
vt 2.26663 86.96454
vt -3.24771 65.48522
vt -2.760157 74.2867
vt 5.229389 66.20812
vt 3.258583 74.79996
vt 7.892405 3.450516
vt 5.580773 -2.130257
vt 5.580773 9.031289
vt 4.993334 3.020384
vt 3.268913 6.947484
vt 3.347164 -0.962311
vt 2.273737E-13 11.34292
vt 2.273737E-13 -4.441888
vt -0.6747261 8.460645
vt -0.6434943 -2.527154
vt -5.580773 9.031289
vt -4.472697 6.81123
vt -5.580773 -2.130257
vt -4.50294 -0.8222401
vt -6.034625 3.020384
vt -7.892405 3.450516
vt -2.537153 82.6756
vt -1.852775 88.54353
vt 3.500201 82.87312
vt 2.433747 88.68376
vt -2.818741 78.59166
vt -2.577995 87.59482
vt 3.201961 79.08137
vt 1.562294 87.651
vt -6.979558 43.26849
vt -4.646716 53.14407
vt 5.332137 42.59246
vt 4.094588 52.66409
vt 1.849877 87.58761
vt 2.532356 81.71946
vt -2.436599 87.72923
vt -3.504935 81.91893
vt -3.097228 79.71684
vt -1.866736 88.37613
vt 2.940016 79.51594
vt 2.267876 88.50575
vt -3.271582 67.34579
vt -2.766488 76.14627
vt 5.20694 68.05179
vt 3.253263 76.64754
vt 2.81497 77.1665
vt -3.205017 77.66492
vt 2.604015 85.50788
vt -1.682142 85.56213
vt -1.849877 87.58761
vt 2.436599 87.72923
vt -2.532356 81.71946
vt 3.504935 81.91893
vt -2.821851 83.3598
vt -2.024666 89.21348
vt 3.218187 83.44109
vt 2.263761 89.27119
vt -3.73893 59.60804
vt -3.795841 66.69021
vt 4.921613 60.88701
vt 3.394068 66.09705
vt 2.817066 81.05151
vt -3.222946 81.13475
vt 2.021778 86.90543
vt -2.26663 86.96454
vt -5.01448 42.78193
vt -3.98502 52.87694
vt 7.280643 43.71186
vt 4.744517 53.53719
vt 2.537153 82.6756
vt -3.500201 82.87312
vt 1.852775 88.54353
vt -2.433747 88.68376
vt 3.271582 67.34579
vt -5.20694 68.05179
vt 2.766488 76.14627
vt -3.253263 76.64754
vt 4.877295 63.27612
vt -3.799196 62.11026
vt 2.973507 70.09785
vt -3.758142 70.30281
vt 3.24771 65.48522
vt -5.229389 66.20812
vt 2.760157 74.2867
vt -3.258583 74.79996
vt -5.471544 44.90983
vt -4.157493 54.33117
vt 5.471544 44.90983
vt 4.211351 53.94503
vt 4.648315 50.81213
vt -4.555923 51.47455
vt 4.555923 51.47455
vt -4.371766 52.7949
vt -4.078526 57.44841
vt -3.712545 62.86541
vt 4.653812 58.07053
vt 3.778628 62.18257
vt -8.298912 46.69822
vt -5.067451 56.3173
vt 3.898382 44.89243
vt 3.592628 55.03519
vt 4.406825 52.54354
vt -4.582788 51.28193
vt 2.936423 76.0713
vt -3.100522 76.28101
vt 2.348462 84.09248
vt -1.95875 84.23272
vt 10.61047 22.03216
vt 16.07471 10.9788
vt -1.069244 25.98427
vt 7.205544 16.93809
vt 11.39476 9.358961
vt -0.7764142 19.48269
vt 12.12261 -0.7009166
vt 8.998343 0.6581504
vt 0.8680755 -3.707116
vt 1.069244 -6.165161
vt -12.12261 20.52002
vt -8.363104 15.85398
vt -11.48614 7.702558
vt -16.07471 8.84031
vt -7.841068 -0.6111796
vt -10.61047 -2.213055
vt 3.123675 73.09623
vt 4.669971 64.41795
vt -2.913013 72.8793
vt -3.832408 64.11241
vt 3.893692 48.19994
vt -8.303063 50.00935
vt 3.590955 58.34279
vt -5.068742 59.62747
vt 2.818741 78.59166
vt -3.201961 79.08137
vt 2.584948 87.33482
vt -1.6339 87.27675
vt 4.234296 53.78051
vt -4.406825 52.54354
vt 3.760754 61.74251
vt -4.905715 62.98069
vt 3.785077 69.053
vt -3.330838 68.44737
vt 4.561874 64.02866
vt -4.183004 63.61894
vt 3.051643 72.08091
vt -3.424325 71.86341
vt 4.105726 63.44278
vt -4.630343 64.01011
vt 3.495826 71.69959
vt -3.153386 71.16988
vt 4.582788 51.28193
vt -4.648315 50.81213
vt -4.898377 60.37642
vt -3.710738 64.5327
vt 3.770749 59.15699
vt 3.777375 64.84599
vt -3.789923 45.46066
vt -3.553897 55.60528
vt 8.39467 47.35025
vt 5.097163 56.94689
vt 4.157493 54.33117
vt -4.234296 53.78051
vt -4.580271 57.73676
vt -3.785429 61.86509
vt 4.162537 57.28502
vt 3.787124 61.59132
vt -4.211351 53.94503
vt 4.371766 52.7949
vt 20.13779 -2.842171E-14
vt 14.23957 -14.23957
vt 14.23957 14.23957
vt 2.842171E-14 20.13779
vt 2.188238 2.188238
vt -2.188238 2.188238
vt 2.188238 -2.188238
vt 2.842171E-14 -20.13779
vt -14.23957 14.23957
vt -2.188238 -2.188238
vt -14.23957 -14.23957
vt -20.13779 -2.842171E-14
vt -7.12171 0.2779455
vt -7.860243 -0.7357551
vt -9.349524 7.063215
vt -0.4289238 -3.094975
vt -11.11606 7.124488
vt 2.834444E-14 -3.991575
vt -6.56131 13.12279
vt -7.860243 14.98473
vt 7.860243 -0.7357551
vt 6.594358 -0.2503293
vt 9.011253 6.873054
vt 11.11606 7.124488
vt 5.746955 13.30664
vt 7.860243 14.98473
vt -0.5799903 15.61464
vt 2.851007E-14 18.24055

usemtl wood

f 3/3/1 2/2/1 1/1/1
f 2/2/1 3/3/1 4/4/1
f 5/7/2 3/6/2 1/5/2
f 3/6/2 5/7/2 6/8/2
f 9/11/4 8/10/3 7/9/3
f 8/10/3 9/11/4 10/12/4
f 11/9/5 9/12/6 7/10/5
f 9/12/6 11/9/5 12/11/6
f 14/11/8 11/10/7 13/9/7
f 11/10/7 14/11/8 12/12/8
f 10/11/10 13/10/9 8/9/9
f 13/10/9 10/11/10 14/12/10
f 11/15/11 8/14/11 13/13/11
f 8/14/11 11/15/11 7/16/11
f 4/19/12 6/18/12 15/17/12
f 6/18/12 4/19/12 3/20/12
f 5/23/13 2/22/13 16/21/13
f 2/22/13 5/23/13 1/24/13
f 15/27/14 2/26/14 4/25/14
f 2/26/14 15/27/14 16/28/14
f 12/31/6 17/30/15 9/29/6
f 17/30/15 12/31/6 18/32/15
f 21/35/16 20/34/16 19/33/16
f 20/34/16 21/35/16 22/36/16
f 24/39/17 21/38/17 23/37/17
f 21/38/17 24/39/17 22/40/17
f 25/43/18 22/42/18 24/41/18
f 22/42/18 25/43/18 20/44/18
f 21/47/19 26/46/19 23/45/19
f 26/46/19 21/47/19 19/48/19
f 19/51/20 25/50/20 26/49/20
f 25/50/20 19/51/20 20/52/20
f 29/55/21 28/54/21 27/53/21
f 28/54/21 29/55/21 30/56/21
f 30/59/22 31/58/22 28/57/22
f 31/58/22 30/59/22 32/60/22
f 33/63/23 29/62/23 27/61/23
f 29/62/23 33/63/23 34/64/23
f 30/67/24 34/66/24 32/65/24
f 34/66/24 30/67/24 29/68/24
f 33/71/25 28/70/25 31/69/25
f 28/70/25 33/71/25 27/72/25
f 26/74/16 35/32/16 23/73/16
f 23/73/16 35/32/16 24/75/16
f 26/74/16 14/31/8 35/32/16
f 18/30/16 24/75/16 35/32/16
f 14/31/8 26/74/16 12/29/8
f 18/30/16 25/76/16 24/75/16
f 12/29/8 25/76/16 18/30/16
f 25/76/16 12/29/8 26/74/16
f 33/78/21 17/32/21 34/77/21
f 34/77/21 17/32/21 32/79/21
f 33/78/21 9/31/4 17/32/21
f 36/30/21 32/79/21 17/32/21
f 9/31/4 33/78/21 10/29/4
f 36/30/21 31/80/21 32/79/21
f 10/29/4 31/80/21 36/30/21
f 31/80/21 10/29/4 33/78/21
f 5/82/1 35/30/1 6/81/1
f 6/81/1 35/30/1 15/83/1
f 35/30/1 5/82/1 36/32/1
f 14/29/10 15/83/1 35/30/1
f 16/84/1 36/32/1 5/82/1
f 14/29/10 16/84/1 15/83/1
f 16/84/1 10/31/10 36/32/1
f 10/31/10 16/84/1 14/29/10

usemtl foliage

f 39/87/28 38/86/27 37/85/26
f 38/90/30 40/89/29 37/88/26
f 42/93/33 41/92/32 38/91/31
f 43/96/35 38/95/34 39/94/28
f 38/99/37 44/98/36 40/97/29
f 41/102/32 44/101/36 38/100/38
f 38/105/40 45/104/39 42/103/33
f 38/108/41 43/107/35 45/106/39
f 48/111/44 47/110/43 46/109/42
f 47/110/43 48/111/44 49/112/45
f 52/115/48 51/114/47 50/113/46
f 51/114/47 52/115/48 53/116/49
f 55/119/51 52/118/48 54/117/50
f 52/118/48 55/119/51 53/120/49
f 58/123/54 57/122/53 56/121/52
f 57/122/53 58/123/54 59/124/55
f 62/127/58 61/126/57 60/125/56
f 61/126/57 62/127/58 54/128/50
f 65/131/61 64/130/60 63/129/59
f 64/130/60 65/131/61 66/132/62
f 68/135/64 46/134/42 67/133/63
f 46/134/42 68/135/64 48/136/44
f 71/130/67 70/131/66 69/132/65
f 70/131/66 71/130/67 72/129/68
f 58/139/54 73/138/69 59/137/55
f 73/138/69 58/139/54 74/140/70
f 77/131/73 76/130/72 75/129/71
f 76/130/72 77/131/73 78/132/74
f 73/143/69 79/142/75 59/141/55
f 79/142/75 73/143/69 80/144/76
f 40/147/29 82/146/78 81/145/77
f 82/146/78 40/147/29 44/148/36
f 49/151/45 83/150/79 47/149/43
f 83/150/79 49/151/45 84/152/80
f 86/155/82 43/154/35 85/153/81
f 43/154/35 86/155/82 45/156/39
f 88/159/84 50/158/46 87/157/83
f 50/158/46 88/159/84 52/160/48
f 90/163/85 82/162/85 89/161/85
f 82/162/85 90/163/85 55/164/85
f 55/164/85 90/163/85 53/165/85
f 91/166/85 82/162/85 55/164/85
f 53/165/85 90/163/85 86/167/85
f 82/162/85 91/166/85 81/168/85
f 53/165/85 86/167/85 51/169/85
f 81/168/85 91/166/85 92/170/85
f 51/169/85 86/167/85 85/171/85
f 51/169/85 85/171/85 80/172/85
f 81/168/85 92/170/85 93/173/85
f 93/173/85 92/170/85 94/174/85
f 80/172/85 85/171/85 79/175/85
f 93/173/85 94/174/85 79/175/85
f 79/175/85 85/171/85 95/176/85
f 93/173/85 79/175/85 95/176/85
f 95/179/87 37/178/26 93/177/86
f 37/178/26 95/179/87 39/180/28
f 77/132/73 97/129/89 96/131/88
f 97/129/89 77/132/73 75/130/71
f 50/183/46 80/182/76 73/181/69
f 80/182/76 50/183/46 51/184/47
f 100/187/92 99/186/91 98/185/90
f 99/186/91 100/187/92 101/188/93
f 71/129/67 65/132/61 63/130/59
f 65/132/61 71/129/67 69/131/65
f 42/191/33 89/190/94 41/189/32
f 89/190/94 42/191/33 90/192/95
f 59/195/55 94/194/96 57/193/53
f 94/194/96 59/195/55 79/196/75
f 87/199/83 73/198/69 74/197/70
f 73/198/69 87/199/83 50/200/46
f 92/203/98 62/202/58 102/201/97
f 62/202/58 92/203/98 91/204/99
f 66/131/62 103/130/100 64/129/60
f 103/130/100 66/131/62 104/132/101
f 95/207/87 43/206/35 39/205/28
f 43/206/35 95/207/87 85/208/81
f 93/211/86 40/210/29 81/209/77
f 40/210/29 93/211/86 37/212/26
f 106/215/103 105/214/102 68/213/64
f 105/214/102 106/215/103 107/216/104
f 42/219/33 86/218/82 90/217/95
f 86/218/82 42/219/33 45/220/39
f 98/223/90 106/222/103 108/221/105
f 106/222/103 98/223/90 99/224/91
f 44/227/36 89/226/94 82/225/78
f 89/226/94 44/227/36 41/228/32
f 57/231/53 109/230/106 56/229/52
f 109/230/106 57/231/53 102/232/97
f 78/131/74 72/130/68 76/129/72
f 72/130/68 78/131/74 70/132/66
f 105/235/102 48/234/44 68/233/64
f 48/234/44 105/235/102 110/236/107
f 102/239/97 60/238/56 109/237/106
f 60/238/56 102/239/97 62/240/58
f 104/131/101 97/130/89 103/129/100
f 97/130/89 104/131/101 96/132/88
f 69/243/65 111/242/108 65/241/61
f 111/242/108 69/243/65 112/244/109
f 113/245/110 78/241/74 77/243/73
f 78/241/74 113/245/110 114/246/111
f 114/247/111 70/241/66 78/243/74
f 70/241/66 114/247/111 115/248/112
f 99/251/91 107/250/104 106/249/103
f 107/250/104 99/251/91 116/252/113
f 117/255/114 101/254/93 100/253/92
f 101/254/93 117/255/114 118/256/115
f 119/257/116 96/241/88 104/243/101
f 96/241/88 119/257/116 120/258/117
f 91/261/99 54/260/50 62/259/58
f 54/260/50 91/261/99 55/262/51
f 98/265/118 117/264/118 100/263/118
f 98/265/118 112/266/118 117/264/118
f 115/267/118 117/264/118 112/266/118
f 98/265/118 111/268/118 112/266/118
f 115/267/118 83/269/118 117/264/118
f 114/270/118 83/269/118 115/267/118
f 113/271/118 83/269/118 114/270/118
f 113/271/118 47/272/118 83/269/118
f 108/273/118 111/268/118 98/265/118
f 108/273/118 121/274/118 111/268/118
f 108/273/118 119/275/118 121/274/118
f 67/276/118 119/275/118 108/273/118
f 120/277/118 47/272/118 113/271/118
f 67/276/118 120/277/118 119/275/118
f 47/272/118 120/277/118 46/278/118
f 120/277/118 67/276/118 46/278/118
f 52/281/48 61/280/57 54/279/50
f 61/280/57 52/281/48 88/282/84
f 84/285/80 117/284/114 83/283/79
f 117/284/114 84/285/80 118/286/115
f 94/289/96 102/288/97 57/287/53
f 102/288/97 94/289/96 92/290/98
f 121/291/119 104/241/101 66/243/62
f 104/241/101 121/291/119 119/292/116
f 122/295/120 118/294/115 84/293/80
f 118/294/115 122/295/120 123/296/121
f 110/299/107 49/298/45 48/297/44
f 49/298/45 110/299/107 124/300/122
f 124/303/122 84/302/80 49/301/45
f 84/302/80 124/303/122 122/304/120
f 120/305/117 77/241/73 96/243/88
f 77/241/73 120/305/117 113/306/110
f 118/309/115 125/308/123 101/307/93
f 125/308/123 118/309/115 123/310/121
f 108/313/105 68/312/64 67/311/63
f 68/312/64 108/313/105 106/314/103
f 111/315/108 66/241/62 65/243/61
f 66/241/62 111/315/108 121/316/119
f 101/319/93 116/318/113 99/317/91
f 116/318/113 101/319/93 125/320/123
f 70/243/66 112/321/109 69/241/65
f 112/321/109 70/243/66 115/322/112
f 75/325/11 103/324/11 97/323/11
f 103/324/11 75/325/11 76/326/11
f 103/324/11 76/326/11 35/327/11
f 35/327/11 76/326/11 18/328/11
f 36/329/11 103/324/11 35/327/11
f 103/324/11 36/329/11 64/330/11
f 18/328/11 76/326/11 72/331/11
f 64/330/11 36/329/11 17/332/11
f 18/328/11 72/331/11 17/332/11
f 64/330/11 17/332/11 63/333/11
f 63/333/11 17/332/11 72/331/11
f 63/333/11 72/331/11 71/334/11
f 122/337/124 74/336/124 123/335/124
f 123/335/124 74/336/124 125/338/124
f 122/337/124 87/339/124 74/336/124
f 125/338/124 74/336/124 58/340/124
f 124/341/124 87/339/124 122/337/124
f 124/341/124 88/342/124 87/339/124
f 56/343/124 125/338/124 58/340/124
f 56/343/124 116/344/124 125/338/124
f 56/343/124 107/345/124 116/344/124
f 109/346/124 107/345/124 56/343/124
f 109/346/124 105/347/124 107/345/124
f 60/348/124 105/347/124 109/346/124
f 110/349/124 88/342/124 124/341/124
f 60/348/124 110/349/124 105/347/124
f 88/342/124 110/349/124 61/350/124
f 110/349/124 60/348/124 61/350/124

