# Created by Kenney (www.kenney.nl)

mtllib treeHigh.mtl

g treeHigh

v -0.1423316 2.452416 -2.887646E-15
v 3.609557E-15 2.972761 -2.887646E-15
v -0.1006437 2.452416 0.1006437
v 0.1006437 2.452416 0.1006437
v 5.05338E-15 2.452416 0.1423316
v 0.1423316 2.452416 -2.887646E-15
v 0.1006437 2.452416 -0.1006437
v 5.05338E-15 2.452416 -0.1423316
v -0.1006437 2.452416 -0.1006437
v -7.219114E-16 1.04544 -0.5115
v 0.3616851 1.04544 -0.3616851
v 5.05338E-15 1.33144 -0.363165
v 0.2567964 1.33144 -0.2567964
v -0.290532 1.74834 -1.443823E-15
v -0.2054371 1.74834 0.2054371
v -0.4092 1.51954 1.443823E-15
v -0.2893481 1.51954 0.2893481
v -0.2004671 2.31408 -1.443823E-15
v -0.1417516 2.31408 0.1417516
v -0.139612 2.31408 -4.331469E-15
v -0.09872058 2.31408 0.09872058
v -0.2004671 2.106551 -2.887646E-15
v -0.1417516 2.106551 0.1417516
v 5.05338E-15 2.106551 0.2004671
v 9.384848E-15 2.31408 0.139612
v 3.609557E-15 2.31408 -0.2004671
v 0.1417516 2.31408 -0.1417516
v 2.165734E-15 1.89816 0.282348
v -0.1996502 1.89816 0.1996502
v 0.1417516 2.31408 0.1417516
v 3.609557E-15 2.31408 0.2004671
v -7.219114E-16 1.04544 0.5115
v -0.3616851 1.04544 0.3616851
v 5.05338E-15 1.33144 0.363165
v -0.2567964 1.33144 0.2567964
v -7.219114E-16 1.51954 0.4092
v 3.609557E-15 1.74834 0.290532
v 0.2893481 1.51954 0.2893481
v 0.2054371 1.74834 0.2054371
v -7.219114E-16 1.51954 -0.4092
v 0.2893481 1.51954 -0.2893481
v 3.609557E-15 1.74834 -0.290532
v 0.2054371 1.74834 -0.2054371
v 0.290532 1.74834 -1.443823E-15
v 0.1644312 1.89816 -0.1644312
v 0.2325408 1.89816 -1.443823E-15
v -0.1417516 2.106551 -0.1417516
v -0.09872058 2.31408 -0.09872058
v -0.1417516 2.31408 -0.1417516
v 0.363165 1.33144 -4.331469E-15
v 0.5115 1.04544 1.443823E-15
v 0.2567964 1.33144 0.2567964
v 0.3616851 1.04544 0.3616851
v 5.05338E-15 1.89816 0.2325408
v -0.1644312 1.89816 0.1644312
v 0.1996502 1.89816 -0.1996502
v 0.282348 1.89816 -1.443823E-15
v 0.1417516 2.106551 -0.1417516
v 0.2004671 2.106551 -2.887646E-15
v 0.2004671 2.31408 -1.443823E-15
v 0.4092 1.51954 1.443823E-15
v -0.363165 1.33144 -4.331469E-15
v -0.5115 1.04544 1.443823E-15
v -0.2893481 1.51954 -0.2893481
v -0.2054371 1.74834 -0.2054371
v 0.09872058 2.31408 -0.09872058
v 0.139612 2.31408 -2.887646E-15
v 6.497203E-15 1.51954 -0.2903567
v 0.2053132 1.51954 -0.2053132
v 0.1417516 2.106551 0.1417516
v 0.09872058 2.31408 0.09872058
v 0.1644312 1.89816 0.1644312
v -0.1644312 1.89816 -0.1644312
v -0.2325408 1.89816 -4.331469E-15
v -0.282348 1.89816 -1.443823E-15
v -0.2567964 1.33144 -0.2567964
v -0.2053132 1.51954 -0.2053132
v -0.2903567 1.51954 -2.887646E-15
v -0.3616851 1.04544 -0.3616851
v 0.2053132 1.51954 0.2053132
v 7.941025E-15 1.51954 0.2903567
v -0.1996502 1.89816 -0.1996502
v 2.165734E-15 1.89816 -0.282348
v 5.05338E-15 2.106551 -0.2004671
v 0.1996502 1.89816 0.1996502
v -0.2053132 1.51954 0.2053132
v 5.05338E-15 1.89816 -0.2325408
v 2.165734E-15 2.31408 -0.139612
v 0.2903567 1.51954 -2.887646E-15
v 0.05558124 1.04544 0.05558124
v -0.05558124 1.04544 0.05558124
v 0.05558124 1.04544 -0.05558124
v -0.05558124 1.04544 -0.05558124
v 0.14432 0 0.14432
v -0.14432 0 0.14432
v 0.093808 0.17648 0.093808
v -0.093808 0.17648 0.093808
v -0.14432 0 -0.14432
v -0.093808 0.17648 -0.093808
v 0.14432 0 -0.14432
v 0.093808 0.17648 -0.093808
v -0.1825202 0.3442548 -0.04459999
v -0.1803403 0.3938069 -0.04459999
v -0.1825202 0.3442548 -0.004919992
v -0.1803403 0.3938069 -0.004919992
v -0.08728098 0.3248504 -0.05675999
v -0.08376507 0.4047731 -0.05675999
v -0.08376507 0.4047731 0.007240008
v -0.08728098 0.3248504 0.007240008
v 0.03548573 0.7464569 0.06873392
v -0.02851427 0.7464569 0.06873392
v 0.02268573 0.7641668 0.1800632
v -0.01571427 0.7641668 0.1800632
v 0.03548573 0.810395 0.06592119
v 0.02268573 0.8025297 0.1783755
v -0.02851427 0.810395 0.06592119
v -0.01571427 0.8025297 0.1783755

vn -0.9435029 0.3313643 0
vn -0.8957203 0.2450095 0.3710195
vn -0.6671573 0.3313643 0.6671573
vn 0.6671573 0.3313643 0.6671573
vn 0 0.3313643 0.9435029
vn 0.3710195 0.2450095 0.8957203
vn 0.8957203 0.2450095 0.3710195
vn 0.9435029 0.3313643 0
vn 0.8957203 0.2450095 -0.3710195
vn 0.6671573 0.3313643 -0.6671573
vn 0 0.3313643 -0.9435029
vn 0.3710195 0.2450095 -0.8957203
vn -0.3710195 0.2450095 0.8957203
vn -0.6671573 0.3313643 -0.6671573
vn -0.8957203 0.2450095 -0.3710195
vn -0.3710195 0.2450095 -0.8957203
vn 0 0.4604119 -0.8877054
vn 0.6277025 0.4604119 -0.6277025
vn 0 0.4163931 -0.9091846
vn 0.6428906 0.4163931 -0.6428906
vn -0.9091846 0.4163931 0
vn -0.6428906 0.4163931 0.6428906
vn -0.8877054 0.4604119 0
vn -0.6277025 0.4604119 0.6277025
vn -0.9219008 0.3874258 0
vn -0.6518824 0.3874259 0.6518824
vn -0.9595941 0.2813882 0
vn -0.6785354 0.2813881 0.6785354
vn -0.9449374 0.3272512 0
vn -0.6681716 0.3272512 0.6681716
vn 0 0.3272512 0.9449374
vn 0 0.2813882 0.9595941
vn 0 0.3874258 -0.9219008
vn 0.6518824 0.3874259 -0.6518824
vn 0 0.3657027 0.9307318
vn -0.6581267 0.3657027 0.6581267
vn 0.6518824 0.3874259 0.6518824
vn 0 0.3874258 0.9219008
vn 0 0.4604119 0.8877054
vn 0 0.4163931 0.9091846
vn 0.6277025 0.4604119 0.6277025
vn 0.6428906 0.4163931 0.6428906
vn 0.9091846 0.4163931 0
vn 0.6594306 0.3609743 -0.6594306
vn 0.9325757 0.3609743 0
vn -0.6681716 0.3272512 -0.6681716
vn -0.6785354 0.2813881 -0.6785354
vn -0.6518824 0.3874259 -0.6518824
vn 0.8877054 0.4604119 0
vn 0 0.3609743 0.9325757
vn -0.6594306 0.3609743 0.6594306
vn 0.6581267 0.3657027 -0.6581267
vn 0.9307318 0.3657027 0
vn 0.6681716 0.3272512 -0.6681716
vn 0.9449374 0.3272512 0
vn 0.9219008 0.3874258 0
vn -0.6277025 0.4604119 -0.6277025
vn -0.6428906 0.4163931 -0.6428906
vn 0.6785354 0.2813881 -0.6785354
vn 0.9595941 0.2813882 0
vn 0 0.3609743 -0.9325757
vn 0.6681716 0.3272512 0.6681716
vn 0.6785354 0.2813881 0.6785354
vn 0.6594306 0.3609743 0.6594306
vn -0.6594306 0.3609743 -0.6594306
vn -0.9325757 0.3609743 0
vn -0.9307318 0.3657027 0
vn -0.6581267 0.3657027 -0.6581267
vn 0 0.3657027 -0.9307318
vn 0 0.3272512 -0.9449374
vn 0.6581267 0.3657027 0.6581267
vn 0 -1 0
vn 0 0.2813882 -0.9595941
vn 0 0.2751701 0.9613956
vn 0 0.1714603 0.985191
vn -0.9613956 0.2751701 0
vn -0.985191 0.1714603 0
vn 0 0.2751701 -0.9613956
vn 0 0.1714603 -0.985191
vn 0.9613956 0.2751701 0
vn 0.985191 0.1714603 0
vn -0.9990338 0.04394889 0
vn -0.1255412 0.005522731 -0.992073
vn -0.112826 0.9936148 0
vn -0.1255412 0.005522731 0.992073
vn -0.1996423 -0.9798688 0
vn 0 0.04394889 -0.9990338
vn 0.9990338 0.04394889 0
vn 0 -0.9875824 0.1571015
vn 0 0.997563 0.06977224
vn -0.9935327 0.004990246 0.1134369
vn 0.9935327 0.004990246 0.1134369
vn 0 0.04394889 0.9990338

vt -2.144408 92.34057
vt -5.065035E-14 113.4706
vt 2.144408 92.34057
vt 1.747972E-13 113.4706
vt 1.576392E-13 113.4706
vt 4.8874E-14 113.4706
vt -8.600875E-14 113.4706
vt 8.778511E-14 113.4706
vt -1.594155E-13 113.4706
vt -1.747972E-13 113.4706
vt 7.7064 29.07815
vt -7.7064 29.07815
vt 5.471544 41.56392
vt -5.471544 41.56392
vt -4.377235 57.50737
vt 4.377235 57.50737
vt -6.165121 47.51875
vt 6.165121 47.51875
vt -2.144408 88.13218
vt 2.144408 88.13218
vt -3.020293 82.28977
vt 3.020293 82.28977
vt -2.103433 86.60774
vt 2.103433 86.60774
vt -3.020293 78.14278
vt 3.020293 78.14278
vt 4.253933 66.74121
vt -4.253933 66.74121
vt 3.020293 75.46943
vt -3.020293 75.46943
vt 4.377235 61.25432
vt -4.377235 61.25432
vt 3.503524 67.51855
vt -3.503524 67.51855
vt 5.471544 44.90983
vt -5.471544 44.90983
vt 4.374594 52.77462
vt -4.374594 52.77462
vt 7.892405 -5.684342E-14
vt 5.580773 -5.580773
vt 5.580773 5.580773
vt 5.496535 -1.136868E-13
vt 3.886637 3.886637
vt 3.886637 -3.886637
vt 1.421085E-13 -7.892405
vt 8.526513E-14 -5.496535
vt 1.421085E-13 7.892405
vt 3.694822E-13 5.496535
vt -3.886637 3.886637
vt -5.580773 -5.580773
vt -5.580773 5.580773
vt -3.886637 -3.886637
vt -5.496535 -1.705303E-13
vt -7.892405 -5.684342E-14
vt 20.13779 5.818649E-14
vt 14.23957 -14.23957
vt 14.23957 14.23957
vt -2.882274E-14 20.13779
vt 2.188238 2.188238
vt -2.188238 2.188238
vt 2.188238 -2.188238
vt -2.882274E-14 -20.13779
vt -14.23957 14.23957
vt -2.188238 -2.188238
vt -14.23957 -14.23957
vt -20.13779 5.818649E-14
vt 11.11606 -5.684342E-14
vt 9.15515 -5.684342E-14
vt 7.860243 7.860243
vt 7.860243 -7.860243
vt 6.473669 6.473669
vt 6.473669 -6.473669
vt 8.526513E-14 11.11606
vt 1.98952E-13 9.15515
vt -6.473669 6.473669
vt -7.860243 7.860243
vt 8.526513E-14 -11.11606
vt 1.98952E-13 -9.15515
vt -6.473669 -6.473669
vt -7.860243 -7.860243
vt -9.15515 -1.705303E-13
vt -11.11606 -5.684342E-14
vt 3.126388E-13 11.43137
vt -2.842171E-14 16.11024
vt 8.083196 8.083196
vt -8.083196 8.083196
vt 11.39166 11.39166
vt -11.39166 11.39166
vt 11.43137 -1.136868E-13
vt 16.11024 5.684342E-14
vt 11.39166 -11.39166
vt 8.083196 -8.083196
vt -11.43137 -1.136868E-13
vt -16.11024 5.684342E-14
vt -11.39166 -11.39166
vt -8.083196 -8.083196
vt -2.842171E-14 -16.11024
vt 2.557954E-13 -11.43137
vt 5.68189 -1.563486
vt -5.68189 -1.563486
vt 3.693228 5.663541
vt -3.693228 5.663541
vt 5.68189 5.68189
vt 5.68189 -5.68189
vt -5.68189 5.68189
vt -5.68189 -5.68189
vt -1.755905 13.22443
vt -1.755905 15.17719
vt -0.1937005 13.22443
vt -0.1937005 15.17719
vt 3.128528 12.77456
vt 2.991201 15.92118
vt 6.90854 13.53853
vt 6.823397 15.48943
vt -2.234645 -1.478791
vt 0.2850397 -1.478791
vt -1.755905 -5.305401
vt -0.1937005 -5.305401
vt -3.373287 12.78525
vt -7.153299 13.54921
vt -3.235961 15.93186
vt -7.068157 15.50011
vt 0.2850397 5.920385
vt -2.234645 5.920385
vt -0.1937005 9.746995
vt -1.755905 9.746995
vt 3.693228 6.779005
vt -3.693228 6.779005
vt 2.188238 41.02312
vt -2.188238 41.02312
vt 1.397076 7.289368
vt -1.122609 7.289368
vt 0.8931391 11.72752
vt -0.618672 11.72752
vt 1.397076 -0.3628928
vt 0.8931391 -4.801044
vt -1.122609 -0.3628928
vt -0.618672 -4.801044
vt 2.451223 31.89788
vt 6.907146 31.58822
vt 2.561246 29.3806
vt 6.97316 30.07785
vt -2.420088 31.89652
vt -2.530111 29.37924
vt -6.876011 31.58686
vt -6.942025 30.07649
vt 0.8931391 29.74468
vt -0.618672 29.74468
vt 0.8931391 31.25649
vt -0.618672 31.25649
vt 0.2850397 15.77561
vt 0.2850397 12.62601
vt -2.234645 15.77561
vt -2.234645 12.62601
vt 1.397076 31.76043
vt 1.397076 29.24074
vt -1.122609 31.76043
vt -1.122609 29.24074

usemtl foliage

f 3/3/3 2/2/2 1/1/1
f 2/4/6 5/1/5 4/3/4
f 4/1/4 6/3/8 2/5/7
f 6/1/8 7/3/10 2/6/9
f 2/7/12 7/1/10 8/3/11
f 2/8/13 3/1/3 5/3/5
f 2/9/15 9/1/14 1/3/1
f 2/10/16 8/1/11 9/3/14
f 12/13/19 11/12/18 10/11/17
f 11/12/18 12/13/19 13/14/20
f 16/17/23 15/16/22 14/15/21
f 15/16/22 16/17/23 17/18/24
f 18/21/25 3/20/3 1/19/1
f 3/20/3 18/21/25 19/22/26
f 22/25/29 21/24/28 20/23/27
f 21/24/28 22/25/29 23/26/30
f 25/24/32 23/25/30 24/26/31
f 23/25/30 25/24/32 21/23/28
f 8/20/11 27/21/34 26/22/33
f 27/21/34 8/20/11 7/19/10
f 24/29/31 29/28/36 28/27/35
f 29/28/36 24/29/31 23/30/30
f 4/20/4 31/21/38 30/22/37
f 31/21/38 4/20/4 5/19/5
f 34/13/40 33/12/24 32/11/39
f 33/12/24 34/13/40 35/14/22
f 37/16/40 17/17/24 36/18/39
f 17/17/24 37/16/40 15/15/22
f 39/16/42 36/17/39 38/18/41
f 36/17/39 39/16/42 37/15/40
f 42/16/19 41/17/18 40/18/17
f 41/17/18 42/16/19 43/15/20
f 45/33/44 44/32/43 43/31/20
f 44/32/43 45/33/44 46/34/45
f 22/26/29 48/23/47 47/25/46
f 48/23/47 22/26/29 20/24/27
f 9/20/14 26/21/33 49/22/48
f 26/21/33 9/20/14 8/19/11
f 52/14/42 51/11/49 50/13/43
f 51/11/49 52/14/42 53/12/41
f 18/22/25 9/19/14 49/21/48
f 9/19/14 18/22/25 1/20/1
f 54/33/50 15/32/22 37/31/40
f 15/32/22 54/33/50 55/34/51
f 58/29/54 57/28/53 56/27/52
f 57/28/53 58/29/54 59/30/55
f 7/20/10 60/21/56 27/22/34
f 60/21/56 7/20/10 6/19/8
f 43/16/20 61/17/49 41/18/18
f 61/17/49 43/16/20 44/15/43
f 63/12/23 35/13/22 62/14/21
f 35/13/22 63/12/23 33/11/24
f 16/18/23 65/15/58 64/17/57
f 65/15/58 16/18/23 14/16/21
f 66/24/59 59/25/55 58/26/54
f 59/25/55 66/24/59 67/23/60
f 68/37/61 13/36/20 12/35/19
f 13/36/20 68/37/61 69/38/44
f 71/24/63 24/25/31 70/26/62
f 24/25/31 71/24/63 25/23/32
f 52/13/42 32/12/39 53/11/41
f 32/12/39 52/13/42 34/14/40
f 72/33/64 37/32/40 39/31/42
f 37/32/40 72/33/64 54/34/50
f 14/31/21 73/34/65 65/32/58
f 73/34/65 14/31/21 74/33/66
f 71/23/63 59/26/55 67/24/60
f 59/26/55 71/23/63 70/25/62
f 75/28/67 23/29/30 22/30/29
f 23/29/30 75/28/67 29/27/36
f 4/19/4 60/22/56 6/20/8
f 60/22/56 4/19/4 30/21/37
f 62/35/21 77/38/65 76/36/58
f 77/38/65 62/35/21 78/37/66
f 63/11/23 76/14/58 79/12/57
f 76/14/58 63/11/23 62/13/21
f 5/20/5 19/21/26 31/22/38
f 19/21/26 5/20/5 3/19/3
f 39/15/42 61/18/49 44/16/43
f 61/18/49 39/15/42 38/17/41
f 80/37/64 34/36/40 52/35/42
f 34/36/40 80/37/64 81/38/50
f 75/27/67 47/30/46 82/28/68
f 47/30/46 75/27/67 22/29/29
f 84/29/70 56/28/52 83/27/69
f 56/28/52 84/29/70 58/30/54
f 72/34/64 44/31/43 46/33/45
f 44/31/43 72/34/64 39/32/42
f 70/29/62 28/28/35 85/27/71
f 28/28/35 70/29/62 24/30/31
f 35/35/22 78/38/66 62/36/21
f 78/38/66 35/35/22 86/37/51
f 47/29/46 83/28/69 82/27/68
f 83/28/69 47/29/46 84/30/70
f 87/33/61 43/32/20 42/31/19
f 43/32/20 87/33/61 45/34/44
f 77/37/65 12/36/19 76/35/58
f 12/36/19 77/37/65 68/38/61
f 14/32/21 55/33/51 74/34/66
f 55/33/51 14/32/21 15/31/22
f 13/13/20 51/12/49 11/11/18
f 51/12/49 13/13/20 50/14/43
f 30/41/72 27/40/72 60/39/72
f 27/40/72 30/41/72 67/42/72
f 67/42/72 30/41/72 71/43/72
f 66/44/72 27/40/72 67/42/72
f 27/40/72 66/44/72 26/45/72
f 26/45/72 66/44/72 88/46/72
f 71/43/72 30/41/72 31/47/72
f 71/43/72 31/47/72 25/48/72
f 25/48/72 31/47/72 21/49/72
f 26/45/72 88/46/72 49/50/72
f 21/49/72 31/47/72 19/51/72
f 49/50/72 88/46/72 48/52/72
f 21/49/72 19/51/72 20/53/72
f 49/50/72 48/52/72 20/53/72
f 49/50/72 20/53/72 19/51/72
f 49/50/72 19/51/72 18/54/72
f 76/13/58 10/12/17 79/11/57
f 10/12/17 76/13/58 12/14/19
f 89/37/45 52/36/42 50/35/43
f 52/36/42 89/37/45 80/38/64
f 69/37/44 50/36/43 13/35/20
f 50/36/43 69/37/44 89/38/45
f 48/24/47 84/25/70 47/26/46
f 84/25/70 48/24/47 88/23/73
f 73/33/65 42/32/19 65/31/58
f 42/32/19 73/33/65 87/34/61
f 70/30/62 57/27/53 59/29/55
f 57/27/53 70/30/62 85/28/71
f 65/16/58 40/17/17 64/18/57
f 40/17/17 65/16/58 42/15/19
f 88/24/73 58/25/54 84/26/70
f 58/25/54 88/24/73 66/23/59
f 81/37/50 35/36/22 34/35/40
f 35/36/22 81/37/50 86/38/51
f 53/57/72 11/56/72 51/55/72
f 11/56/72 53/57/72 32/58/72
f 11/56/72 32/58/72 90/59/72
f 90/59/72 32/58/72 91/60/72
f 92/61/72 11/56/72 90/59/72
f 11/56/72 92/61/72 10/62/72
f 91/60/72 32/58/72 33/63/72
f 10/62/72 92/61/72 93/64/72
f 91/60/72 33/63/72 93/64/72
f 10/62/72 93/64/72 79/65/72
f 79/65/72 93/64/72 33/63/72
f 79/65/72 33/63/72 63/66/72
f 85/69/72 46/68/72 57/67/72
f 46/68/72 56/70/72 57/67/72
f 46/68/72 85/69/72 72/71/72
f 56/70/72 46/68/72 45/72/72
f 72/71/72 85/69/72 28/73/72
f 72/71/72 28/73/72 54/74/72
f 54/74/72 28/73/72 55/75/72
f 55/75/72 28/73/72 29/76/72
f 56/70/72 45/72/72 83/77/72
f 83/77/72 45/72/72 87/78/72
f 83/77/72 87/78/72 73/79/72
f 83/77/72 73/79/72 82/80/72
f 55/75/72 29/76/72 74/81/72
f 82/80/72 73/79/72 74/81/72
f 74/81/72 29/76/72 75/82/72
f 82/80/72 74/81/72 75/82/72
f 80/85/72 36/84/72 81/83/72
f 81/83/72 36/84/72 86/86/72
f 80/85/72 38/87/72 36/84/72
f 86/86/72 36/84/72 17/88/72
f 89/89/72 38/87/72 80/85/72
f 38/87/72 89/89/72 61/90/72
f 89/89/72 41/91/72 61/90/72
f 41/91/72 89/89/72 69/92/72
f 86/86/72 17/88/72 78/93/72
f 78/93/72 17/88/72 16/94/72
f 64/95/72 78/93/72 16/94/72
f 64/95/72 77/96/72 78/93/72
f 41/91/72 69/92/72 40/97/72
f 40/97/72 77/96/72 64/95/72
f 40/97/72 69/92/72 68/98/72
f 40/97/72 68/98/72 77/96/72

usemtl wood

f 96/101/75 95/100/74 94/99/74
f 95/100/74 96/101/75 97/102/75
f 95/99/76 99/102/77 98/100/76
f 99/102/77 95/99/76 97/101/77
f 99/101/79 100/100/78 98/99/78
f 100/100/78 99/101/79 101/102/79
f 101/101/81 94/100/80 100/99/80
f 94/100/80 101/101/81 96/102/81
f 95/105/72 100/104/72 94/103/72
f 100/104/72 95/105/72 98/106/72
f 104/109/82 103/108/82 102/107/82
f 103/108/82 104/109/82 105/110/82
f 102/113/83 107/112/83 106/111/83
f 107/112/83 102/113/83 103/114/83
f 103/117/84 108/116/84 107/115/84
f 108/116/84 103/117/84 105/118/84
f 108/121/85 104/120/85 109/119/85
f 104/120/85 108/121/85 105/122/85
f 104/125/86 106/124/86 109/123/86
f 106/124/86 104/125/86 102/126/86
f 93/129/87 101/128/79 99/127/79
f 101/128/79 93/129/87 92/130/87
f 92/129/88 96/128/81 101/127/81
f 96/128/81 92/129/88 90/130/88
f 112/133/89 111/132/89 110/131/89
f 111/132/89 112/133/89 113/134/89
f 116/137/90 115/136/90 114/135/90
f 115/136/90 116/137/90 117/138/90
f 111/141/91 117/140/91 116/139/91
f 117/140/91 111/141/91 113/142/91
f 115/145/92 110/144/92 114/143/92
f 110/144/92 115/145/92 112/146/92
f 115/149/93 113/148/93 112/147/93
f 113/148/93 115/149/93 117/150/93
f 108/151/82 97/127/77 91/129/82
f 93/130/82 108/151/82 91/129/82
f 109/152/82 97/127/77 108/151/82
f 93/130/82 107/153/82 108/151/82
f 106/154/82 97/127/77 109/152/82
f 99/128/77 107/153/82 93/130/82
f 97/127/77 106/154/82 99/128/77
f 107/153/82 99/128/77 106/154/82
f 110/156/93 90/129/93 114/155/93
f 114/155/93 90/129/93 116/157/93
f 110/156/93 96/127/75 90/129/93
f 91/130/93 116/157/93 90/129/93
f 96/127/75 110/156/93 97/128/75
f 91/130/93 111/158/93 116/157/93
f 97/128/75 111/158/93 91/130/93
f 111/158/93 97/128/75 110/156/93

