# Created by Kenney (www.kenney.nl)

mtllib wallDetailCross.mtl

g wallDetailCross

v 0.475 0.9199609 0.4
v 0.475 0.5 0.06403124
v 0.475 0.08003905 0.4
v 0.475 0.9199609 -0.4
v 0.475 0.08003905 -0.4
v 0.475 0.5 -0.06403124
v 0.475 0.4199609 -1.443823E-15
v 0.475 -4.760103E-15 -0.3359688
v 0.475 -4.692552E-15 0.3359688
v 0.425 0.08003905 0.4
v 0.425 0.5 0.06403124
v 0.425 0.9199609 0.4
v 0.425 -1.331024E-15 -0.3359688
v 0.425 0.4199609 -1.443823E-15
v 0.425 -1.263472E-15 0.3359688
v 0.475 1 -0.3359688
v 0.475 0.5800391 -1.443823E-15
v 0.475 1 0.3359688
v 0.425 0.5800391 -1.443823E-15
v 0.425 1 -0.3359688
v 0.425 1 0.3359688
v 0.425 0.08003905 -0.4
v 0.425 0.9199609 -0.4
v 0.425 0.5 -0.06403124
v 0.4 0 -0.5
v 0.4 1 -0.5
v 0.4 0 -0.4
v 0.4 1 -0.4
v 0.4125 0.5 -0.06403124
v 0.4125 0.9199609 -0.4
v 0.4875 -4.760103E-15 -0.3359688
v 0.4875 0.4199609 -1.443823E-15
v 0.4875 -3.429079E-15 -0.4
v 0.4875 0.08003905 -0.4
v 0.5 0 -0.4
v 0.5 1 -0.4
v 0.4875 0.9199609 -0.4
v 0.4875 1 -0.4
v 0.4875 0.5 -0.06403124
v 0.4125 -4.34402E-16 0.4
v 0.4125 0.08003905 0.4
v 0.4 0 0.4
v 0.4 1 0.4
v 0.4125 0.9199609 0.4
v 0.4125 1 0.4
v 0.4125 0.5800391 -1.443823E-15
v 0.4125 1 0.3359688
v 0.5 0 -0.5
v 0.5 1 -0.5
v 0.4125 -5.019541E-16 -0.4
v 0.4125 -1.331024E-15 -0.3359688
v 0.4125 0.5 0.06403124
v 0.4125 1 -0.3359688
v 0.4875 0.5 0.06403124
v 0.4875 0.9199609 0.4
v 0.4 0 0.5
v 0.4 1 0.5
v 0.4125 -1.263472E-15 0.3359688
v 0.4125 0.4199609 -1.443823E-15
v 0.4875 0.5800391 -1.443823E-15
v 0.4875 1 0.3359688
v 0.4875 1 -0.3359688
v 0.4125 1 -0.4
v 0.4125 0.08003905 -0.4
v 0.5 0 0.5
v 0.5 1 0.5
v 0.4875 -3.361527E-15 0.4
v 0.4875 -4.692552E-15 0.3359688
v 0.5 0 0.4
v 0.5 1 0.4
v 0.4875 1 0.4
v 0.4875 0.08003905 0.4

vn 1 0 0
vn -1 0 0
vn 0 -1 0
vn 0 1 0
vn 0 -0.6246951 -0.7808689
vn 0 -0.6246951 0.7808689
vn 0 0 1
vn 0 0 -1
vn 0 0.6246951 -0.7808689
vn 0 0.6246951 0.7808689

vt -15.74803 36.21893
vt -2.520915 19.68504
vt -15.74803 3.151144
vt 15.74803 36.21893
vt 15.74803 3.151144
vt 2.520915 19.68504
vt 1.666018E-14 16.5339
vt 13.22712 -1.874056E-13
vt -13.22712 -1.847461E-13
vt -13.22712 -9.554663E-14
vt -7.482013E-14 16.5339
vt 13.22712 -9.28871E-14
vt 13.22712 39.37008
vt 9.702666E-14 22.83618
vt -13.22712 39.37008
vt -3.886671E-14 22.83618
vt 18.70079 13.22712
vt 18.70079 -13.22712
vt 16.73228 13.22712
vt 16.73228 -13.22712
vt -18.70079 -13.22712
vt -18.70079 13.22712
vt -16.73228 -13.22712
vt -16.73228 13.22712
vt -19.68504 0
vt -19.68504 39.37008
vt -15.74803 0
vt -15.74803 39.37008
vt -16.24016 16.94624
vt -16.73228 16.94624
vt -16.24016 38.11995
vt -16.73228 38.11995
vt 19.19291 -8.262914
vt 18.70079 -8.262914
vt 19.19291 12.9108
vt 18.70079 12.9108
vt 19.19291 -1.885948E-13
vt 19.19291 3.151144
vt 19.68504 -5.359165E-14
vt 19.68504 39.37008
vt 18.70079 3.151144
vt 19.19291 36.21893
vt 19.19291 39.37008
vt 18.70079 36.21893
vt -18.70079 16.94624
vt -19.19291 16.94624
vt -18.70079 38.11995
vt -19.19291 38.11995
vt -16.24016 -1.603536E-14
vt -16.24016 3.151144
vt -15.74803 1.067083E-15
vt -16.73228 3.151144
vt -16.24016 36.21893
vt -16.24016 39.37008
vt -16.73228 36.21893
vt -16.24016 17.83206
vt -16.73228 17.83206
vt -16.24016 39.00578
vt -16.73228 39.00578
vt 19.19291 -13.22712
vt 19.19291 -15.74803
vt 15.74803 -19.68504
vt 19.68504 -19.68504
vt 19.68504 -15.74803
vt 16.24016 -15.74803
vt 16.24016 -13.22712
vt 15.74803 -15.74803
vt -18.70079 -7.377088
vt -19.19291 -7.377088
vt -18.70079 13.79663
vt -19.19291 13.79663
vt 16.73228 16.94624
vt 16.24016 16.94624
vt 16.73228 38.11995
vt 16.24016 38.11995
vt 16.73228 17.83206
vt 16.24016 17.83206
vt 16.73228 39.00578
vt 16.24016 39.00578
vt 19.19291 16.94624
vt 18.70079 16.94624
vt 19.19291 38.11995
vt 18.70079 38.11995
vt 15.74803 0
vt 15.74803 39.37008
vt 19.68504 0
vt -16.24016 -8.262914
vt -16.73228 -8.262914
vt -16.24016 12.9108
vt -16.73228 12.9108
vt -18.70079 17.83206
vt -19.19291 17.83206
vt -18.70079 39.00578
vt -19.19291 39.00578
vt -19.68504 -19.68504
vt -19.68504 -15.74803
vt -15.74803 -19.68504
vt -19.19291 -15.74803
vt -19.19291 -13.22712
vt -16.24016 -15.74803
vt -15.74803 -15.74803
vt -16.24016 -13.22712
vt -15.74803 -3.270098E-14
vt -13.22712 -6.534154E-14
vt -5.684342E-14 16.5339
vt -5.684342E-14 22.83618
vt 13.22712 -6.268201E-14
vt 15.74803 -3.004145E-14
vt 16.73228 -8.262914
vt 16.24016 -8.262914
vt 16.73228 12.9108
vt 16.24016 12.9108
vt 16.73228 3.151144
vt 16.24016 3.151144
vt 16.73228 36.21893
vt 16.24016 36.21893
vt 16.24016 39.37008
vt 15.74803 1.067083E-15
vt 16.24016 -1.869489E-14
vt 19.19291 15.74803
vt 19.19291 13.22712
vt 15.74803 19.68504
vt 19.68504 15.74803
vt 19.68504 19.68504
vt 16.24016 15.74803
vt 15.74803 15.74803
vt 16.24016 13.22712
vt 5.684342E-14 22.83618
vt 5.684342E-14 16.5339
vt 13.22712 -2.061625E-13
vt 15.74803 -1.5376E-13
vt -13.22712 -2.03503E-13
vt -15.74803 -1.511004E-13
vt -18.70079 3.151144
vt -19.19291 3.151144
vt -18.70079 36.21893
vt -19.19291 36.21893
vt -19.19291 39.37008
vt -19.68504 -6.478952E-14
vt -19.19291 -1.971331E-13
vt -18.70079 -8.262914
vt -19.19291 -8.262914
vt -18.70079 12.9108
vt -19.19291 12.9108
vt -19.19291 13.22712
vt -19.19291 15.74803
vt -15.74803 19.68504
vt -19.68504 19.68504
vt -19.68504 15.74803
vt -16.24016 15.74803
vt -16.24016 13.22712
vt -15.74803 15.74803
vt -16.24016 -7.377088
vt -16.73228 -7.377088
vt -16.24016 13.79663
vt -16.73228 13.79663
vt 19.19291 17.83206
vt 18.70079 17.83206
vt 19.19291 39.00578
vt 18.70079 39.00578
vt 19.19291 -7.377088
vt 18.70079 -7.377088
vt 19.19291 13.79663
vt 18.70079 13.79663
vt 16.73228 -7.377088
vt 16.24016 -7.377088
vt 16.73228 13.79663
vt 16.24016 13.79663

usemtl stone

f 3/3/1 2/2/1 1/1/1
f 6/6/1 5/5/1 4/4/1
f 9/9/1 8/8/1 7/7/1
f 12/4/2 11/6/2 10/5/2
f 15/12/2 14/11/2 13/10/2
f 18/15/1 17/14/1 16/13/1
f 21/13/2 20/15/2 19/16/2
f 24/2/2 23/1/2 22/3/2
f 15/19/3 8/18/3 9/17/3
f 8/18/3 15/19/3 13/20/3
f 20/23/4 18/22/4 16/21/4
f 18/22/4 20/23/4 21/24/4

usemtl wood

f 27/27/2 26/26/2 25/25/2
f 26/26/2 27/27/2 28/28/2
f 30/31/5 24/30/5 29/29/5
f 24/30/5 30/31/5 23/32/5
f 32/35/6 8/34/6 31/33/6
f 8/34/6 32/35/6 7/36/6
f 35/39/7 34/38/7 33/37/7
f 34/38/7 35/39/7 36/40/7
f 34/38/7 36/40/7 5/41/7
f 5/41/7 36/40/7 37/42/7
f 37/42/7 36/40/7 38/43/7
f 4/44/7 5/41/7 37/42/7
f 4/47/5 39/46/5 6/45/5
f 39/46/5 4/47/5 37/48/5
f 42/51/8 41/50/8 40/49/8
f 41/50/8 42/51/8 43/28/8
f 41/50/8 43/28/8 10/52/8
f 10/52/8 43/28/8 44/53/8
f 44/53/8 43/28/8 45/54/8
f 12/55/8 10/52/8 44/53/8
f 47/58/9 19/57/9 46/56/9
f 19/57/9 47/58/9 21/59/9
f 26/28/8 48/25/8 25/27/8
f 48/25/8 26/28/8 49/26/8
f 8/18/3 33/61/3 31/60/3
f 25/62/3 33/61/3 8/18/3
f 25/62/3 8/18/3 13/20/3
f 48/63/3 33/61/3 25/62/3
f 33/61/3 48/63/3 35/64/3
f 25/62/3 13/20/3 50/65/3
f 50/65/3 13/20/3 51/66/3
f 25/62/3 50/65/3 27/67/3
f 6/70/9 34/69/9 5/68/9
f 34/69/9 6/70/9 39/71/9
f 12/74/6 52/73/6 11/72/6
f 52/73/6 12/74/6 44/75/6
f 20/78/10 46/77/10 19/76/10
f 46/77/10 20/78/10 53/79/10
f 55/82/6 2/81/6 54/80/6
f 2/81/6 55/82/6 1/83/6
f 56/86/2 43/85/2 42/84/2
f 43/85/2 56/86/2 57/40/2
f 59/89/5 15/88/5 58/87/5
f 15/88/5 59/89/5 14/90/5
f 18/93/9 60/92/9 17/91/9
f 60/92/9 18/93/9 61/94/9
f 26/97/4 36/96/4 49/95/4
f 36/96/4 26/97/4 38/98/4
f 38/98/4 26/97/4 62/99/4
f 62/99/4 26/97/4 16/21/4
f 16/21/4 26/97/4 20/23/4
f 20/23/4 26/97/4 63/100/4
f 63/100/4 26/97/4 28/101/4
f 53/102/4 20/23/4 63/100/4
f 51/104/2 64/3/2 50/103/2
f 64/3/2 51/104/2 29/2/2
f 29/2/2 51/104/2 59/105/2
f 46/106/2 29/2/2 59/105/2
f 46/106/2 59/105/2 58/107/2
f 53/15/2 29/2/2 46/106/2
f 53/15/2 30/1/2 29/2/2
f 30/1/2 53/15/2 63/28/2
f 46/106/2 58/107/2 52/6/2
f 52/6/2 47/13/2 46/106/2
f 52/6/2 58/107/2 41/5/2
f 41/5/2 58/107/2 40/108/2
f 47/13/2 52/6/2 44/4/2
f 47/13/2 44/4/2 45/85/2
f 14/111/6 51/110/6 13/109/6
f 51/110/6 14/111/6 59/112/6
f 23/115/7 64/114/7 22/113/7
f 30/116/7 64/114/7 23/115/7
f 28/85/7 64/114/7 30/116/7
f 28/85/7 30/116/7 63/117/7
f 27/118/7 64/114/7 28/85/7
f 64/114/7 27/118/7 50/119/7
f 66/40/7 56/84/7 65/86/7
f 56/84/7 66/40/7 57/85/7
f 9/17/3 68/121/3 67/120/3
f 67/120/3 56/122/3 9/17/3
f 69/123/3 56/122/3 67/120/3
f 56/122/3 69/123/3 65/124/3
f 9/17/3 56/122/3 15/19/3
f 15/19/3 56/122/3 40/125/3
f 40/125/3 56/122/3 42/126/3
f 58/127/3 15/19/3 40/125/3
f 66/26/1 69/27/1 70/28/1
f 69/27/1 66/26/1 65/25/1
f 36/85/1 48/86/1 49/40/1
f 48/86/1 36/85/1 35/84/1
f 62/13/1 37/4/1 38/85/1
f 37/4/1 62/13/1 39/6/1
f 39/6/1 62/13/1 60/128/1
f 32/129/1 39/6/1 60/128/1
f 32/129/1 60/128/1 61/15/1
f 31/130/1 39/6/1 32/129/1
f 33/131/1 39/6/1 31/130/1
f 39/6/1 33/131/1 34/5/1
f 32/129/1 61/15/1 54/2/1
f 54/2/1 68/132/1 32/129/1
f 54/2/1 61/15/1 55/1/1
f 55/1/1 61/15/1 71/28/1
f 68/132/1 54/2/1 72/3/1
f 68/132/1 72/3/1 67/133/1
f 1/136/8 72/135/8 3/134/8
f 55/137/8 72/135/8 1/136/8
f 70/26/8 72/135/8 55/137/8
f 70/26/8 55/137/8 71/138/8
f 69/139/8 72/135/8 70/26/8
f 72/135/8 69/139/8 67/140/8
f 7/143/5 68/142/5 9/141/5
f 68/142/5 7/143/5 32/144/5
f 18/22/4 71/146/4 61/145/4
f 57/147/4 71/146/4 18/22/4
f 57/147/4 18/22/4 21/24/4
f 66/148/4 71/146/4 57/147/4
f 71/146/4 66/148/4 70/149/4
f 57/147/4 21/24/4 45/150/4
f 45/150/4 21/24/4 47/151/4
f 57/147/4 45/150/4 43/152/4
f 29/155/9 22/154/9 64/153/9
f 22/154/9 29/155/9 24/156/9
f 62/159/10 17/158/10 60/157/10
f 17/158/10 62/159/10 16/160/10
f 54/163/10 3/162/10 72/161/10
f 3/162/10 54/163/10 2/164/10
f 11/167/10 41/166/10 10/165/10
f 41/166/10 11/167/10 52/168/10

