# Created by Kenney (www.kenney.nl)

mtllib wallDetailHorizontal.mtl

g wallDetailHorizontal

v 0.5 0 0.5
v 0.5 0 0.4
v 0.4 0 0.5
v 0.4875 0 0.4
v 0.4125 0 0.4
v 0.4 0 0.4
v 0.4875 0 -0.4
v 0.4125 0 -0.4
v 0.4 0 -0.5
v 0.4 0 -0.4
v 0.5 0 -0.5
v 0.5 0 -0.4
v 0.425 0.15 -0.4
v 0.4125 0.15 -0.4
v 0.425 0.425 -0.4
v 0.4125 0.425 -0.4
v 0.4 1 -0.4
v 0.4125 0.575 -0.4
v 0.425 1 -0.4
v 0.425 0.575 -0.4
v 0.5 1 -0.5
v 0.5 1 -0.4
v 0.4 1 -0.5
v 0.5 1 0.4
v 0.5 1 0.5
v 0.4875 0.15 -0.4
v 0.4875 0.425 -0.4
v 0.475 0.15 -0.4
v 0.475 0.425 -0.4
v 0.4875 0.575 -0.4
v 0.475 0.575 -0.4
v 0.475 1 -0.4
v 0.4875 0.15 0.4
v 0.475 0.15 0.4
v 0.425 0.425 0.4
v 0.4125 0.425 0.4
v 0.4125 0.575 0.4
v 0.425 0.575 0.4
v 0.4 1 0.4
v 0.4 1 0.5
v 0.475 1 0.4
v 0.425 1 0.4
v 0.4875 0.575 0.4
v 0.4875 0.425 0.4
v 0.475 0.425 0.4
v 0.475 0.575 0.4
v 0.4125 0.15 0.4
v 0.425 0.15 0.4

vn 0 -1 0
vn 0 0 1
vn 1 0 0
vn 0 0 -1
vn 0 1 0
vn -1 0 0

vt 19.68504 19.68504
vt 19.68504 15.74803
vt 15.74803 19.68504
vt 19.19291 15.74803
vt 16.24016 15.74803
vt 15.74803 15.74803
vt 19.19291 -15.74803
vt 16.24016 -15.74803
vt 15.74803 -19.68504
vt 15.74803 -15.74803
vt 19.68504 -19.68504
vt 19.68504 -15.74803
vt 16.73228 5.905512
vt 16.24016 5.905512
vt 16.73228 16.73228
vt 16.24016 16.73228
vt 15.74803 39.37008
vt 16.24016 22.63779
vt 15.74803 -1.462564E-15
vt 16.24016 -1.462564E-15
vt 16.73228 39.37008
vt 16.73228 22.63779
vt 19.68504 39.37008
vt 19.68504 0
vt 15.74803 0
vt -15.74803 0
vt -19.68504 0
vt -15.74803 39.37008
vt -19.68504 39.37008
vt 19.68504 -4.993145E-15
vt 19.19291 -4.993145E-15
vt 19.19291 5.905512
vt 19.19291 16.73228
vt 18.70079 5.905512
vt 18.70079 16.73228
vt 19.19291 22.63779
vt 18.70079 22.63779
vt 18.70079 39.37008
vt -19.19291 -15.74803
vt -19.19291 15.74803
vt -18.70079 -15.74803
vt -18.70079 15.74803
vt 16.73228 15.74803
vt 16.73228 -15.74803
vt -15.74803 16.73228
vt -15.74803 22.63779
vt 15.74803 16.73228
vt 15.74803 22.63779
vt 15.74803 5.905512
vt -15.74803 5.905512
vt -16.73228 -15.74803
vt -16.73228 15.74803
vt -16.24016 -15.74803
vt -16.24016 15.74803
vt -19.68504 15.74803
vt -19.68504 19.68504
vt -15.74803 19.68504
vt -15.74803 15.74803
vt -18.70079 5.905512
vt -19.19291 5.905512
vt -18.70079 16.73228
vt -19.19291 16.73228
vt -19.19291 22.63779
vt -19.68504 4.993145E-15
vt -19.19291 4.993145E-15
vt -18.70079 39.37008
vt -18.70079 22.63779
vt -15.74803 1.392919E-15
vt -16.24016 1.392919E-15
vt -16.24016 5.905512
vt -16.24016 16.73228
vt -16.73228 5.905512
vt -16.73228 16.73228
vt -16.24016 22.63779
vt -16.73228 22.63779
vt -16.73228 39.37008
vt -19.68504 -19.68504
vt -19.68504 -15.74803
vt -15.74803 -19.68504
vt -15.74803 -15.74803
vt 18.70079 15.74803
vt 18.70079 -15.74803

usemtl wood

f 3/3/1 2/2/1 1/1/1
f 2/2/1 3/3/1 4/4/1
f 4/4/1 3/3/1 5/5/1
f 5/5/1 3/3/1 6/6/1
f 4/4/1 5/5/1 7/7/1
f 8/8/1 7/7/1 5/5/1
f 9/9/1 7/7/1 8/8/1
f 9/9/1 8/8/1 10/10/1
f 11/11/1 7/7/1 9/9/1
f 7/7/1 11/11/1 12/12/1
f 15/15/2 14/14/2 13/13/2
f 16/16/2 14/14/2 15/15/2
f 17/17/2 14/14/2 16/16/2
f 17/17/2 16/16/2 18/18/2
f 10/19/2 14/14/2 17/17/2
f 14/14/2 10/19/2 8/20/2
f 17/17/2 18/18/2 19/21/2
f 19/21/2 18/18/2 20/22/2
f 22/17/3 11/24/3 21/23/3
f 11/24/3 22/17/3 12/25/3
f 23/28/4 11/27/4 9/26/4
f 11/27/4 23/28/4 21/29/4
f 25/29/3 2/26/3 24/28/3
f 2/26/3 25/29/3 1/27/3
f 22/23/2 7/31/2 12/30/2
f 7/31/2 22/23/2 26/32/2
f 26/32/2 22/23/2 27/33/2
f 26/32/2 27/33/2 28/34/2
f 29/35/2 28/34/2 27/33/2
f 27/33/2 22/23/2 30/36/2
f 30/36/2 22/23/2 31/37/2
f 31/37/2 22/23/2 32/38/2
f 28/41/5 33/40/5 26/39/5
f 33/40/5 28/41/5 34/42/5
f 36/5/1 15/44/1 35/43/1
f 15/44/1 36/5/1 16/8/1
f 36/47/6 18/46/6 16/45/6
f 18/46/6 36/47/6 37/48/6
f 33/50/3 7/25/3 26/49/3
f 7/25/3 33/50/3 4/26/3
f 18/53/5 38/52/5 20/51/5
f 38/52/5 18/53/5 37/54/5
f 3/24/6 39/17/6 6/25/6
f 39/17/6 3/24/6 40/23/6
f 41/42/5 25/56/5 24/55/5
f 25/56/5 41/42/5 40/57/5
f 40/57/5 41/42/5 42/52/5
f 40/57/5 42/52/5 39/58/5
f 43/46/3 27/47/3 30/48/3
f 27/47/3 43/46/3 44/45/3
f 10/26/6 23/29/6 9/27/6
f 23/29/6 10/26/6 17/28/6
f 45/61/4 33/60/4 34/59/4
f 44/62/4 33/60/4 45/61/4
f 24/29/4 33/60/4 44/62/4
f 24/29/4 44/62/4 43/63/4
f 2/64/4 33/60/4 24/29/4
f 33/60/4 2/64/4 4/65/4
f 24/29/4 43/63/4 41/66/4
f 41/66/4 43/63/4 46/67/4
f 25/23/2 3/25/2 1/24/2
f 3/25/2 25/23/2 40/17/2
f 39/28/4 5/69/4 6/68/4
f 5/69/4 39/28/4 47/70/4
f 47/70/4 39/28/4 36/71/4
f 47/70/4 36/71/4 48/72/4
f 35/73/4 48/72/4 36/71/4
f 36/71/4 39/28/4 37/74/4
f 37/74/4 39/28/4 38/75/4
f 38/75/4 39/28/4 42/76/4
f 31/41/5 43/40/5 30/39/5
f 43/40/5 31/41/5 46/42/5
f 23/79/5 22/78/5 21/77/5
f 22/78/5 23/79/5 32/41/5
f 32/41/5 23/79/5 19/51/5
f 19/51/5 23/79/5 17/80/5
f 14/53/5 48/52/5 13/51/5
f 48/52/5 14/53/5 47/54/5
f 5/25/6 14/50/6 8/26/6
f 14/50/6 5/25/6 47/49/6
f 45/81/1 27/7/1 44/4/1
f 27/7/1 45/81/1 29/82/1

usemtl stone

f 19/51/5 41/42/5 32/41/5
f 41/42/5 19/51/5 42/52/5
f 38/48/6 19/28/6 20/46/6
f 19/28/6 38/48/6 42/17/6
f 41/28/3 31/48/3 32/17/3
f 31/48/3 41/28/3 46/46/3
f 45/45/3 28/49/3 29/47/3
f 28/49/3 45/45/3 34/50/3
f 48/49/6 15/45/6 13/50/6
f 15/45/6 48/49/6 35/47/6

