# Created by Kenney (www.kenney.nl)

mtllib wallWoodBroken.mtl

g wallWoodBroken

v 0.475 0.4166667 -0.07979485
v 0.5096424 0.4166667 -0.09145331
v 0.475 0.4166667 -0.1943911
v 0.425 0.25 -0.1211536
v 0.425 0.25 -0.2342147
v 0.3967347 0.25 -0.1287272
v 0.475 0.25 -0.2276321
v 0.5032653 0.25 -0.3331196
v 0.475 0.25 -0.3406933
v 0.425 0.4166667 -0.1862033
v 0.425 0.4166667 -0.2338958
v 0.4105826 0.4166667 -0.2290438
v 0.425 0.5948657 -0.05
v 0.475 0.5948657 -0.05
v 0.425 0.6360264 -0.05
v 0.475 0.6360264 -0.05
v 0.475 0.25 -0.425
v 0.425 0.25 -0.425
v 0.454969 0.25 -0.3460605
v 0.425 0.4977836 0.01
v 0.475 0.4977836 0.01
v 0.425 0.5948657 0.01
v 0.475 0.5948657 0.01
v 0.425 0.08333334 -0.425
v 0.475 0.08333334 -0.425
v 0.425 0.1666667 -0.425
v 0.475 0.1666667 -0.425
v 0.475 0.1666667 -0.35
v 0.475 0 0.4
v 0.475 0.08333334 -0.5
v 0.475 0 -0.5
v 0.475 0.2193597 -0.35
v 0.475 0.2193597 -0.425
v 0.475 0.25 -0.08486027
v 0.475 0.3333333 -0.08486027
v 0.475 0.3333333 -0.2
v 0.475 0.3860264 -0.2
v 0.475 0.3860264 -0.275
v 0.475 0.4166667 -0.275
v 0.475 0.4166667 -0.05
v 0.475 0.6666667 0.175
v 0.475 0.4977836 -0.05
v 0.475 0.6360264 -0.125
v 0.475 0.6666667 -0.125
v 0.475 0.75 0.325
v 0.475 0.75 0.175
v 0.475 0.9166666 0.4
v 0.475 0.9166666 0.325
v 0.425 0.6666667 -0.125
v 0.425 0.6666667 0.175
v 0.425 0.1666667 -0.35
v 0.425 0.3333333 -0.2
v 0.425 0.3860264 -0.2
v 0.425 0.25 -0.08486027
v 0.425 0.3333333 -0.08486027
v 0.425 0.3860264 -0.275
v 0.425 0.4166667 -0.275
v 0.425 0.08333334 -0.5
v 0.425 0.75 0.175
v 0.425 0.75 0.325
v 0.425 0.9166666 0.325
v 0.425 0 -0.5
v 0.425 0 0.4
v 0.425 0.4977836 -0.05
v 0.425 0.4166667 -0.05
v 0.425 0.6360264 -0.125
v 0.425 0.9166666 0.4
v 0.425 0.2193597 -0.35
v 0.425 0.2193597 -0.425
v 0.462254 0.4166667 -0.07550535
v 0.5032653 0.2806402 -0.3331196
v 0.445031 0.2806402 -0.1157863
v 0.445031 0.25 -0.1157863
v 0.454969 0.2806402 -0.3460605
v 0.3967347 0.2806402 -0.1287272
v 0.4105826 0.4473069 -0.2290438
v 0.462254 0.4473069 -0.07550535
v 0.5096424 0.4473069 -0.09145331
v 0.457971 0.4166667 -0.2449918
v 0.457971 0.4473069 -0.2449918
v 0.4 0 0.4
v 0.4 1 0.4
v 0.4 0 0.5
v 0.4 1 0.5
v 0.5 1 0.4
v 0.5 1 0.5
v 0.475 1 0.4
v 0.5 0 0.5
v 0.5 0 0.4

vn 0 -1 0
vn 0 0 -1
vn 0 1 0
vn 1 0 0
vn -1 0 0
vn 0.9659258 0 0.258819
vn -0.9659258 0 -0.258819
vn -0.9477684 0 0.3189593
vn 0.3189593 0 0.9477684
vn -0.3189593 0 -0.9477684
vn 0.258819 0 -0.9659258
vn 0.9477684 0 -0.3189593
vn -0.258819 0 0.9659258
vn 0 0 1

vt 18.70079 -3.14153
vt 20.06466 -3.600524
vt 18.70079 -7.653194
vt 16.73228 -4.769825
vt 16.73228 -9.221052
vt 15.61948 -5.068001
vt 18.70079 -8.961893
vt 19.81359 -13.11494
vt 18.70079 -13.41312
vt 16.73228 -7.330839
vt 16.73228 -9.208497
vt 16.16467 -9.017473
vt -16.73228 23.41991
vt -18.70079 23.41991
vt -16.73228 25.04041
vt -18.70079 25.04041
vt -18.70079 -16.73228
vt -18.70079 -13.41312
vt -16.73228 -16.73228
vt -17.91216 -13.62443
vt -16.73228 -9.221052
vt -16.73228 19.59778
vt -18.70079 19.59778
vt -16.73228 3.28084
vt -18.70079 3.28084
vt -16.73228 6.56168
vt -18.70079 6.56168
vt 16.73228 6.56168
vt 16.73228 3.28084
vt 13.77953 6.56168
vt -15.74803 5.046071E-15
vt 19.68504 3.28084
vt 19.68504 5.046071E-15
vt 13.41312 9.84252
vt 8.961893 9.84252
vt 13.77953 8.63621
vt 16.73228 8.63621
vt 16.73228 9.84252
vt 3.340955 9.84252
vt 3.14153 16.4042
vt 3.340955 13.12336
vt 7.653194 16.4042
vt 7.874016 13.12336
vt 7.874016 15.19789
vt 10.82677 15.19789
vt 10.82677 16.4042
vt 1.968504 16.4042
vt -0.3937008 19.59778
vt -6.889764 26.24672
vt 1.968504 19.59778
vt -0.3937008 23.41991
vt 1.968504 23.41991
vt 1.968504 25.04041
vt 4.92126 25.04041
vt 4.92126 26.24672
vt -12.79528 29.52756
vt -6.889764 29.52756
vt -15.74803 36.08924
vt -12.79528 36.08924
vt -18.70079 -4.92126
vt -18.70079 6.889764
vt -16.73228 -4.92126
vt -16.73228 6.889764
vt -18.70079 -13.77953
vt -16.73228 -13.77953
vt -16.73228 13.12336
vt -18.70079 13.12336
vt -16.73228 15.19789
vt -18.70079 15.19789
vt -16.73228 9.84252
vt -18.70079 9.84252
vt -16.73228 16.4042
vt -18.70079 16.4042
vt 18.70079 -7.874016
vt 18.70079 -10.82677
vt 16.73228 -7.874016
vt 16.73228 -10.82677
vt -18.70079 -19.68504
vt -16.73228 -19.68504
vt -16.73228 26.24672
vt -18.70079 26.24672
vt -16.73228 29.52756
vt -18.70079 29.52756
vt -16.73228 36.08924
vt -18.70079 36.08924
vt -16.73228 -1.364242E-12
vt -18.70079 -1.364242E-12
vt -18.70079 12.79528
vt -16.73228 12.79528
vt 18.70079 -3.340955
vt 16.73228 -3.340955
vt 18.70079 0.3937008
vt 18.70079 -1.968504
vt 16.73228 0.3937008
vt 16.73228 -1.968504
vt -1.968504 23.41991
vt -1.968504 25.04041
vt 0.3937008 23.41991
vt 6.889764 26.24672
vt 15.74803 9.277344E-15
vt 0.3937008 19.59778
vt -1.968504 19.59778
vt -1.968504 16.4042
vt -4.92126 26.24672
vt -4.92126 25.04041
vt 6.889764 29.52756
vt 12.79528 29.52756
vt 12.79528 36.08924
vt 15.74803 36.08924
vt -3.340955 13.12336
vt -3.340955 9.84252
vt -4.769825 9.84252
vt -7.330839 16.4042
vt -9.221052 9.84252
vt -7.874016 15.19789
vt -7.874016 13.12336
vt -9.208497 16.4042
vt -10.82677 16.4042
vt -10.82677 15.19789
vt -13.77953 8.63621
vt -16.73228 8.63621
vt -13.77953 6.56168
vt -19.68504 3.28084
vt -19.68504 9.277344E-15
vt 18.70079 15.74803
vt 18.70079 -19.68504
vt 16.73228 15.74803
vt 16.73228 -19.68504
vt -18.70079 8.63621
vt -18.70079 15.74803
vt -16.73228 15.74803
vt -18.70079 -3.14153
vt -18.70079 -1.968504
vt -18.19898 -2.972651
vt -16.73228 -1.968504
vt -16.73228 -7.330839
vt 18.70079 -4.92126
vt 16.73228 -4.92126
vt 18.70079 -13.77953
vt 18.70079 -16.73228
vt 16.73228 -13.77953
vt 16.73228 -16.73228
vt -18.70079 0.3937008
vt -16.73228 0.3937008
vt 17.7962 11.04883
vt 17.7962 9.84252
vt 8.937931 11.04883
vt 13.49664 9.84252
vt 8.937931 9.84252
vt -17.7962 9.84252
vt -17.7962 11.04883
vt -13.23749 9.84252
vt -8.937931 11.04883
vt -8.937931 9.84252
vt -3.390605 16.4042
vt -3.390605 17.61051
vt -1.61102 16.4042
vt 2.987348 17.61051
vt 2.987348 16.4042
vt 20.16507 16.4042
vt 18.72604 16.4042
vt 20.16507 17.61051
vt 18.19657 16.4042
vt 18.19657 17.61051
vt -18.70079 -7.653194
vt -18.03035 -9.645346
vt -18.70079 -10.82677
vt -16.73228 -10.82677
vt -16.73228 -9.208497
vt -18.70079 -8.961893
vt -18.70079 -3.340955
vt -17.52091 -4.558515
vt -16.73228 -3.340955
vt -16.73228 -4.769825
vt -18.19657 16.4042
vt -18.79547 16.4042
vt -18.19657 17.61051
vt -20.16507 17.61051
vt -20.16507 16.4042
vt -20.06466 -3.600524
vt -16.16467 -9.017473
vt -19.81359 -13.11494
vt -15.61948 -5.068001
vt -13.77556 9.84252
vt -14.592 9.84252
vt -13.77556 11.04883
vt -15.74407 9.84252
vt -15.74407 11.04883
vt 3.390605 17.61051
vt 3.390605 16.4042
vt -2.987348 17.61051
vt 1.288665 16.4042
vt -2.987348 16.4042
vt 15.74407 9.84252
vt 14.92762 9.84252
vt 15.74407 11.04883
vt 13.77556 9.84252
vt 13.77556 11.04883
vt 15.74803 0
vt 15.74803 39.37008
vt 19.68504 0
vt 19.68504 39.37008
vt -19.68504 15.74803
vt -19.68504 19.68504
vt -15.74803 19.68504
vt -15.74803 15.74803
vt 19.68504 -2.842171E-14
vt 15.74803 -2.842171E-14
vt -18.70079 2.264302E-14
vt -19.68504 2.264302E-14
vt -19.68504 39.37008
vt -18.70079 39.37008
vt -15.74803 39.37008
vt -16.73228 1.948917E-14
vt -15.74803 1.948917E-14
vt 19.68504 19.68504
vt 19.68504 15.74803
vt 15.74803 19.68504
vt 15.74803 15.74803
vt -15.74803 0
vt -19.68504 0

usemtl woodDark

f 3/3/1 2/2/1 1/1/1
f 6/6/1 5/5/1 4/4/1
f 9/9/1 8/8/1 7/7/1
f 12/12/1 11/11/1 10/10/1
f 15/15/2 14/14/2 13/13/2
f 14/14/2 15/15/2 16/16/2
f 18/19/3 9/18/3 17/17/3
f 9/18/3 18/19/3 19/20/3
f 19/20/3 18/19/3 5/21/3
f 22/13/2 21/23/2 20/22/2
f 21/23/2 22/13/2 23/14/2
f 26/26/2 25/25/2 24/24/2
f 25/25/2 26/26/2 27/27/2
f 28/30/4 25/29/4 27/28/4
f 29/31/4 25/29/4 28/30/4
f 29/31/4 30/32/4 25/29/4
f 30/32/4 29/31/4 31/33/4
f 29/31/4 28/30/4 9/34/4
f 29/31/4 9/34/4 7/35/4
f 32/36/4 9/34/4 28/30/4
f 33/37/4 9/34/4 32/36/4
f 9/34/4 33/37/4 17/38/4
f 29/31/4 7/35/4 34/39/4
f 29/31/4 34/39/4 1/40/4
f 35/41/4 1/40/4 34/39/4
f 35/41/4 3/42/4 1/40/4
f 36/43/4 3/42/4 35/41/4
f 37/44/4 3/42/4 36/43/4
f 38/45/4 3/42/4 37/44/4
f 3/42/4 38/45/4 39/46/4
f 29/31/4 1/40/4 40/47/4
f 29/31/4 40/47/4 21/48/4
f 29/31/4 21/48/4 41/49/4
f 21/48/4 40/47/4 42/50/4
f 23/51/4 41/49/4 21/48/4
f 14/52/4 41/49/4 23/51/4
f 16/53/4 41/49/4 14/52/4
f 43/54/4 41/49/4 16/53/4
f 41/49/4 43/54/4 44/55/4
f 29/31/4 41/49/4 45/56/4
f 45/56/4 41/49/4 46/57/4
f 45/56/4 47/58/4 29/31/4
f 47/58/4 45/56/4 48/59/4
f 49/62/3 41/61/3 44/60/3
f 41/61/3 49/62/3 50/63/3
f 26/19/3 28/64/3 27/17/3
f 28/64/3 26/19/3 51/65/3
f 53/68/2 36/67/2 52/66/2
f 36/67/2 53/68/2 37/69/2
f 55/66/2 34/71/2 54/70/2
f 34/71/2 55/66/2 35/67/2
f 57/72/2 38/69/2 56/68/2
f 38/69/2 57/72/2 39/73/2
f 53/76/1 38/75/1 37/74/1
f 38/75/1 53/76/1 56/77/1
f 58/79/3 25/17/3 30/78/3
f 25/17/3 58/79/3 24/19/3
f 59/82/2 41/81/2 50/80/2
f 41/81/2 59/82/2 46/83/2
f 61/84/2 45/83/2 60/82/2
f 45/83/2 61/84/2 48/85/2
f 58/24/2 31/87/2 62/86/2
f 31/87/2 58/24/2 30/25/2
f 59/63/3 45/88/3 46/61/3
f 45/88/3 59/63/3 60/89/3
f 55/91/1 36/74/1 35/90/1
f 36/74/1 55/91/1 52/76/1
f 22/94/1 14/93/1 23/92/1
f 14/93/1 22/94/1 13/95/1
f 22/98/5 15/97/5 13/96/5
f 50/99/5 15/97/5 22/98/5
f 22/98/5 63/100/5 50/99/5
f 20/101/5 63/100/5 22/98/5
f 64/102/5 63/100/5 20/101/5
f 65/103/5 63/100/5 64/102/5
f 49/104/5 15/97/5 50/99/5
f 15/97/5 49/104/5 66/105/5
f 50/99/5 63/100/5 59/106/5
f 59/106/5 63/100/5 60/107/5
f 60/107/5 63/100/5 61/108/5
f 61/108/5 63/100/5 67/109/5
f 55/110/5 63/100/5 65/103/5
f 54/111/5 63/100/5 55/110/5
f 4/112/5 63/100/5 54/111/5
f 10/113/5 55/110/5 65/103/5
f 5/114/5 63/100/5 4/112/5
f 53/115/5 55/110/5 10/113/5
f 55/110/5 53/115/5 52/116/5
f 11/117/5 53/115/5 10/113/5
f 57/118/5 53/115/5 11/117/5
f 53/115/5 57/118/5 56/119/5
f 68/120/5 63/100/5 5/114/5
f 18/70/5 68/120/5 5/114/5
f 68/120/5 18/70/5 69/121/5
f 51/122/5 63/100/5 68/120/5
f 26/26/5 63/100/5 51/122/5
f 24/24/5 63/100/5 26/26/5
f 58/123/5 63/100/5 24/24/5
f 63/100/5 58/123/5 62/124/5
f 63/127/1 31/126/1 29/125/1
f 31/126/1 63/127/1 62/128/1
f 68/121/2 28/27/2 51/26/2
f 28/27/2 68/121/2 32/129/2
f 61/89/3 47/130/3 48/88/3
f 47/130/3 61/89/3 67/131/3
f 64/22/2 40/73/2 65/72/2
f 40/73/2 64/22/2 42/23/2
f 70/134/3 40/133/3 1/132/3
f 40/133/3 70/134/3 65/135/3
f 65/135/3 70/134/3 10/136/3
f 49/80/2 43/16/2 66/15/2
f 43/16/2 49/80/2 44/81/2
f 15/95/1 43/137/1 16/93/1
f 43/137/1 15/95/1 66/138/1
f 18/70/2 33/129/2 69/121/2
f 33/129/2 18/70/2 17/71/2
f 68/141/1 33/140/1 32/139/1
f 33/140/1 68/141/1 69/142/1
f 64/135/3 21/143/3 42/133/3
f 21/143/3 64/135/3 20/144/3
f 72/147/6 8/146/6 71/145/6
f 8/146/6 72/147/6 7/148/6
f 7/148/6 72/147/6 73/149/6
f 5/152/7 74/151/7 19/150/7
f 74/151/7 5/152/7 75/153/7
f 75/153/7 5/152/7 6/154/7
f 10/157/8 76/156/8 12/155/8
f 76/156/8 10/157/8 77/158/8
f 77/158/8 10/157/8 70/159/8
f 78/162/9 1/161/9 2/160/9
f 1/161/9 78/162/9 70/163/9
f 70/163/9 78/162/9 77/164/9
f 39/167/3 79/166/3 3/165/3
f 79/166/3 39/167/3 57/168/3
f 79/166/3 57/168/3 11/169/3
f 73/172/3 34/171/3 7/170/3
f 34/171/3 73/172/3 54/173/3
f 54/173/3 73/172/3 4/174/3
f 76/177/10 11/176/10 12/175/10
f 80/178/10 11/176/10 76/177/10
f 11/176/10 80/178/10 79/179/10
f 80/166/3 77/134/3 78/180/3
f 77/134/3 80/166/3 76/181/3
f 74/20/3 72/172/3 71/182/3
f 72/172/3 74/20/3 75/183/3
f 74/186/11 9/185/11 19/184/11
f 9/185/11 74/186/11 8/187/11
f 8/187/11 74/186/11 71/188/11
f 78/191/12 79/190/12 80/189/12
f 79/190/12 78/191/12 3/192/12
f 3/192/12 78/191/12 2/193/12
f 72/196/13 4/195/13 73/194/13
f 4/195/13 72/196/13 6/197/13
f 6/197/13 72/196/13 75/198/13

usemtl wood

f 83/201/5 82/200/5 81/199/5
f 82/200/5 83/201/5 84/202/5
f 87/130/3 86/204/3 85/203/3
f 86/204/3 87/130/3 84/205/3
f 84/205/3 87/130/3 82/206/3
f 86/202/14 83/208/14 88/207/14
f 83/208/14 86/202/14 84/200/14
f 47/85/2 89/210/2 29/209/2
f 89/210/2 47/85/2 85/211/2
f 85/211/2 47/85/2 87/212/2
f 47/85/2 82/213/2 87/212/2
f 67/84/2 82/213/2 47/85/2
f 63/214/2 82/213/2 67/84/2
f 82/213/2 63/214/2 81/215/2
f 83/218/1 89/217/1 88/216/1
f 89/217/1 83/218/1 29/125/1
f 29/125/1 83/218/1 63/127/1
f 63/127/1 83/218/1 81/219/1
f 86/211/4 89/220/4 85/213/4
f 89/220/4 86/211/4 88/221/4

