# Created by Kenney (www.kenney.nl)

mtllib wallWoodWindowShutters.mtl

g wallWoodWindowShutters

v 0.425 0.75 -0.2
v 0.425 0.75 0.2
v 0.4 0.75 -0.2
v 0.4 0.75 0.2
v 0.425 0.25 0.25
v 0.425 0.2 0.25
v 0.425 0.8 0.25
v 0.425 0.25 0.2
v 0.425 0.8 -0.25
v 0.425 0.25 -0.2
v 0.425 0.2 -0.25
v 0.475 0.25 0.25
v 0.475 0.8 0.25
v 0.475 0.2 0.25
v 0.475 0.25 0.2
v 0.475 0.75 0.2
v 0.475 0.25 -0.2
v 0.475 0.2 -0.25
v 0.475 0.75 -0.2
v 0.475 0.8 -0.25
v 0.5 1 0.4
v 0.5 1 0.5
v 0.475 1 0.4
v 0.4 1 0.5
v 0.425 1 0.4
v 0.4 1 0.4
v 0.475 0.3 0.025
v 0.425 0.3 0.025
v 0.475 0.7 0.025
v 0.425 0.7 0.025
v 0.5 0.75 -0.2
v 0.5 0.75 0.2
v 0.475 0.7 -0.025
v 0.475 0.3 -0.025
v 0.5 1 -0.5
v 0.5 0 -0.5
v 0.5 1 -0.4
v 0.5 0 -0.4
v 0.4 0.3 0.15
v 0.5 0.3 0.15
v 0.4 0.7 0.15
v 0.5 0.7 0.15
v 0.425 0.3 -0.025
v 0.425 0.7 -0.025
v 0.4 0.3 -0.15
v 0.4 0.7 -0.15
v 0.5 0.3 -0.15
v 0.5 0.7 -0.15
v 0.4 0.25 0.2
v 0.4 0.25 -0.2
v 0.425 0 -0.4
v 0.4 0 -0.4
v 0.425 1 -0.4
v 0.4 1 -0.4
v 0.475 0 -0.4
v 0.4 0 -0.5
v 0.4 0 0.4
v 0.425 0 0.4
v 0.4 0 0.5
v 0.475 1 -0.4
v 0.5 0 0.4
v 0.5 0 0.5
v 0.5 0.25 0.2
v 0.5 0.25 -0.2
v 0.475 0 0.4
v 0.4 1 -0.5

vn 0 1 0
vn -1 0 0
vn 1 0 0
vn 0 0 1
vn 0 0 -1
vn 0 -1 0

vt -16.73228 -7.874016
vt -16.73228 7.874016
vt -15.74803 -7.874016
vt -15.74803 7.874016
vt 9.84252 9.84252
vt 9.84252 7.874016
vt 9.84252 31.49606
vt 7.874016 29.52756
vt 7.874016 9.84252
vt -7.874016 29.52756
vt -9.84252 31.49606
vt -7.874016 9.84252
vt -9.84252 7.874016
vt -9.84252 9.84252
vt -19.68504 15.74803
vt -19.68504 19.68504
vt -18.70079 15.74803
vt -15.74803 19.68504
vt -16.73228 15.74803
vt -15.74803 15.74803
vt 18.70079 11.81102
vt 16.73228 11.81102
vt 18.70079 27.55906
vt 16.73228 27.55906
vt -19.68504 -7.874016
vt -19.68504 7.874016
vt -18.70079 -7.874016
vt -18.70079 7.874016
vt 0.984252 27.55906
vt 0.984252 11.81102
vt -0.984252 27.55906
vt -0.984252 11.81102
vt 19.68504 39.37008
vt 19.68504 0
vt 15.74803 39.37008
vt 15.74803 0
vt -15.74803 11.81102
vt -19.68504 11.81102
vt -15.74803 27.55906
vt -19.68504 27.55906
vt -16.73228 11.81102
vt -18.70079 11.81102
vt -16.73228 27.55906
vt -18.70079 27.55906
vt 15.74803 11.81102
vt 15.74803 27.55906
vt 19.68504 11.81102
vt 19.68504 27.55906
vt 16.73228 7.874016
vt 16.73228 -7.874016
vt 15.74803 7.874016
vt 15.74803 -7.874016
vt 16.73228 0
vt 16.73228 39.37008
vt 19.68504 -15.74803
vt 19.68504 -19.68504
vt 18.70079 -15.74803
vt 15.74803 -19.68504
vt 16.73228 -15.74803
vt 15.74803 -15.74803
vt 16.73228 9.84252
vt 15.74803 9.84252
vt 16.73228 29.52756
vt 15.74803 29.52756
vt -15.74803 0
vt -16.73228 0
vt -15.74803 39.37008
vt -16.73228 39.37008
vt 18.70079 0
vt 18.70079 39.37008
vt -19.68504 39.37008
vt -19.68504 0
vt 19.68504 7.874016
vt 19.68504 -7.874016
vt 18.70079 7.874016
vt 18.70079 -7.874016
vt 19.68504 19.68504
vt 19.68504 15.74803
vt 15.74803 19.68504
vt 18.70079 15.74803
vt 16.73228 15.74803
vt 15.74803 15.74803
vt -18.70079 9.84252
vt -19.68504 9.84252
vt -18.70079 29.52756
vt -19.68504 29.52756
vt -18.70079 0
vt -18.70079 39.37008
vt -19.68504 -19.68504
vt -19.68504 -15.74803
vt -15.74803 -19.68504
vt -18.70079 -15.74803
vt -16.73228 -15.74803
vt -15.74803 -15.74803
vt -16.73228 9.84252
vt -16.73228 29.52756
vt -15.74803 9.84252
vt -15.74803 29.52756
vt 18.70079 9.84252
vt 18.70079 29.52756
vt 19.68504 9.84252
vt 19.68504 29.52756
vt -5.905512 11.81102
vt -5.905512 27.55906
vt 5.905512 11.81102
vt 5.905512 27.55906
vt 19.68504 -5.905512
vt 18.70079 0.984252
vt 19.68504 5.905512
vt 15.74803 5.905512
vt 18.70079 -0.984252
vt 16.73228 0.984252
vt 15.74803 -5.905512
vt 16.73228 -0.984252
vt -19.68504 5.905512
vt -18.70079 -0.984252
vt -19.68504 -5.905512
vt -15.74803 -5.905512
vt -18.70079 0.984252
vt -16.73228 -0.984252
vt -15.74803 5.905512
vt -16.73228 0.984252

usemtl wood

f 3/3/1 2/2/1 1/1/1
f 2/2/1 3/3/1 4/4/1
f 7/7/2 6/6/2 5/5/2
f 7/7/2 2/8/2 6/6/2
f 8/9/2 6/6/2 2/8/2
f 7/7/2 1/10/2 2/8/2
f 9/11/2 1/10/2 7/7/2
f 10/12/2 6/6/2 8/9/2
f 1/10/2 9/11/2 10/12/2
f 10/12/2 11/13/2 6/6/2
f 11/13/2 10/12/2 9/11/2
f 14/13/3 13/11/3 12/14/3
f 14/13/3 15/12/3 13/11/3
f 16/10/3 13/11/3 15/12/3
f 14/13/3 17/9/3 15/12/3
f 18/6/3 17/9/3 14/13/3
f 19/8/3 13/11/3 16/10/3
f 17/9/3 18/6/3 19/8/3
f 19/8/3 20/7/3 13/11/3
f 20/7/3 19/8/3 18/6/3
f 23/17/1 22/16/1 21/15/1
f 22/16/1 23/17/1 24/18/1
f 24/18/1 23/17/1 25/19/1
f 24/18/1 25/19/1 26/20/1
f 29/23/4 28/22/4 27/21/4
f 28/22/4 29/23/4 30/24/4
f 19/27/1 32/26/1 31/25/1
f 32/26/1 19/27/1 16/28/1
f 29/31/3 34/30/3 33/29/3
f 34/30/3 29/31/3 27/32/3
f 37/35/3 36/34/3 35/33/3
f 36/34/3 37/35/3 38/36/3
f 41/39/5 40/38/5 39/37/5
f 40/38/5 41/39/5 42/40/5
f 44/43/5 34/42/5 43/41/5
f 34/42/5 44/43/5 33/44/5
f 47/47/4 46/46/4 45/45/4
f 46/46/4 47/47/4 48/48/4
f 49/51/6 10/50/6 8/49/6
f 10/50/6 49/51/6 50/52/6
f 53/54/4 52/36/4 51/53/4
f 52/36/4 53/54/4 54/35/4
f 55/57/6 36/56/6 38/55/6
f 36/56/6 55/57/6 56/58/6
f 56/58/6 55/57/6 51/59/6
f 56/58/6 51/59/6 52/60/6
f 2/63/4 49/62/4 8/61/4
f 49/62/4 2/63/4 4/64/4
f 26/67/5 58/66/5 57/65/5
f 58/66/5 26/67/5 25/68/5
f 59/34/2 26/35/2 57/36/2
f 26/35/2 59/34/2 24/33/2
f 37/33/4 55/69/4 38/34/4
f 55/69/4 37/33/4 60/70/4
f 22/71/3 61/65/3 21/67/3
f 61/65/3 22/71/3 62/72/3
f 22/33/4 59/36/4 62/34/4
f 59/36/4 22/33/4 24/35/4
f 15/75/6 64/74/6 63/73/6
f 64/74/6 15/75/6 17/76/6
f 59/79/6 61/78/6 62/77/6
f 61/78/6 59/79/6 65/80/6
f 65/80/6 59/79/6 58/81/6
f 58/81/6 59/79/6 57/82/6
f 19/85/5 64/84/5 17/83/5
f 64/84/5 19/85/5 31/86/5
f 23/88/5 61/72/5 65/87/5
f 61/72/5 23/88/5 21/71/5
f 66/67/5 36/72/5 56/65/5
f 36/72/5 66/67/5 35/71/5
f 66/91/1 37/90/1 35/89/1
f 37/90/1 66/91/1 60/92/1
f 60/92/1 66/91/1 53/93/1
f 53/93/1 66/91/1 54/94/1
f 28/30/2 44/31/2 43/32/2
f 44/31/2 28/30/2 30/29/2
f 50/97/5 1/96/5 10/95/5
f 1/96/5 50/97/5 3/98/5
f 63/101/4 16/100/4 15/99/4
f 16/100/4 63/101/4 32/102/4
f 52/65/2 66/71/2 56/72/2
f 66/71/2 52/65/2 54/67/2
f 50/12/2 45/103/2 3/10/2
f 45/103/2 50/12/2 49/9/2
f 46/104/2 3/10/2 45/103/2
f 45/103/2 49/9/2 39/105/2
f 3/10/2 46/104/2 4/8/2
f 39/105/2 49/9/2 41/106/2
f 4/8/2 46/104/2 41/106/2
f 4/8/2 41/106/2 49/9/2
f 42/109/6 29/108/6 48/107/6
f 29/108/6 42/109/6 41/110/6
f 33/111/6 48/107/6 29/108/6
f 29/108/6 41/110/6 30/112/6
f 48/107/6 33/111/6 46/113/6
f 30/112/6 41/110/6 44/114/6
f 46/113/6 33/111/6 44/114/6
f 46/113/6 44/114/6 41/110/6
f 47/117/1 34/116/1 40/115/1
f 34/116/1 47/117/1 45/118/1
f 27/119/1 40/115/1 34/116/1
f 34/116/1 45/118/1 43/120/1
f 40/115/1 27/119/1 39/121/1
f 43/120/1 45/118/1 28/122/1
f 39/121/1 27/119/1 28/122/1
f 39/121/1 28/122/1 45/118/1
f 31/8/3 48/106/3 64/9/3
f 48/106/3 31/8/3 32/10/3
f 47/105/3 64/9/3 48/106/3
f 48/106/3 32/10/3 42/104/3
f 64/9/3 47/105/3 63/12/3
f 42/104/3 32/10/3 40/103/3
f 63/12/3 47/105/3 40/103/3
f 63/12/3 40/103/3 32/10/3

usemtl woodDark

f 58/81/6 55/57/6 65/80/6
f 55/57/6 58/81/6 51/59/6
f 53/93/1 23/17/1 60/92/1
f 23/17/1 53/93/1 25/19/1
f 11/13/2 58/36/2 6/6/2
f 6/6/2 58/36/2 5/5/2
f 5/5/2 58/36/2 7/7/2
f 11/13/2 51/65/2 58/36/2
f 25/35/2 7/7/2 58/36/2
f 51/65/2 11/13/2 53/67/2
f 25/35/2 9/11/2 7/7/2
f 53/67/2 9/11/2 25/35/2
f 9/11/2 53/67/2 11/13/2
f 20/7/3 23/67/3 13/11/3
f 13/11/3 23/67/3 12/14/3
f 12/14/3 23/67/3 14/13/3
f 20/7/3 60/35/3 23/67/3
f 65/65/3 14/13/3 23/67/3
f 60/35/3 20/7/3 55/36/3
f 65/65/3 18/6/3 14/13/3
f 55/36/3 18/6/3 65/65/3
f 18/6/3 55/36/3 20/7/3

