# Created by Kenney (www.kenney.nl)

mtllib wallWindowSmall.mtl

g wallWindowSmall

v 0.5 0 0.5
v 0.4 0 0.5
v 0.5 1 0.5
v 0.4 1 0.5
v 0.5 0.75 -0.11
v 0.5 0.75 0.11
v 0.475 0.75 -0.11
v 0.475 0.75 0.11
v 0.425 0.25 0.11
v 0.425 0.25 -0.11
v 0.4 0.25 0.11
v 0.4 0.25 -0.11
v 0.475 0.25 0.16
v 0.475 0.8 0.16
v 0.475 0.2 0.16
v 0.475 0.25 0.11
v 0.475 0.25 -0.11
v 0.475 0.2 -0.16
v 0.475 0.8 -0.16
v 0.425 0.75 -0.11
v 0.425 0.75 0.11
v 0.4 0.75 -0.11
v 0.4 0.75 0.11
v 0.5 0 0.4
v 0.475 0 0.4
v 0.425 0 0.4
v 0.4 0 0.4
v 0.5 1 -0.5
v 0.5 1 -0.4
v 0.4 1 -0.5
v 0.475 1 -0.4
v 0.425 1 -0.4
v 0.4 1 -0.4
v 0.4 0 -0.5
v 0.4 0 -0.4
v 0.475 1 0.4
v 0.5 1 0.4
v 0.5 0 -0.4
v 0.475 0 -0.4
v 0.4 1 0.4
v 0.425 1 0.4
v 0.425 0.25 0.16
v 0.425 0.2 0.16
v 0.425 0.8 0.16
v 0.425 0.8 -0.16
v 0.425 0.2 -0.16
v 0.5 0 -0.5
v 0.425 0 -0.4
v 0.4 0.3 0.06
v 0.5 0.3 0.06
v 0.4 0.7 0.06
v 0.5 0.7 0.06
v 0.4 0.3 -0.06
v 0.4 0.7 -0.06
v 0.5 0.3 -0.06
v 0.5 0.7 -0.06
v 0.5 0.25 -0.11
v 0.5 0.25 0.11

vn 0 0 1
vn 0 1 0
vn 0 -1 0
vn 1 0 0
vn 0 0 -1
vn -1 0 0

vt 19.68504 1.776357E-15
vt 15.74803 1.776357E-15
vt 19.68504 39.37008
vt 15.74803 39.37008
vt -19.68504 -4.330709
vt -19.68504 4.330709
vt -18.70079 -4.330709
vt -18.70079 4.330709
vt 16.73228 4.330709
vt 16.73228 -4.330709
vt 15.74803 4.330709
vt 15.74803 -4.330709
vt -6.299212 9.84252
vt -6.299212 31.49606
vt -6.299212 7.874016
vt -4.330709 9.84252
vt -4.330709 29.52756
vt 4.330709 9.84252
vt 6.299212 7.874016
vt 4.330709 29.52756
vt 6.299212 31.49606
vt -16.73228 -4.330709
vt -16.73228 4.330709
vt -15.74803 -4.330709
vt -15.74803 4.330709
vt 19.68504 19.68504
vt 19.68504 15.74803
vt 15.74803 19.68504
vt 18.70079 15.74803
vt 16.73228 15.74803
vt 15.74803 15.74803
vt -19.68504 -19.68504
vt -19.68504 -15.74803
vt -15.74803 -19.68504
vt -18.70079 -15.74803
vt -16.73228 -15.74803
vt -15.74803 -15.74803
vt -16.73228 9.84252
vt -16.73228 29.52756
vt -15.74803 9.84252
vt -15.74803 29.52756
vt -19.68504 0
vt -19.68504 39.37008
vt -15.74803 0
vt -15.74803 39.37008
vt -18.70079 0
vt -18.70079 39.37008
vt 19.68504 0
vt 18.70079 0
vt 18.70079 39.37008
vt -16.73228 0
vt -16.73228 39.37008
vt 6.299212 9.84252
vt 19.68504 -15.74803
vt 19.68504 -19.68504
vt 18.70079 -15.74803
vt 15.74803 -19.68504
vt 16.73228 -15.74803
vt 15.74803 -15.74803
vt -15.74803 11.81102
vt -19.68504 11.81102
vt -15.74803 27.55906
vt -19.68504 27.55906
vt -19.68504 15.74803
vt -19.68504 19.68504
vt -18.70079 15.74803
vt -15.74803 19.68504
vt -16.73228 15.74803
vt -15.74803 15.74803
vt 15.74803 11.81102
vt 15.74803 27.55906
vt 19.68504 11.81102
vt 19.68504 27.55906
vt -19.68504 -2.362205
vt -19.68504 2.362205
vt -15.74803 -2.362205
vt -15.74803 2.362205
vt 16.73228 0
vt 15.74803 0
vt 16.73228 39.37008
vt -18.70079 9.84252
vt -19.68504 9.84252
vt -18.70079 29.52756
vt -19.68504 29.52756
vt 18.70079 9.84252
vt 18.70079 29.52756
vt 19.68504 9.84252
vt 19.68504 29.52756
vt 19.68504 4.330709
vt 19.68504 -4.330709
vt 18.70079 4.330709
vt 18.70079 -4.330709
vt 16.73228 9.84252
vt 15.74803 9.84252
vt 16.73228 29.52756
vt 15.74803 29.52756
vt 19.68504 2.362205
vt 19.68504 -2.362205
vt 15.74803 2.362205
vt 15.74803 -2.362205
vt 2.362205 11.81102
vt -2.362205 11.81102
vt 2.362205 27.55906
vt -2.362205 27.55906

usemtl wood

f 3/3/1 2/2/1 1/1/1
f 2/2/1 3/3/1 4/4/1
f 7/7/2 6/6/2 5/5/2
f 6/6/2 7/7/2 8/8/2
f 11/11/3 10/10/3 9/9/3
f 10/10/3 11/11/3 12/12/3
f 15/15/4 14/14/4 13/13/4
f 15/15/4 16/16/4 14/14/4
f 8/17/4 14/14/4 16/16/4
f 15/15/4 17/18/4 16/16/4
f 18/19/4 17/18/4 15/15/4
f 7/20/4 14/14/4 8/17/4
f 17/18/4 18/19/4 7/20/4
f 7/20/4 19/21/4 14/14/4
f 19/21/4 7/20/4 18/19/4
f 22/24/2 21/23/2 20/22/2
f 21/23/2 22/24/2 23/25/2
f 2/28/3 24/27/3 1/26/3
f 24/27/3 2/28/3 25/29/3
f 25/29/3 2/28/3 26/30/3
f 26/30/3 2/28/3 27/31/3
f 30/34/2 29/33/2 28/32/2
f 29/33/2 30/34/2 31/35/2
f 31/35/2 30/34/2 32/36/2
f 32/36/2 30/34/2 33/37/2
f 12/40/5 20/39/5 10/38/5
f 20/39/5 12/40/5 22/41/5
f 35/44/6 30/43/6 34/42/6
f 30/43/6 35/44/6 33/45/6
f 36/47/5 24/42/5 25/46/5
f 24/42/5 36/47/5 37/43/5
f 29/3/1 39/49/1 38/48/1
f 39/49/1 29/3/1 31/50/1
f 40/45/5 26/51/5 27/44/5
f 26/51/5 40/45/5 41/52/5
f 44/21/6 43/19/6 42/53/6
f 44/21/6 21/20/6 43/19/6
f 9/18/6 43/19/6 21/20/6
f 44/21/6 20/17/6 21/20/6
f 45/14/6 20/17/6 44/21/6
f 10/16/6 43/19/6 9/18/6
f 20/17/6 45/14/6 10/16/6
f 10/16/6 46/15/6 43/19/6
f 46/15/6 10/16/6 45/14/6
f 39/56/3 47/55/3 38/54/3
f 47/55/3 39/56/3 34/57/3
f 34/57/3 39/56/3 48/58/3
f 34/57/3 48/58/3 35/59/3
f 3/43/4 24/44/4 37/45/4
f 24/44/4 3/43/4 1/42/4
f 51/62/5 50/61/5 49/60/5
f 50/61/5 51/62/5 52/63/5
f 36/66/2 3/65/2 37/64/2
f 3/65/2 36/66/2 4/67/2
f 4/67/2 36/66/2 41/68/2
f 4/67/2 41/68/2 40/69/2
f 55/72/1 54/71/1 53/70/1
f 54/71/1 55/72/1 56/73/1
f 53/76/2 50/75/2 55/74/2
f 50/75/2 53/76/2 49/77/2
f 32/80/1 35/79/1 48/78/1
f 35/79/1 32/80/1 33/4/1
f 7/83/5 57/82/5 17/81/5
f 57/82/5 7/83/5 5/84/5
f 58/87/1 8/86/1 16/85/1
f 8/86/1 58/87/1 6/88/1
f 2/48/6 40/4/6 27/79/6
f 40/4/6 2/48/6 4/3/6
f 16/91/3 57/90/3 58/89/3
f 57/90/3 16/91/3 17/92/3
f 21/95/1 11/94/1 9/93/1
f 11/94/1 21/95/1 23/96/1
f 30/45/5 47/42/5 34/44/5
f 47/42/5 30/45/5 28/43/5
f 29/4/4 47/48/4 28/3/4
f 47/48/4 29/4/4 38/79/4
f 51/99/3 56/98/3 52/97/3
f 56/98/3 51/99/3 54/100/3
f 53/102/6 11/18/6 49/101/6
f 49/101/6 11/18/6 51/103/6
f 53/102/6 12/16/6 11/18/6
f 23/20/6 51/103/6 11/18/6
f 12/16/6 53/102/6 22/17/6
f 23/20/6 54/104/6 51/103/6
f 22/17/6 54/104/6 23/20/6
f 54/104/6 22/17/6 53/102/6
f 5/20/4 56/103/4 57/18/4
f 56/103/4 5/20/4 6/17/4
f 55/101/4 57/18/4 56/103/4
f 56/103/4 6/17/4 52/104/4
f 57/18/4 55/101/4 58/16/4
f 52/104/4 6/17/4 50/102/4
f 58/16/4 55/101/4 50/102/4
f 58/16/4 50/102/4 6/17/4

usemtl stone

f 32/36/2 36/66/2 31/35/2
f 36/66/2 32/36/2 41/68/2
f 26/30/3 39/56/3 25/29/3
f 39/56/3 26/30/3 48/58/3
f 19/21/4 36/45/4 14/14/4
f 14/14/4 36/45/4 13/13/4
f 13/13/4 36/45/4 15/15/4
f 19/21/4 31/4/4 36/45/4
f 25/44/4 15/15/4 36/45/4
f 31/4/4 19/21/4 39/79/4
f 25/44/4 18/19/4 15/15/4
f 39/79/4 18/19/4 25/44/4
f 18/19/4 39/79/4 19/21/4
f 46/15/6 26/79/6 43/19/6
f 43/19/6 26/79/6 42/53/6
f 42/53/6 26/79/6 44/21/6
f 46/15/6 48/44/6 26/79/6
f 41/4/6 44/21/6 26/79/6
f 48/44/6 46/15/6 32/45/6
f 41/4/6 45/14/6 44/21/6
f 32/45/6 45/14/6 41/4/6
f 45/14/6 32/45/6 46/15/6

